<svg xmlns="http://www.w3.org/2000/svg" xmlns:xlink="http://www.w3.org/1999/xlink" width="363" height="269" viewBox="0 0 363 269"><defs><style>.a{fill:#fff;}.b{clip-path:url(#a);}.c,.g{fill:#eec9d2;}.c,.e,.p{opacity:0.1;}.d{fill:#535461;}.f{opacity:0.2;}.h{fill:url(#b);}.i{fill:#4c4c78;}.j{fill:#ffb9b9;}.k{fill:#cbcdda;}.l{opacity:0.05;}.m{fill:none;stroke:blue;stroke-miterlimit:10;stroke-width:0.323px;}.n{fill:#474463;}.o{fill:#472727;}</style><clipPath id="a"><rect class="a" width="363" height="269" rx="45" transform="translate(68 1203)"/></clipPath><linearGradient id="b" x1="-2.392" y1="1" x2="-2.392" gradientUnits="objectBoundingBox"><stop offset="0" stop-color="gray" stop-opacity="0.251"/><stop offset="0.54" stop-color="gray" stop-opacity="0.122"/><stop offset="1" stop-color="gray" stop-opacity="0.102"/></linearGradient></defs><g class="b" transform="translate(-68 -1203)"><g transform="translate(80.806 1203.007)"><ellipse class="c" cx="139.165" cy="9.654" rx="139.165" ry="9.654" transform="translate(23.246 249.685)"/><path class="c" d="M36.186,41.627C27.514,51.779,25.321,64.647,25.2,76.986c-.084,8.7,1.1,18.138,8.368,24.555,9.56,8.442,27.915,10.106,32.652,20.894,4.2,9.586-5.573,19.23-14.962,26s-20.171,15.05-18.416,25.124c1.111,6.433,7.208,11.483,13.289,15.722,11.56,8.077,24.555,15.143,39.2,18.581,26.577,6.229,55.284-.22,80.188-9.984,15.331-6.009,33.13-13.386,48.354-7.2,4.019,1.632,7.431,4.1,11.137,6.139,10.775,5.9,23.935,8.077,36.742,9.922,18.772,2.714,38.5,4.979,56.586.084s33.718-19.211,30.949-34.48c-2.611-14.384-19.23-23.76-32.474-33.585-4.672-3.467-9.428-8.061-8.265-13.1.924-4,5.273-6.785,9.15-9.37C338.108,102.594,353.106,83.71,360,63c3.257-9.77,4.433-21.027-2.834-29.266-5.861-6.646-15.906-9.838-25.46-12.465-17.728-4.875-35.9-8.995-54.544-10.106s-37.908,1.008-54.46,8.042c-7.938,3.376-15.134,7.822-23.149,11.072-22.759,9.227-49.575,7.987-74.957,6.53-9.069-.52-18.549-1.444-26.422-5.405-6.785-3.418-10.662-5.867-19.062-6.249C62.647,24.41,45.614,30.571,36.186,41.627Z" transform="translate(-25.182 -10.895)"/><path class="d" d="M133.908,100.275l-.355.733-2.3,4.733-24.164,49.617-41,100.468-5.861.045,41.026-100.514L129.2,97.945l2.045,1.011,2.3,1.141Z"/><path class="d" d="M205.848,255.872l-4.824-.045L160.017,155.358,136.49,107.043l-2.937-6.035-.359-.733.359-.178,2.937-1.454,1.412-.7,27.537,57.413Z"/><rect class="d" width="5.244" height="171.422" transform="translate(131.249 84.45)"/><path class="d" d="M158.454,67.1a6.678,6.678,0,0,0-6.672,6.672v2.384a6.674,6.674,0,1,0,13.349,0l0-2.384a6.682,6.682,0,0,0-6.675-6.672Zm5,9.047a5.008,5.008,0,1,1-10.016,0V73.765a5.008,5.008,0,0,1,10.016,0Z" transform="translate(-25.182 -10.895)"/><path class="e" d="M165.439,155.358h-5.421L136.49,107.043v48.315h-5.241V105.741l-24.164,49.617h-5.838L129.2,97.945l2.045,1.011V84.45h5.241V98.643l1.412-.7Z"/><path class="e" d="M165.129,74.014v2.145a6.674,6.674,0,1,1-13.348,0l0-2.145h1.667v2.145a5.008,5.008,0,1,0,10.016,0V74.014Z" transform="translate(-25.182 -10.895)"/><rect class="d" width="201.638" height="91.047" transform="translate(32.454 63.597)"/><rect class="a" width="194.01" height="82.944" transform="translate(36.031 66.457)"/><g class="f"><rect class="g" width="9.173" height="4.178" transform="translate(55.19 75.474)"/></g><g class="f"><rect class="g" width="9.173" height="4.178" transform="translate(55.19 83.555)"/></g><g class="f"><rect class="g" width="9.173" height="4.178" transform="translate(55.19 91.632)"/></g><g class="f"><rect class="g" width="9.173" height="4.178" transform="translate(55.19 99.709)"/></g><g class="f"><rect class="g" width="9.173" height="4.178" transform="translate(55.19 107.79)"/></g><g class="f"><rect class="g" width="9.173" height="4.178" transform="translate(55.19 115.867)"/></g><g class="f"><rect class="g" width="9.173" height="4.178" transform="translate(55.19 123.944)"/></g><g class="f"><rect class="g" width="9.173" height="4.178" transform="translate(55.19 132.021)"/></g><g class="f"><rect class="g" width="9.173" height="4.178" transform="translate(72.46 136.202)"/></g><g class="f"><rect class="g" width="9.173" height="4.178" transform="translate(88.617 136.202)"/></g><g class="f"><rect class="g" width="9.173" height="4.178" transform="translate(104.772 136.202)"/></g><g class="f"><rect class="g" width="9.173" height="4.178" transform="translate(120.93 136.202)"/></g><g class="f"><rect class="g" width="9.173" height="4.178" transform="translate(137.084 136.202)"/></g><g class="f"><rect class="g" width="9.173" height="4.178" transform="translate(153.242 136.202)"/></g><g class="f"><rect class="g" width="9.173" height="4.178" transform="translate(169.397 136.202)"/></g><g class="f"><rect class="g" width="9.173" height="4.178" transform="translate(185.554 136.202)"/></g><g class="f"><rect class="g" width="9.173" height="4.178" transform="translate(201.709 136.202)"/></g><rect class="g" width="9.173" height="26.183" transform="translate(72.46 105.838)"/><rect class="g" width="9.173" height="38.302" transform="translate(88.617 93.722)"/><rect class="g" width="9.173" height="48.47" transform="translate(104.772 83.555)"/><rect class="g" width="9.173" height="43.197" transform="translate(120.93 88.824)"/><rect class="g" width="9.173" height="52.37" transform="translate(137.084 79.655)"/><g class="f"><rect class="g" width="9.173" height="32.312" transform="translate(153.242 99.709)"/></g><g class="f"><rect class="g" width="9.173" height="32.312" transform="translate(169.397 99.709)"/></g><g class="f"><rect class="g" width="9.173" height="32.312" transform="translate(185.554 99.709)"/></g><g class="f"><rect class="g" width="9.173" height="32.312" transform="translate(201.709 99.709)"/></g><path class="d" d="M200.656,99.638l-78.543,4.833V106l80.217-3.182Z"/><path class="h" d="M318.829,142.441s4.11-6.759,3.018-17.363S316.8,97.312,316.8,97.312s1.716-9.615-7.589-10.966a33.207,33.207,0,0,1-9.919-3.677,9.508,9.508,0,0,1-3.554-3.554s-.055.158-.162.449a5.126,5.126,0,0,1-.252-.449s-.023.058-.058.162l-1.58-2.462s-.216.229-.582.607a16.44,16.44,0,0,1-1.615-2.908,8.4,8.4,0,0,0,1.153-.368,2.262,2.262,0,0,0,.94-.6,2.384,2.384,0,0,0,.426-1.063,12.923,12.923,0,0,0,.213-3.735,18.411,18.411,0,0,1-.216-2.924c.071-1.05.443-2.065.494-3.118a7.968,7.968,0,0,0-1.968-5.089c-.678-.876-1.441-1.69-2.029-2.627-.51-.814-.882-1.712-1.431-2.5a8.645,8.645,0,0,0-5.657-3.312,20.124,20.124,0,0,0-6.7.22,55.683,55.683,0,0,1-5.816.9c-1.693.1-3.073-.475-4.623.646a4.471,4.471,0,0,0-1.8,3.231,1.71,1.71,0,0,0,.048.646,4.642,4.642,0,0,0,.323.63c.688,1.357-.359,2.969-.223,4.485a3,3,0,0,0,2.649,2.611c-.061.129-.129.255-.187.388A13.4,13.4,0,0,0,278.033,81.7l.6.462c1.357,1.05,2.882,2.307,4.352,3.674l-.029.023-.239-.136a12.872,12.872,0,0,1-1.409.969,13.174,13.174,0,0,1-6.022,2.039s-4.42,2.342-5.942,10.068a25.975,25.975,0,0,1-13.037,6.413c-8.681,1.292-19.385,1.716-19.385,1.716s-.087.155-.21.439l-.989-.181a1.778,1.778,0,0,1-.042.323l-.388-.174c-3.066-1.341-9.192-3.3-9.967,2.09-1.04,7.224,5.848,6.394,5.848,6.394a32.123,32.123,0,0,1,4.178-1.27l.384-.074a2.139,2.139,0,0,0,.271.53h.937a11.058,11.058,0,0,0,1.173,1.906l21.835-.478a22.921,22.921,0,0,1,7.176-.3c-1.5,11.231-3.276,23.547-3.276,23.547s-3.716,19.505-1.115,21.544a39.576,39.576,0,0,1,4.607-1.234,20.969,20.969,0,0,0,.381,3.59l1.664,10.891s.646,11.127,2.808,17.77l1.906,9.079,1.6,6.862.9,11.647a110.625,110.625,0,0,1,2.669,15c.843,7.825,5.421,20.471,6.032,22.135-1.564,2.213-4.775,5.967-8.8,6.355-5.751.556-5.89,4.022-1.871,5.27s12.478,0,12.478,0l11.929-2.95c-.359,2.2-.546,3.938-.284,4.126.762.556,12.339,3.554,12.756-1.247q.049-.594.087-1.153a24.422,24.422,0,0,0-1.212-9.079c-.094-.288-.178-.578-.252-.869a5.361,5.361,0,0,0,.472-.611s.834-12.962,1.457-17.608c.048-.372.081-.824.1-1.334.288-5.57-1.745-20.222-1.745-20.222s-2.51-9.531-2.417-13.912a4.181,4.181,0,0,1,.184-1.073,1.187,1.187,0,0,0-.032-.233.621.621,0,0,1,.048-.184,102.673,102.673,0,0,1-1.1-13.912,10.766,10.766,0,0,1,.323-2.294,15.075,15.075,0,0,0,.307-3c.162-3.554-.026-9.693-.284-15.45.029-.1.058-.194.081-.307a3.005,3.005,0,0,0-.158-1.357c-.019-.372-.036-.74-.055-1.1.107-.365.194-.753.271-1.153h.168v.023s10.862-.52,13.36-3.431c0,0-2.523-7.841-3.922-14.216Zm-46.809-24.39-.171-.061c.275-.969.6-2.1.969-3.279C272.5,115.99,272.233,117.153,272.02,118.051Zm11.024-32.144.048.045-.052-.029Zm13.57,168.175c-.585-2.013-2.908-10.219-2.833-14.132a3.985,3.985,0,0,1,.178-1,7.482,7.482,0,0,0,.323-2.187c.233-4.084-1.331-11.4-1.331-11.4s-3.5-9.87-3.231-17.709c0-.2.023-.394.036-.591.058-.743.1-1.548.136-2.4v-.016c.132-3.027.1-6.672.016-10.071l-.019-.126c-.12-4.5-.342-8.552-.436-10.155.323,2.317,2.391,16.736,3.283,19.095a48.423,48.423,0,0,0,2.7,12.277l2.43,14.623s.624,17.4,1.661,22.322c.465,2.191.859,3.667,1.153,4.63-.42,1.961-1.1,5.247-1.554,7.967-.268-1.774-1.212-8.533-2.51-11.127Z" transform="translate(-25.182 -10.895)"/><path class="i" d="M286.226,254.531s-4.055,7.35-9.757,7.9-5.838,3.984-1.855,5.221,12.368,0,12.368,0l11.954-2.953s-1.444-11.819-3.367-12.436S286.226,254.531,286.226,254.531Z" transform="translate(-25.182 -10.895)"/><path class="i" d="M300.8,254.667s-3.024,13.6-2.262,14.155,12.229,3.5,12.643-1.237q.049-.6.087-1.144a24.251,24.251,0,0,0-1.2-9,7.2,7.2,0,0,1-.465-2.775C309.789,252.744,300.8,254.667,300.8,254.667Z" transform="translate(-25.182 -10.895)"/><path class="j" d="M297.047,82.456s-9.276,22.784-7.625,15.466c1.092-4.846-5.967-11.286-10.849-15.069-2.485-1.939-4.4-3.17-4.4-3.17s17.415-20.3,16.18-11.544a13.192,13.192,0,0,0,.95,7.069A18.528,18.528,0,0,0,297.047,82.456Z" transform="translate(-25.182 -10.895)"/><path class="j" d="M237.8,114.823a5.317,5.317,0,0,0-2.123.132,31.9,31.9,0,0,0-4.139,1.257s-6.827.824-5.8-6.336c.766-5.337,6.837-3.4,9.877-2.074,1.034.456,1.719.837,1.719.837Z" transform="translate(-25.182 -10.895)"/><path class="e" d="M237.8,114.823a5.317,5.317,0,0,0-2.123.132c-.743-1.874-.178-6.316-.058-7.153,1.034.456,1.719.837,1.719.837Z" transform="translate(-25.182 -10.895)"/><path class="k" d="M237.824,107.987l-1.787-.323s-.914,6.139.281,7.754h2.055Z" transform="translate(-25.182 -10.895)"/><path class="i" d="M273.658,119.188s-5.46-3.266-6.113.856-1.512,11.166-1.512,11.166l-1.512,8.966-1.958,17.964.275,3.056s5.816-1.958,7.179-1.27,2.475-7.557,2.475-7.557l2.262-8.52.342-18.067Z" transform="translate(-25.182 -10.895)"/><path class="e" d="M273.658,119.188s-5.46-3.266-6.113.856-1.512,11.166-1.512,11.166l-1.512,8.966-1.958,17.964.275,3.056s5.816-1.958,7.179-1.27,2.475-7.557,2.475-7.557l2.262-8.52.342-18.067Z" transform="translate(-25.182 -10.895)"/><path class="i" d="M270.715,98.026s-5.667,6.391-14.271,7.677-19.221,1.7-19.221,1.7a9.313,9.313,0,0,0,1.186,9.893l21.647-.478s4.791-1.04,8.5,0Z" transform="translate(-25.182 -10.895)"/><path class="l" d="M270.715,98.026s-5.667,6.391-14.271,7.677-19.221,1.7-19.221,1.7a9.313,9.313,0,0,0,1.186,9.893l21.647-.478s4.791-1.04,8.5,0Z" transform="translate(-25.182 -10.895)"/><path class="m" d="M223.673,124.254" transform="translate(-25.182 -10.895)"/><path class="e" d="M290.381,75.012c-2.113,4.523-5.787,7.858-11.114,7.858-.236,0-.465,0-.695-.016-2.485-1.939-4.4-3.17-4.4-3.17s17.415-20.3,16.18-11.544C289.968,70.822,289.532,73,290.381,75.012Z" transform="translate(-25.182 -10.895)"/><path class="j" d="M292.54,69.18a13.247,13.247,0,1,1-3.875-9.4,13.276,13.276,0,0,1,3.875,9.4Z" transform="translate(-25.182 -10.895)"/><path class="k" d="M300.652,150.308s-29.608,2.614-30.694-1.166,3.021-14.016,3.021-14.016l-1.338-14.29-.048-.546s3.709-15.46,3.573-16.694c-.129-1.111,5.971-14.084,7.224-16.736.149-.307.226-.475.226-.475l.236.136.1.061,1.451.846,5.728-1.357,6.9-3.615.646,39.55Z" transform="translate(-25.182 -10.895)"/><path class="e" d="M285.264,86.863a2.359,2.359,0,0,0-2.817,1.477,21,21,0,0,1-1.1,2.543l-.788,4.7-1.444,7.431-1.066,32.875.481,5.838,2.646-4.7.481-30.729v-3.822a27.669,27.669,0,0,1,2.2-9.6l.368-.863,2.3-2.956Z" transform="translate(-25.182 -10.895)"/><path class="i" d="M284.853,86.449a2.358,2.358,0,0,0-2.817,1.477,20.831,20.831,0,0,1-1.1,2.543l-.788,4.707-1.444,7.431-1.063,32.875.481,5.841,2.646-4.72.481-30.71v-3.832a27.814,27.814,0,0,1,2.2-9.6l.372-.863,2.3-2.953Z" transform="translate(-25.182 -10.895)"/><path class="e" d="M293.509,77.965s-7.008,7.431-9.483,8.313c0,0,1.237,5.635,2.475,6.733,0,0,7.354-7.5,8.656-8.106l1.092-2.672Z" transform="translate(-25.182 -10.895)"/><path class="k" d="M293.509,77.542s-7.008,7.431-9.483,8.313c0,0,1.237,5.635,2.475,6.733,0,0,7.354-7.5,8.656-8.106l1.092-2.669Z" transform="translate(-25.182 -10.895)"/><path class="e" d="M283.028,86.385l-.071.194L280.711,92.6,276.7,103.955s-.036.116-.107.323c-.666,2.068-4.242,13.289-4.947,16.549l-.048-.546s3.709-15.46,3.573-16.694c-.129-1.111,5.971-14.084,7.224-16.736.2-.136.355-.252.462-.339Z" transform="translate(-25.182 -10.895)"/><path class="i" d="M282.617,86.382,280.3,92.6l-4.016,11.357s-.036.116-.107.323c-.7,2.2-4.72,14.781-5.043,17.082-.365,2.527-5.415,16.184-5.415,16.184l-2.885,23.647c-2.585-2.006,1.086-21.324,1.086-21.324s4.123-28.648,5.1-38.18,6.239-12.316,6.239-12.316a13.159,13.159,0,0,0,5.967-2.019,12.6,12.6,0,0,0,1.4-.969Z" transform="translate(-25.182 -10.895)"/><path class="e" d="M311.712,238.522c-.617,4.6-1.441,17.447-1.441,17.447-2.885,4.326-9.276,1.99-9.276,1.99s-.685-1.292-1.716-6.184-1.648-22.122-1.648-22.122l-2.407-14.474a47.836,47.836,0,0,1-2.678-12.161c-.969-2.543-3.3-19.237-3.3-19.237s.969,14.975.346,22.878,3.157,18.536,3.157,18.536,2.132,9.964,1.031,13.056,2.75,15.867,2.75,15.867c-.323,3.712-11.263,2.2-11.263,2.2s-5.147-13.812-6.048-22.125a109.855,109.855,0,0,0-2.646-14.862l-.892-11.544-1.583-6.824-1.887-9c-2.132-6.594-2.782-17.621-2.782-17.621l-1.651-10.82c-1.079-5.35.323-11.631,1.254-14.917.4-1.425.727-2.294.727-2.294.947.672,6.368,1.46,9.173,2.1a16.078,16.078,0,0,0,4.685.375,104.39,104.39,0,0,0,20.933-3.838c.462-.139.708-.22.708-.22l.145,1.237.342,2.947.611,5.231s1.855,27.892.756,31.663.756,16.478.756,16.478c-1.031,3.014,2.2,15.266,2.2,15.266S312.332,233.918,311.712,238.522Z" transform="translate(-25.182 -10.895)"/><path class="n" d="M311.712,238.118c-.617,4.6-1.441,17.447-1.441,17.447-2.885,4.329-9.276,1.99-9.276,1.99s-.685-1.292-1.716-6.181-1.648-22.125-1.648-22.125l-2.407-14.494a48.7,48.7,0,0,1-2.678-12.177c-.969-2.543-3.3-19.237-3.3-19.237s.969,14.975.346,22.878,3.157,18.549,3.157,18.549,2.132,9.964,1.031,13.056,2.75,15.87,2.75,15.87c-.323,3.709-11.263,2.2-11.263,2.2s-5.147-13.8-6.048-22.112a109.85,109.85,0,0,0-2.646-14.862l-.892-11.541-1.583-6.8-1.887-9c-2.132-6.6-2.782-17.625-2.782-17.625l-1.651-10.82c-1.079-5.35.323-11.631,1.254-14.917.4-1.422.727-2.291.727-2.291.947.672,6.368,1.457,9.173,2.1a15.967,15.967,0,0,0,4.685.375,104.392,104.392,0,0,0,20.933-3.838l.708-.216.145,1.234.342,2.95.611,5.231s1.855,27.889.756,31.663.756,16.478.756,16.478c-1.031,3.011,2.2,15.263,2.2,15.263S312.332,233.508,311.712,238.118Z" transform="translate(-25.182 -10.895)"/><path class="e" d="M292.54,69.18a13.247,13.247,0,0,1-1.758,6.617,6.946,6.946,0,0,1-5.816-1.405,28.573,28.573,0,0,1-2.656-3.292,19.937,19.937,0,0,0-1.9-1.871,6.019,6.019,0,0,0-1.5-1.089,2.032,2.032,0,0,0-1.793-.019c-.73.407-.969,1.315-1.393,2.039a2.724,2.724,0,0,1-1.522,1.328,1.615,1.615,0,0,1-1.819-.617c-.449-.772-.12-1.977-.872-2.449a4.8,4.8,0,0,0-.614-.252c-.969-.439-1.082-1.741-1.166-2.808a1.75,1.75,0,0,0-.595-1.4,2.74,2.74,0,0,0-1.541-.129,2,2,0,0,1-.462-.036,13.276,13.276,0,0,1,25.411,5.379Z" transform="translate(-25.182 -10.895)"/><path class="o" d="M266.327,51.914a4.433,4.433,0,0,0-1.787,3.212,1.655,1.655,0,0,0,.048.63,4.257,4.257,0,0,0,.323.627c.678,1.347-.359,2.943-.226,4.446a2.956,2.956,0,0,0,2.908,2.585c.523,0,1.1-.155,1.541.129a1.745,1.745,0,0,1,.594,1.4c.084,1.066.191,2.368,1.163,2.808a5.428,5.428,0,0,1,.614.252c.756.472.426,1.68.876,2.449a1.615,1.615,0,0,0,1.819.617,2.714,2.714,0,0,0,1.519-1.325c.417-.727.666-1.615,1.4-2.039a2.023,2.023,0,0,1,1.793.016,6.033,6.033,0,0,1,1.5,1.092,19.564,19.564,0,0,1,1.9,1.871,28.822,28.822,0,0,0,2.656,3.289,7.346,7.346,0,0,0,7.515.927,2.281,2.281,0,0,0,.934-.594,2.371,2.371,0,0,0,.423-1.056,12.811,12.811,0,0,0,.213-3.7,18.353,18.353,0,0,1-.216-2.908c.068-1.04.439-2.045.491-3.086a7.95,7.95,0,0,0-1.939-5.047c-.672-.869-1.428-1.674-2.01-2.6-.507-.808-.876-1.7-1.418-2.478a8.545,8.545,0,0,0-5.609-3.286,19.929,19.929,0,0,0-6.636.22,53.9,53.9,0,0,1-5.777.895C269.232,51.371,267.865,50.8,266.327,51.914Z" transform="translate(-25.182 -10.895)"/><path class="e" d="M282.617,86.382,280.3,92.6l-4.016,11.357s-.036.116-.107.323v.016l5.053-16.949A12.6,12.6,0,0,0,282.617,86.382Z" transform="translate(-25.182 -10.895)"/><path class="j" d="M307.7,157.523s.239,7.522-1.787,9.412l-5.392-10.168,4.523-2.2Z" transform="translate(-25.182 -10.895)"/><path class="e" d="M320.283,160.269c-2.475,2.885-13.247,3.4-13.247,3.4l-10.662-16.8s-2.523-1.751-7.263-9.638a29.185,29.185,0,0,1-4.32-18.5c.265-4.536,3.231-17.573,3.231-17.573.462-2.934,7.108-21.324,7.108-21.324a9.444,9.444,0,0,0,3.515,3.515A32.745,32.745,0,0,0,308.478,87C317.705,88.34,316,97.871,316,97.871s.1,37.049-.465,41.482S320.283,160.269,320.283,160.269Z" transform="translate(-25.182 -10.895)"/><path class="k" d="M282.653,148.069l-.31,2.749-3.745-1.373-2.746-4.158,2.061-1.615Z"/><path class="e" d="M307.7,148.315l-1.958.2L286.866,150.4a30.581,30.581,0,0,1-9.079-.446l-8.756-1.751c.4-1.422.727-2.291.727-2.291.947.672,6.368,1.457,9.173,2.1a15.967,15.967,0,0,0,4.685.375,104.389,104.389,0,0,0,20.933-3.838l.853,1.018Z" transform="translate(-25.182 -10.895)"/><g class="p"><path d="M269.956,146.018a1.713,1.713,0,0,1-.181-.1.1.1,0,0,1-.019.048Z" transform="translate(-25.182 -10.895)"/><path d="M310.08,217.156s-3.231-12.252-2.2-15.263c0,0-1.855-12.7-.753-16.478s-.759-31.663-.759-31.663l-.611-5.231-.342-2.95-.142-1.234-.711.216-.439.129.055.478.342,2.947.611,5.231s1.855,27.892.759,31.663.753,16.478.753,16.478c-1.031,3.014,2.2,15.263,2.2,15.263S311.1,233.1,310.494,237.7s-1.444,17.447-1.444,17.447c-2.107,3.163-6.084,2.769-8.077,2.326l.036.078s6.391,2.339,9.276-1.99c0,0,.824-12.849,1.444-17.447S310.08,217.156,310.08,217.156Z" transform="translate(-25.182 -10.895)"/><path d="M293.8,237.837c1.1-3.092-1.031-13.056-1.031-13.056s-3.777-10.662-3.16-18.549c.258-3.292.242-7.809.132-11.954-.876-5.347-1.716-11.308-1.716-11.308s.969,14.975.349,22.875,3.157,18.552,3.157,18.552,2.132,9.961,1.031,13.053,2.743,15.854,2.743,15.854c-.275,2.972-7.334,2.585-10.135,2.326l.107.284s10.924,1.512,11.266-2.2C296.549,253.707,292.7,240.929,293.8,237.837Z" transform="translate(-25.182 -10.895)"/></g><path class="i" d="M320.694,160.269c-2.472,2.885-13.247,3.4-13.247,3.4l-10.662-16.8s-2.523-1.751-7.266-9.638a29.185,29.185,0,0,1-4.32-18.5c.262-4.536,3.231-17.573,3.231-17.573.462-2.934,7.108-21.324,7.108-21.324a9.4,9.4,0,0,0,3.515,3.515A32.745,32.745,0,0,0,308.885,87c9.224,1.341,7.522,10.872,7.522,10.872s.1,37.049-.465,41.482S320.694,160.269,320.694,160.269Z" transform="translate(-25.182 -10.895)"/><path class="e" d="M297.512,88.957l-2.32.863,1.544,1.082L285.2,118.726c.268-4.523,3.231-17.573,3.231-17.573.462-2.934,7.108-21.324,7.108-21.324a9.4,9.4,0,0,0,3.515,3.515Z" transform="translate(-25.182 -10.895)"/><path class="e" d="M275.112,127.631l11.8-3.04,1.548,4.791-12.058,2.94Z"/><path class="e" d="M307.043,90.915s-5.36,5.043-3.338,16.284,5.257,23.443,5.257,23.443l-8.723,24.167s6.081,6.339,9.069,7.108l8.707-19.324s4.071-6.7,2.989-17.208-5-27.518-5-27.518S316.009,87.516,307.043,90.915Z" transform="translate(-25.182 -10.895)"/><path class="i" d="M307.453,90.915s-5.363,5.043-3.347,16.284,5.253,23.443,5.253,23.443l-8.723,24.167s6.081,6.339,9.069,7.108l8.723-19.324s4.071-6.7,2.989-17.208-5-27.518-5-27.518S316.419,87.516,307.453,90.915Z" transform="translate(-25.182 -10.895)"/><path class="e" d="M300.927,155.323s6.8,9.415,6.287,11.922a1.524,1.524,0,0,1-2.507,1.166l-2.678-3.674-2.407-6.872S299.858,154.9,300.927,155.323Z" transform="translate(-25.182 -10.895)"/><path class="e" d="M300.1,155.323s6.785,9.415,6.287,11.922a1.524,1.524,0,0,1-2.507,1.166l-2.682-3.674-2.4-6.872S299.034,154.9,300.1,155.323Z" transform="translate(-25.182 -10.895)"/><path class="n" d="M300.517,155.323s6.785,9.415,6.284,11.922a1.524,1.524,0,0,1-2.507,1.166l-2.678-3.674-2.4-6.872S299.444,154.9,300.517,155.323Z" transform="translate(-25.182 -10.895)"/></g></g></svg>