<svg xmlns="http://www.w3.org/2000/svg" xmlns:xlink="http://www.w3.org/1999/xlink" width="363" height="269" viewBox="0 0 363 269"><defs><style>.a{fill:#fff;}.b{clip-path:url(#a);}.c,.j{fill:#eec9d2;}.c,.e{opacity:0.1;}.d{fill:#be6f72;}.f{fill:#3f3d56;}.g{fill:#fbbebe;}.h{fill:#e3e8f4;}.i{fill:#f86d70;}.k{opacity:0.2;}</style><clipPath id="a"><rect class="a" width="363" height="269" rx="45" transform="translate(68 1203)"/></clipPath></defs><g class="b" transform="translate(-68 -1203)"><g transform="translate(68 1223.518)"><path class="c" d="M371.092,186.953c-3.642,8.759-11.263,16.67-19.443,24.163q-10.786,9.881-23.075,19.1-3.406,2.558-6.92,5.053l-1.628,1.148q-2.165,1.532-4.4,3.035l-.179.122q-2.171,1.477-4.381,2.926a120.073,120.073,0,0,1-15.544,8.912c-1.919.889-3.9,1.717-5.948,2.459q-1.663.6-3.4,1.132c-1.893.576-3.837,1.078-5.868,1.49-.339.07-.681.138-1.023.2-2.079.39-4.183.675-6.309.87a97.015,97.015,0,0,1-23.648-1.03c-3.9-.611-7.742-1.4-11.458-2.293-.457-.109-.911-.221-1.369-.32-12.654-3.166-24.534-7.464-37.277-10.486q-6.587-1.564-13.431-2.654-3.338-.531-6.715-.959c-5.3-.659-10.665-1.1-16.053-1.324a98.167,98.167,0,0,0-21.681,1.087q-1.381.253-2.728.569-1.708.4-3.351.911a59.663,59.663,0,0,0-8.6,3.54c-.547.269-1.087.54-1.628.815h0c-1.695.863-3.367,1.746-5.065,2.6a63.935,63.935,0,0,1-9.51,4.036A50.352,50.352,0,0,1,105,253.451a80.481,80.481,0,0,1-15.3,1.391c-2.517,0-5.037-.054-7.528-.185H82.1c-.851-.045-1.7-.1-2.558-.16-3.889-.265-7.764-.675-11.582-1.234-13.082-1.919-25.49-5.545-35.47-11.077-13.555-7.508-22.164-18.7-20.872-29.89.927-8.058,6.687-15.541,12.152-22.867,10.166-13.642,19.689-27.594,24.7-42.3,4.064-11.937,5.276-24.559,14.63-35.288a49.034,49.034,0,0,1,11.288-9.315,72.079,72.079,0,0,1,10.45-5.283,90.33,90.33,0,0,1,12.6-4.109,100.249,100.249,0,0,1,11.295-2.123c2.066-.269,4.157-.476,6.261-.617q2.43-.169,4.883-.214h.253q1.5-.029,3,0a139.764,139.764,0,0,1,21.745,2.043c4.5.751,8.954,1.672,13.319,2.686q3.908.9,7.745,1.9c.78.2,1.561.406,2.331.614,18.2,4.877,34.216,11.611,51.753,17.137.09.029.176.058.265.08h0a108.033,108.033,0,0,0,10.949,2.75q4.072.815,8.314,1.426c4.323.64,8.74,1.145,13.188,1.58l.982.1c6.527.64,13.111,1.116,19.507,1.672,2.27.2,4.522.4,6.741.64q2.111.211,4.183.448c.991.115,1.986.23,2.98.352s2.047.249,3.07.381c.665.083,1.327.169,1.992.262,4.029.534,8.049,1.132,12.024,1.816,2.418.416,4.822.863,7.2,1.346q2.581.524,5.116,1.106,1.88.425,3.729.9a115.226,115.226,0,0,1,27.456,10.271C368.677,151.218,378.06,170.2,371.092,186.953Z" transform="translate(-10.367 -29.919)"/><circle class="c" cx="6.917" cy="6.917" r="6.917" transform="translate(72.705 15.074)"/><circle class="c" cx="6.917" cy="6.917" r="6.917" transform="translate(214.083 0)"/><circle class="c" cx="6.917" cy="6.917" r="6.917" transform="translate(297.913 15.49)"/><circle class="c" cx="11.592" cy="11.592" r="11.592" transform="translate(0 27.133)"/><circle class="c" cx="11.592" cy="11.592" r="11.592" transform="translate(11.112 84.374)"/><circle class="c" cx="11.592" cy="11.592" r="11.592" transform="translate(322.233 63.304)"/><path class="d" d="M123.681,106.458a12.472,12.472,0,0,1-.169,2.91c-.64,2.971-3.345,5.011-5.964,6.559s-5.5,3.012-7.054,5.625c-1.877,3.156-1.279,7.4.924,10.348a15.256,15.256,0,0,0,9.29,5.436,21.509,21.509,0,0,0,18.65-5.088,20.337,20.337,0,0,0,6.175-18.227c-2.667.374-5.043-1.979-5.906-4.531s-.684-5.318-1.02-7.994a2.744,2.744,0,0,0-.4-1.279,2.873,2.873,0,0,0-1.653-.9c-3.083-.847-8.27-2.7-11.464-1.992C122.213,97.984,123.633,104.04,123.681,106.458Z" transform="translate(-10.367 -29.919)"/><path class="e" d="M123.681,106.458a12.472,12.472,0,0,1-.169,2.91c-.64,2.971-3.345,5.011-5.964,6.559s-5.5,3.012-7.054,5.625c-1.877,3.156-1.279,7.4.924,10.348a15.256,15.256,0,0,0,9.29,5.436,21.509,21.509,0,0,0,18.65-5.088,20.337,20.337,0,0,0,6.175-18.227c-2.667.374-5.043-1.979-5.906-4.531s-.684-5.318-1.02-7.994a2.744,2.744,0,0,0-.4-1.279,2.873,2.873,0,0,0-1.653-.9c-3.083-.847-8.27-2.7-11.464-1.992C122.213,97.984,123.633,104.04,123.681,106.458Z" transform="translate(-10.367 -29.919)"/><path class="d" d="M119.956,248.028a63.937,63.937,0,0,1-9.51,4.036,50.355,50.355,0,0,1-5.462,1.394,34.376,34.376,0,0,1,.4-7.355,39.157,39.157,0,0,0,.713-4.2,11.013,11.013,0,0,0-1.263-5.9c3.562-.486,6.946-1.279,10.524-1.046l.227.016a3.99,3.99,0,0,1,1.247.233,3.367,3.367,0,0,1,1.353,1.19,8.191,8.191,0,0,1,.508.783,12.47,12.47,0,0,1,1.474,5.836,38.817,38.817,0,0,1-.211,5.008Z" transform="translate(-10.367 -29.919)"/><path class="d" d="M138.6,240.155q-1.708.4-3.351.911a59.662,59.662,0,0,0-8.6,3.54,12.691,12.691,0,0,1-.262-2.648,14.787,14.787,0,0,1,11.3-2.325,1.493,1.493,0,0,1,.716.288.96.96,0,0,1,.192.233Z" transform="translate(-10.367 -29.919)"/><path class="f" d="M144.1,224.012a24.554,24.554,0,0,1-1.279,6.156c-.8,2.111-2.107,4.157-1.941,6.412.074.979.406,2.04.454,3.009q-1.381.253-2.728.569-1.708.4-3.351.911a59.667,59.667,0,0,0-8.6,3.54c-.547.269-1.087.54-1.628.815h0c-.224-.029-.444-.064-.668-.106a6.543,6.543,0,0,1-4.186-2.286,3.671,3.671,0,0,1-.483-.959c-.521-1.557.022-3.5-1.062-4.733l-.051.045-.038.026a10.74,10.74,0,0,1-1.944,1.4h0a13.031,13.031,0,0,1-10.553,1.017,11.564,11.564,0,0,1-1.979-.889c-1.465-.835-2.878-2.238-2.763-3.914.064-.934.6-1.829.454-2.753a5.76,5.76,0,0,0-.867-1.8c-2.139-3.837.413-8.772-.931-12.941-.032-.1-.067-.2-.1-.294-.1-.272-.211-.534-.32-.8-.275-.611-.582-1.212-.825-1.839a10.707,10.707,0,0,1-.48-1.621,20.294,20.294,0,0,1-.32-4.867,50.913,50.913,0,0,1,1.861-12.83c.2-.735.413-1.775.7-2.907h0a22.256,22.256,0,0,1,1.132-3.492c.64-1.471,1.509-2.645,2.7-2.923,1.791-.419,4.528.467,6.344.684l7.179.857,14.355,1.717c2.478.3,5.081.64,7.125,2.034.134.093.265.189.4.291a8.1,8.1,0,0,1,1.439,1.465c.147.189.288.387.422.588a13.309,13.309,0,0,1,1.183,2.258c1.781,4.279,1.823,9.053,1.836,13.687A139.849,139.849,0,0,1,144.1,224.012Z" transform="translate(-10.367 -29.919)"/><path class="e" d="M116.579,238.831c-.432-1.663-1.343-4.071-1.477-4.726a59.973,59.973,0,0,1-.979-6.658c-.355-3.984-.995-9.593.412-13.383,1.321.7,2.481,2.7,3.092,4.055,2.213,4.928-.278,10.978,1.8,15.963a2.629,2.629,0,0,1,.285.959,2.321,2.321,0,0,1-.441,1.177l-.7,1.164Z" transform="translate(-10.367 -29.919)"/><path class="d" d="M162.634,86.7c2.354-3.837,5.577-7.611,5.376-12.1a23.968,23.968,0,0,0-1-4.73,30.174,30.174,0,0,1-.221-13.843A15.634,15.634,0,0,1,178.1,58.561a6.454,6.454,0,0,1,2.5,2.808,8.125,8.125,0,0,1,.278,3.482c-.176,2.689-.416,5.558-2.072,7.675-.515.662-1.148,1.222-1.65,1.89a12.237,12.237,0,0,0-1.58,3.271l-5.436,14.79c-2.744,7.454-5.718,15.25-11.762,20.408-.147.125-4.477-6.025-4.835-6.642-1.449-2.529-.815-3.6.937-5.714C157.933,96.343,159.81,91.294,162.634,86.7Z" transform="translate(-10.367 -29.919)"/><path class="g" d="M100.334,212.759a24.564,24.564,0,0,1-.278,3.3c-.058.4-.125.8-.2,1.2-1.09,5.692-3.805,11.106-5.7,16.651a96.756,96.756,0,0,0-4.477,20.939c-2.517,0-5.037-.054-7.528-.185h-.077c-.851-.045-1.7-.1-2.558-.16.771-6.779-.64-13.891.739-20.677.556-2.731,1.506-5.382,2.079-8.1a22.932,22.932,0,0,0,.4-2.424,6.5,6.5,0,0,1,.47-2.274,1.675,1.675,0,0,1,.109-.2,5.477,5.477,0,0,1,1.126-1.279,28.086,28.086,0,0,1,13.77-6.565C98.924,212.89,99.631,212.807,100.334,212.759Z" transform="translate(-10.367 -29.919)"/><path class="e" d="M100.334,212.759a24.564,24.564,0,0,1-.278,3.3c-.058.4-.125.8-.2,1.2-1.09,5.692-3.805,11.106-5.7,16.651a96.756,96.756,0,0,0-4.477,20.939c-2.517,0-5.037-.054-7.528-.185h-.077c-.851-.045-1.7-.1-2.558-.16.771-6.779-.64-13.891.739-20.677.556-2.731,1.506-5.382,2.079-8.1a22.932,22.932,0,0,0,.4-2.424,6.5,6.5,0,0,1,.47-2.274,1.675,1.675,0,0,1,.109-.2,5.477,5.477,0,0,1,1.126-1.279,28.086,28.086,0,0,1,13.77-6.565C98.924,212.89,99.631,212.807,100.334,212.759Z" transform="translate(-10.367 -29.919)"/><path class="g" d="M84.121,227.332a50.112,50.112,0,0,1-.438,5.312c-.854,7.2-1.014,14.71-1.6,22.017-.851-.045-1.7-.1-2.558-.16-3.889-.265-7.764-.675-11.582-1.234q.441-2.469.889-4.937a26.734,26.734,0,0,0,.624-6.1,35.711,35.711,0,0,0-1.03-5.714c-.879-4.061-1.372-8.442-2.82-12.273a15.989,15.989,0,0,0-3.537-5.756c5.993-2.354,11.752-2.488,18.189-2.238a2.306,2.306,0,0,1,1.3.32,2.206,2.206,0,0,1,.656.991,24.805,24.805,0,0,1,1.8,7.3A23.938,23.938,0,0,1,84.121,227.332Z" transform="translate(-10.367 -29.919)"/><circle class="d" cx="12.471" cy="12.471" r="12.471" transform="translate(109.553 49.946)"/><path class="h" d="M134.985,121.484c1.6-2.728,3-6.133,6.076-6.891,1.736-.432,3.543.157,5.235.735a2.558,2.558,0,0,1,1.279.742,2.513,2.513,0,0,1,.387,1.324,86.68,86.68,0,0,1-.054,16.948c-.406,3.988-1.09,7.956-1.212,11.963-.169,5.555.745,11.109.445,16.657a76.575,76.575,0,0,1-2.063,12.446l-3.837,17.2a2.932,2.932,0,0,1-.617,1.455,2.878,2.878,0,0,1-1.132.64,42.134,42.134,0,0,1-34.1-2.67,10.345,10.345,0,0,1-3.668-2.939,8.611,8.611,0,0,1-.982-6.485c.416-2.206,1.314-4.288,1.919-6.453a49.662,49.662,0,0,0,1.365-10.342,81.938,81.938,0,0,0,.074-13.751c-.336-3.143-1.036-6.239-1.564-9.357a103.2,103.2,0,0,1-1.349-14.208c-.08-2.843.051-6,2.018-8.049a9.27,9.27,0,0,1,3.54-2.085,10.461,10.461,0,0,1,6.83-.544c2.206.735,3.984,3.051,3.463,5.318-.24,1.052-.921,1.973-1.087,3.041a4.383,4.383,0,0,0,1.6,3.793C123.314,135.184,132.111,126.422,134.985,121.484Z" transform="translate(-10.367 -29.919)"/><path class="f" d="M135.443,108.741a9.43,9.43,0,0,1,5.465-.32c1.154.275,2.4.761,3.466.246.387-.185.707-.489,1.1-.662,1.055-.464,2.424.106,3.358-.569a3.305,3.305,0,0,0,.979-1.9,17.06,17.06,0,0,1,5.638-8.545c-.336,2.453-.579,5.244,1.042,7.118a7.107,7.107,0,0,0,2.824,1.8,8.445,8.445,0,0,0,4.749.668,4.118,4.118,0,0,0,3.329-3.131c-.054,2.408-2.347,4.09-2.99,6.415-.243.87-.221,1.794-.39,2.683-.432,2.27-2.053,4.093-3.47,5.922a42.134,42.134,0,0,0-8.378,20.216,9.752,9.752,0,0,1-.544,2.558,16.09,16.09,0,0,1-1.062,1.829c-2.344,3.959-1.621,8.954-.825,13.476a193.2,193.2,0,0,0,4.5,20.926,7.266,7.266,0,0,0,1.615,3.271c-.278,2.792-3.1,4.064-5.628,5.27a27.61,27.61,0,0,0-6.843,4.634,5.393,5.393,0,0,0-1.714,2.382c-.249.9-.07,1.887-.39,2.76s-1.6,1.5-2.162.764c-.7-2.632.5-5.385.445-8.11-.038-1.839-.64-3.626-.726-5.465a17.488,17.488,0,0,1,1.183-6.1c1.816-5.5,4.01-10.956,4.64-16.715S144.1,148.112,140.016,144c-4.851-4.9-7.544-11.541-12.743-16.04-.825-.713-1.759-1.6-1.621-2.68a2.984,2.984,0,0,1,.611-1.3c1.784-2.52,4.157-4.576,6.076-6.987S135.791,111.811,135.443,108.741Z" transform="translate(-10.367 -29.919)"/><path class="f" d="M118.37,113.9a9.348,9.348,0,0,1-.911,1.036,3.006,3.006,0,0,1-1.436.444,46.425,46.425,0,0,1-5.682.508,17.539,17.539,0,0,0-4.8.3,8.561,8.561,0,0,0-4.934,4.253,21.094,21.094,0,0,0-2,6.354,84.977,84.977,0,0,0-1.455,14.675,38.594,38.594,0,0,0,6.987-7.253c1.535-2.082,2.926-4.384,5.116-5.775,1.007-.64,2.139-1.062,3.153-1.685,2.114-1.3,3.578-3.406,4.985-5.436,1.036-1.506,4.032-4.448,4.269-6.252C121.871,113.343,119.489,112.5,118.37,113.9Z" transform="translate(-10.367 -29.919)"/><path class="f" d="M129.511,83.8a10.112,10.112,0,0,1,1.132.79c2.171,1.516,5.078,1.234,7.7.889a5.782,5.782,0,0,0,2.325-.64,3.634,3.634,0,0,0,1.522-3.393,6.754,6.754,0,0,0-1.564-3.518,12.654,12.654,0,0,0-8.746-4.771,5.628,5.628,0,0,0-2.619.278,21.1,21.1,0,0,0-2.763,1.887c-2.811,1.727-7.141.959-8.954,3.716-1.327,2.034-.381,4.8-1.007,7.134-.467,1.746-1.813,3.335-1.554,5.116a8.254,8.254,0,0,0,1.225,2.654,11.73,11.73,0,0,1,1.468,6.469c1.231.87,2.948-.483,3.291-1.947s-.051-3.025.24-4.5c.515-2.593,2.8-4.5,3.837-6.875C125.789,85.381,127,82.5,129.511,83.8Z" transform="translate(-10.367 -29.919)"/><path class="g" d="M99.272,112.185a2.41,2.41,0,0,0,.166,1.717c.64.959,2.1.614,3.255.758a4.435,4.435,0,0,1,3.466,3.7,12.173,12.173,0,0,1-.521,5.353q-1.541,5.958-3.671,11.746c-3.818-.451-7.838-1.919-9.865-5.177-1.842-2.964-1.653-6.741-2.824-10.028a25.064,25.064,0,0,0-3.754-6.306c2.344.294,4.02-2.386,4.157-4.746s-.6-4.755-.1-7.061c.118-.547,9.357,1.177,10.255,1.8C102.435,105.745,99.682,109.684,99.272,112.185Z" transform="translate(-10.367 -29.919)"/><path class="e" d="M99.272,112.185a2.41,2.41,0,0,0,.166,1.717c.64.959,2.1.614,3.255.758a4.435,4.435,0,0,1,3.466,3.7,12.173,12.173,0,0,1-.521,5.353q-1.541,5.958-3.671,11.746c-3.818-.451-7.838-1.919-9.865-5.177-1.842-2.964-1.653-6.741-2.824-10.028a25.064,25.064,0,0,0-3.754-6.306c2.344.294,4.02-2.386,4.157-4.746s-.6-4.755-.1-7.061c.118-.547,9.357,1.177,10.255,1.8C102.435,105.745,99.682,109.684,99.272,112.185Z" transform="translate(-10.367 -29.919)"/><circle class="g" cx="12.471" cy="12.471" r="12.471" transform="translate(74.378 53.464)"/><path class="f" d="M93.376,110.394c.454-.71-.32-1.7.035-2.465.211-.46.745-.659,1.158-.959a4.314,4.314,0,0,0,1.206-1.564A18.176,18.176,0,0,0,97.437,93.27c-.294-1.381-.556-3.217.707-3.837a2.293,2.293,0,0,1,1.116-.192c2.277.074,4.477,1.6,6.687,1.058a3.837,3.837,0,0,0,2.814-3.348c.144-2.066-1.4-3.837-2.926-5.228-2.741-2.52-6.917-3.079-10.639-3.14l-6.923-.115c-2.216-.038-4.7.032-6.242,1.621-2.219,2.286-1.1,6.028-1.423,9.2a9.593,9.593,0,0,1-3.518,6.444c-1.436,1.145-3.412,2.238-3.386,4.068a6.614,6.614,0,0,0,.451,1.826,8.811,8.811,0,0,1-1.324,7.131,19.016,19.016,0,0,1-5.395,5.116,15.039,15.039,0,0,0-3.108,2.494,7.355,7.355,0,0,0-1.621,4.135,5.436,5.436,0,0,0,.678,3.335c1.353,2.162,4.6,2.478,6.821,1.225s3.578-3.626,4.477-6.012c.537-1.417,1.084-3.038,2.459-3.674,1.74-.809,3.773.47,4.905,2.021s1.829,3.444,3.278,4.7a5.854,5.854,0,0,0,8.052-.665,9.052,9.052,0,0,0,1.6-6.13,8.931,8.931,0,0,0-1.6-4.909Z" transform="translate(-10.367 -29.919)"/><path class="i" d="M97.853,126.649a4.59,4.59,0,0,1-3.968-1.372,15.76,15.76,0,0,1-2.513-3.553,62.55,62.55,0,0,0-6.444-8.935c-2.1-2.421-5.017-4.88-8.132-4.132a7.716,7.716,0,0,0-2.84,1.519,20.7,20.7,0,0,0-7.729,18.477c.243,2.037.8,4.029,1.026,6.076a38.946,38.946,0,0,1,.134,5.075c-.086,5.155-.262,10.607-3.041,14.95-4.307,6.715-6.613,14.735-9.776,22.065a75.314,75.314,0,0,0-3.735,12.375q-.892,3.735-1.781,7.467l-3.869,16.277a10.857,10.857,0,0,0-.377,5.116c.64,2.507,3,4.259,5.481,4.973a28.678,28.678,0,0,0,7.7.614,43.087,43.087,0,0,1,14.547,2.376,15.6,15.6,0,0,0,4.055,1.19,9.434,9.434,0,0,0,4.135-.764c3.6-1.394,6.693-3.837,10.012-5.81a39.565,39.565,0,0,1,6.524-3.156,7.155,7.155,0,0,0,3.143-1.759,5.681,5.681,0,0,0,1.052-2.51c1.081-5.04.355-10.262,0-15.4s-3.428-10.575-.886-15.058a12.063,12.063,0,0,0,1.385-2.779c.345-1.311.054-2.721.345-4.045a20.923,20.923,0,0,1,1.081-2.795,14.735,14.735,0,0,0,.691-5.209,57.161,57.161,0,0,0-1.215-11.512c-1.007-4.8,2.325-9.539,4.234-14.07a22.347,22.347,0,0,0,1.938-4.889,15.073,15.073,0,0,0-.32-4.733,41.412,41.412,0,0,1-.448-7.355,24.745,24.745,0,0,0-.233-6.6c-.528-2.146-2.034-4.227-4.2-4.669a1.714,1.714,0,0,0-1.445.227,1.871,1.871,0,0,0-.508.9c-.7,2.155-.566,4.477-.959,6.715S100.059,126.176,97.853,126.649Z" transform="translate(-10.367 -29.919)"/><path class="d" d="M67.675,140.383c.131-.886-.281-2.063-1.177-2.031-.825.032-1.193,1.065-1.19,1.893s.115,1.778-.47,2.36c-.518.515-1.375.5-1.976.918a1.624,1.624,0,0,0-.681,1.333c0,.445.2.87.214,1.314s-.285.959-.726.931a2.005,2.005,0,0,0,.291,2.43c.23.224.531.416.608.729a1.759,1.759,0,0,1-.051.656,1.717,1.717,0,0,0,1.359,1.96,1.077,1.077,0,0,0,.058,1.6,2.5,2.5,0,0,0,1.717.492,10.438,10.438,0,0,0,4.032-.835,2.4,2.4,0,0,0,1.113-.767.959.959,0,0,0-.093-1.241,1.88,1.88,0,0,0,1.772-.32c.566-.672-.042-1.666-.64-2.315a1.279,1.279,0,0,0,.595-2.277c-.2-.15-.483-.281-.512-.534s.185-.416.275-.64c.2-.5-.262-1.014-.713-1.317-1.068-.71-2.641-.7-3.591-1.413S67.538,141.343,67.675,140.383Z" transform="translate(-10.367 -29.919)"/><path class="f" d="M133.646,91.86a15.137,15.137,0,0,1-2.331.054.508.508,0,0,0-.56.441l-1.487,11.154a4.528,4.528,0,0,1-.959,2.21,4.816,4.816,0,0,0-1.084,3.681v18.947s-.1,2.526,1.845,2.526a28.061,28.061,0,0,0,7,0s1.554-.294,1.554-2.625V109.592a4.563,4.563,0,0,0-.959-3.709,4.643,4.643,0,0,1-.931-2.2L134.186,92.3a.508.508,0,0,0-.54-.438Z" transform="translate(-10.367 -29.919)"/><path class="e" d="M133.646,91.86a15.137,15.137,0,0,1-2.331.054.508.508,0,0,0-.56.441l-1.487,11.154a4.528,4.528,0,0,1-.959,2.21,4.816,4.816,0,0,0-1.084,3.681v18.947s-.1,2.526,1.845,2.526a28.061,28.061,0,0,0,7,0s1.554-.294,1.554-2.625V109.592a4.563,4.563,0,0,0-.959-3.709,4.643,4.643,0,0,1-.931-2.2L134.186,92.3a.508.508,0,0,0-.54-.438Z" transform="translate(-10.367 -29.919)"/><rect class="j" width="9.424" height="15.935" rx="3.534" transform="translate(117.398 79.82)"/><path class="f" d="M165.326,43.663a14.735,14.735,0,0,1-2.13.959.512.512,0,0,0-.349.62l2.923,10.873a4.515,4.515,0,0,1-.026,2.4,4.8,4.8,0,0,0,.416,3.815l7.3,17.486s.883,2.366,2.677,1.618a27.863,27.863,0,0,0,6.46-2.705s1.321-.87.425-3.019L175.834,58.5a4.576,4.576,0,0,0-2.312-3.057,4.653,4.653,0,0,1-1.7-1.666l-5.81-9.913A.512.512,0,0,0,165.326,43.663Z" transform="translate(-10.367 -29.919)"/><rect class="j" width="9.424" height="15.935" rx="3.534" transform="translate(156.422 32.512) rotate(-22.65)"/><path class="g" d="M75.586,110.724c-3.438,1.417-4.8,5.823-3.991,9.449s3.233,6.648,5.6,9.523l6.632,8.09c1.832,2.238,3.837,4.6,6.632,5.376,4.087,1.142,8.174-1.461,11.707-3.815a176.36,176.36,0,0,1,33.628-17.511,11.312,11.312,0,0,0,3.287-1.7,6.061,6.061,0,0,0,1.426-7.035,7.043,7.043,0,0,0-6.226-3.857,8.413,8.413,0,0,0-6.626,3.4c-.739.982-1.279,2.1-1.992,3.1-1.8,2.507-4.618,4.058-7.371,5.459a188.241,188.241,0,0,1-20.466,8.954c-1.279.467-2.721.911-3.927.294a4.77,4.77,0,0,1-1.685-1.8,44.788,44.788,0,0,1-4.829-10.291c-.873-2.718-1.58-5.679-3.677-7.611a7.323,7.323,0,0,0-10.588,1.279s-2.613,3.821-1.014,5.42S75.586,110.724,75.586,110.724Z" transform="translate(-10.367 -29.919)"/><path class="g" d="M254.932,97.491a9.759,9.759,0,0,1,.413,3.933c-.083,1.618-.489,3.518-1.992,4.135-.979.393-2.187.1-3.057.691-1.055.716-1,2.258-.841,3.518.451,3.463.959,7.054,2.846,9.984a21.205,21.205,0,0,0,3.777,4.128c2.772,2.5,5.814,4.944,9.456,5.778a3.956,3.956,0,0,0,1.823.077,3.773,3.773,0,0,0,1.577-.959c2.111-1.938,3.2-4.7,4.6-7.211a26.79,26.79,0,0,0,2.741-5.494,9.593,9.593,0,0,0-2.936-9.68c-.624-.534-1.314-.982-1.919-1.535a9.842,9.842,0,0,1-2.878-5.587,24.446,24.446,0,0,1-.138-6.4,34.8,34.8,0,0,0-9.494.764c-1.388.278-3.342.406-4.6,1.068C252.9,95.457,254.545,96.42,254.932,97.491Z" transform="translate(-10.367 -29.919)"/><path class="e" d="M254.932,97.491a9.759,9.759,0,0,1,.413,3.933c-.083,1.618-.489,3.518-1.992,4.135-.979.393-2.187.1-3.057.691-1.055.716-1,2.258-.841,3.518.451,3.463.959,7.054,2.846,9.984a21.205,21.205,0,0,0,3.777,4.128c2.772,2.5,5.814,4.944,9.456,5.778a3.956,3.956,0,0,0,1.823.077,3.773,3.773,0,0,0,1.577-.959c2.111-1.938,3.2-4.7,4.6-7.211a26.79,26.79,0,0,0,2.741-5.494,9.593,9.593,0,0,0-2.936-9.68c-.624-.534-1.314-.982-1.919-1.535a9.842,9.842,0,0,1-2.878-5.587,24.446,24.446,0,0,1-.138-6.4,34.8,34.8,0,0,0-9.494.764c-1.388.278-3.342.406-4.6,1.068C252.9,95.457,254.545,96.42,254.932,97.491Z" transform="translate(-10.367 -29.919)"/><path class="g" d="M237.088,106.9c-5.193-1.781-7.675-8.74-13.111-9.52-.857-.125-1.736-.077-2.577-.275-3.131-.742-4.477-4.362-5.382-7.448a120.642,120.642,0,0,0-12.7-29.474c-2.389-3.837-6.165-6.99-7.889-11.192a8.687,8.687,0,0,0-1.311-2.811c-.713-.758-2.238-.867-2.625.1a2.238,2.238,0,0,0-.07,1.058l.374,3.981-6.5-.585a3.8,3.8,0,0,0-1.8.128,3.054,3.054,0,0,0-1.417,1.474c-2.2,4.135.144,9.552,4.026,12.168,4.534,3.054,11.01,3.518,14.022,8.074,1.791,2.712,1.826,6.2,3.006,9.229.563,1.449,1.385,2.779,2.04,4.183a86.37,86.37,0,0,1,2.859,8.375,73.831,73.831,0,0,0,5.494,11.4c1.58,2.852,3.2,5.756,5.628,7.937a27.679,27.679,0,0,0,5.36,3.518c4.624,2.526,10.076,4.957,14.975,3.019A32.8,32.8,0,0,0,237.088,106.9Z" transform="translate(-10.367 -29.919)"/><path class="g" d="M252.856,244.561c-.393,4.173-2.926,7.953-3.518,11.969-3.9-.611-7.742-1.4-11.458-2.293-.457-.109-.911-.221-1.369-.32,2.1-5.756.272-12.2.828-18.333.054-.588.131-1.177.233-1.759,4.819-1.644,9.171-3.837,14.224-3.2.1,1.023.2,2.05.3,3.073q.3,3.067.6,6.127A24.845,24.845,0,0,1,252.856,244.561Z" transform="translate(-10.367 -29.919)"/><path class="g" d="M286.184,255c-1.893.576-3.837,1.078-5.868,1.49-.339.07-.681.138-1.023.2-2.079.39-4.183.675-6.309.87-.217-4.445-3.2-8.532-3.633-13.095a19.234,19.234,0,0,1,.035-3.406c.038-.448.083-.9.125-1.343l.9-9.2a14.183,14.183,0,0,1,2.165-.106c4.157.1,7.94,1.9,12.059,3.3a28.747,28.747,0,0,1,.32,5.871c-.157,4.995-.959,10.051.9,14.633C285.957,254.478,286.072,254.737,286.184,255Z" transform="translate(-10.367 -29.919)"/><path class="i" d="M232.2,184.858c.56,4.362-1.669,8.538-2.635,12.826a45.387,45.387,0,0,0-.812,8.666l-.505,17.431a15.544,15.544,0,0,0,.435,5.19c1.068,3.351,4.359,5.615,7.783,6.421s7.006.4,10.5-.064a10.934,10.934,0,0,0,4.912-1.481c1.947-1.359,2.8-3.78,3.534-6.037l2.075-6.373c2.389,5.379,1.378,11.259,2.811,16.968a3.287,3.287,0,0,0,.64,1.449,3.586,3.586,0,0,0,2.5.841c6.268.441,12.622.879,18.787-.32a8.17,8.17,0,0,0,4.634-2.111c1.362-1.481,1.6-3.658,1.583-5.67-.086-6.91-2.584-13.578-3.14-20.466-.24-2.952-.122-5.919-.227-8.88a59.454,59.454,0,0,0-.624-6.651,8.935,8.935,0,0,0-.819-2.91c-.959-1.791-2.952-2.763-4.838-3.518C264.138,184.216,248.015,184.273,232.2,184.858Z" transform="translate(-10.367 -29.919)"/><circle class="g" cx="13.751" cy="13.751" r="13.751" transform="translate(235.227 41.632)"/><path class="h" d="M271.33,109.521c-1.02,2.238-2.625,4.477-5.014,5.046a6.862,6.862,0,0,1-6.143-2.107,24.415,24.415,0,0,1-3.8-5.583,10.47,10.47,0,0,0-3.115-3.78c-1.893-1.228-4.336-1.2-6.568-.835s-4.448,1.007-6.715.86c-2.824-.189-5.7-1.6-8.365-.659.863,3.863.553,8.11.454,12.068a5.436,5.436,0,0,1-.256,1.8,5.828,5.828,0,0,1-.931,1.5l-2.558,3.3a15.968,15.968,0,0,1,6.076,8.023,20.181,20.181,0,0,1,.355,5.814c-.061,5.727,1.183,11.432.79,17.147-.46,6.693-3.134,13.018-4.512,19.583a51.27,51.27,0,0,0-.659,17.14,161.38,161.38,0,0,0,44.251,8.33c2.677.147,5.567.169,7.764-1.369a8.446,8.446,0,0,0,3.2-5.676,25.208,25.208,0,0,0-.134-6.671q-.988-9-1.973-18a57.3,57.3,0,0,1-.505-10.275A57.206,57.206,0,0,1,284.2,147.6l3.2-15.369a31.63,31.63,0,0,1,1.823-6.421c.742-1.663,1.768-3.2,2.587-4.816a21.269,21.269,0,0,0,2-6.162,4.084,4.084,0,0,0-.026-1.887,4.367,4.367,0,0,0-2.363-2.194,68.654,68.654,0,0,0-18.918-6.635C272.046,106,272.133,107.766,271.33,109.521Z" transform="translate(-10.367 -29.919)"/><path class="f" d="M270,100.312c1.6-3.063,4.589-5.212,6.325-8.206a12.129,12.129,0,0,0,.39-11.192,40.5,40.5,0,0,1-1.919-3.7c-.534-1.484-.585-3.118-1.2-4.57a8.448,8.448,0,0,0-4.682-4.247,25.082,25.082,0,0,0-6.309-1.41l-7.265-.979a7.993,7.993,0,0,0-3.166,0,2.684,2.684,0,0,0-2.059,2.178c-.1,1.257,1,2.427.748,3.661-.093.435-.349.876-.2,1.3a1.318,1.318,0,0,0,.64.64c1.724.959,3.783,1.046,5.65,1.672s3.741,2.2,3.553,4.157c-.1,1.052-.78,2.146-.32,3.089.441.873,1.6,1.033,2.523,1.3a6.762,6.762,0,0,1,4.653,7.2c-.134.959-.48,1.877-.55,2.84-.233,3.37.3,4.333,3.051,6.293Z" transform="translate(-10.367 -29.919)"/><path class="d" d="M288.681,114.887a4.665,4.665,0,0,1-.342,1.864c-1,2.127-4.052,1.992-6.076,3.2-2.52,1.5-3.076,4.857-3.307,7.78a34.993,34.993,0,0,0,.237,9.913,13.33,13.33,0,0,0,5.033,8.314c3.316,2.306,7.825,2.386,11.611.982a25.944,25.944,0,0,0,9.693-7.086,30.889,30.889,0,0,0,6.332-9.523,3.033,3.033,0,0,0,.265-1.957c-.3-.959-1.343-1.394-2.194-1.919a9.68,9.68,0,0,1-4-5.5,23.885,23.885,0,0,1-.825-6.878c-.026-2.408-.032-5.04-1.567-6.9s-4.2-2.379-6.619-2.36c-1.983,0-7.47.189-8.823,1.919C286.993,108.175,288.761,112.828,288.681,114.887Z" transform="translate(-10.367 -29.919)"/><path class="e" d="M288.681,114.887a4.665,4.665,0,0,1-.342,1.864c-1,2.127-4.052,1.992-6.076,3.2-2.52,1.5-3.076,4.857-3.307,7.78a34.993,34.993,0,0,0,.237,9.913,13.33,13.33,0,0,0,5.033,8.314c3.316,2.306,7.825,2.386,11.611.982a25.944,25.944,0,0,0,9.693-7.086,30.889,30.889,0,0,0,6.332-9.523,3.033,3.033,0,0,0,.265-1.957c-.3-.959-1.343-1.394-2.194-1.919a9.68,9.68,0,0,1-4-5.5,23.885,23.885,0,0,1-.825-6.878c-.026-2.408-.032-5.04-1.567-6.9s-4.2-2.379-6.619-2.36c-1.983,0-7.47.189-8.823,1.919C286.993,108.175,288.761,112.828,288.681,114.887Z" transform="translate(-10.367 -29.919)"/><path class="d" d="M271.631,200.646a2.734,2.734,0,0,0,.665,1.3,2.641,2.641,0,0,0,1.078.508c10.5,3.079,21.707,1.852,32.573.595-1.487-4.528-2.984-9.107-3.4-13.856-.342-3.917.042-7.994-1.346-11.669-.409-1.087-24.265,3.917-26.618,4.323-1.206.208-2.593.138-3.447,1.094-1.03,1.158-1.116,3.914-1.225,5.356A35.2,35.2,0,0,0,271.631,200.646Z" transform="translate(-10.367 -29.919)"/><path class="d" d="M295.528,251.408c-1.919.889-3.9,1.717-5.948,2.459q-1.663.6-3.4,1.132c-1.893.576-3.837,1.078-5.868,1.49q-1.736-4.4-3.476-8.81c-.854-2.162-1.708-4.333-2.421-6.543a40.976,40.976,0,0,1-1.222-4.6,32.826,32.826,0,0,1,.793-15.915c4.432.835,8.765,1.378,13.13,2.011,2.331.32,4.669.7,7.035,1.142q.278,2.312.505,4.624.345,3.569.566,7.137Q295.716,243.464,295.528,251.408Z" transform="translate(-10.367 -29.919)"/><path class="e" d="M295.528,251.408c-1.919.889-3.9,1.717-5.948,2.459q-1.663.6-3.4,1.132c-1.893.576-3.837,1.078-5.868,1.49q-1.736-4.4-3.476-8.81c-.854-2.162-1.708-4.333-2.421-6.543a40.976,40.976,0,0,1-1.222-4.6,32.826,32.826,0,0,1,.793-15.915c4.432.835,8.765,1.378,13.13,2.011,2.331.32,4.669.7,7.035,1.142q.278,2.312.505,4.624.345,3.569.566,7.137Q295.716,243.464,295.528,251.408Z" transform="translate(-10.367 -29.919)"/><path class="d" d="M320.119,237.552a20.712,20.712,0,0,1-.985,5.529c-.035.128-.067.253-.1.381a5.27,5.27,0,0,1-2.824-2.117,6.047,6.047,0,0,1-.758-1.775q-2.171,1.477-4.381,2.926a120.073,120.073,0,0,1-15.544,8.912c-1.919.889-3.9,1.717-5.948,2.459q-.64-2.238-1.215-4.506a41.727,41.727,0,0,1-.985-4.73,24.021,24.021,0,0,1,1.062-10.761h0l.144-.416a23.519,23.519,0,0,1,2.095-4.41c.8-1.279,2.373-1.065,3.981-.64.729.189,1.468.416,2.139.556,4.18.876,8.519-.029,12.791.211a15.289,15.289,0,0,1,5.868,1.493,8.057,8.057,0,0,1,4.362,4.8,7.155,7.155,0,0,1,.211.959,8.485,8.485,0,0,1,.086,1.129Z" transform="translate(-10.367 -29.919)"/><path class="d" d="M243.186,90.277A148.666,148.666,0,0,0,221.4,73.393a59.833,59.833,0,0,1-5.756-4.1c-1.919-1.6-3.591-3.476-5.628-4.915a9.392,9.392,0,0,0-7-1.954c-2.446.473-4.621,2.814-4.263,5.264.32,2.155,2.258,3.633,4.048,4.87a86.877,86.877,0,0,0,10.482,6.533A32.856,32.856,0,0,1,217,81.071c2.3,1.548,3.968,3.837,5.7,5.989a83.28,83.28,0,0,0,23.664,20.146c.109.064,3.892-8.1,3.732-9.159C249.748,95.614,244.926,91.965,243.186,90.277Z" transform="translate(-10.367 -29.919)"/><path class="f" d="M299.666,193.617c-5.1.32-9.987,2.04-14.972,3.137s-10.4,1.522-15.03-.64l2.814,19.216a8.917,8.917,0,0,1,.086,3.214,12.076,12.076,0,0,0-.723,2.977c.074,1.624,1.6,2.766,3.035,3.518a27.133,27.133,0,0,0,13.559,3.124c-.349,1.407-.783,2.8-1.135,4.205,2.35,2.523,6.194,2.693,9.549,3.492,2.558.6,4.957,1.653,7.464,2.392a31.859,31.859,0,0,0,9.341,1.3c2.133-.022,4.394-.32,6.05-1.65,2.037-1.64,2.67-4.429,3.111-7.006a15.938,15.938,0,0,0,.32-4.349,17.241,17.241,0,0,0-1.452-4.8L317.3,211.119c-.8-1.919-1.6-3.866-2.558-5.718C311.609,199.412,306.41,193.2,299.666,193.617Z" transform="translate(-10.367 -29.919)"/><path class="j" d="M303.567,127.224a4.8,4.8,0,0,1,5.021-3.06,9.32,9.32,0,0,1,3.518,1.564l6.108,3.812a26.624,26.624,0,0,1,2.907,2c4.212,3.492,5.836,9.232,6.3,14.684s0,11,1.084,16.36c-2.577,2.136-5.436,3.943-8.014,6.076a20.139,20.139,0,0,0-3.738,3.674c-.812,1.129-1.391,2.421-2.238,3.518a8.461,8.461,0,0,1-5.606,3.115,6.077,6.077,0,0,1,2.558,3.959c.377,1.57.48,3.2.9,4.768.576,2.133,1.768,4.08,2.162,6.255a39.342,39.342,0,0,1,.253,4.56c.5,7.876,6.68,14.761,6.28,22.64a34.332,34.332,0,0,1-8.206-4.314c-1.138-.815-2.238-1.7-3.316-2.577l-8.145-6.6c-3.962-3.2-7.963-6.466-11.112-10.482-1.976-2.52-3.588-5.308-5.571-7.822a17.026,17.026,0,0,0-7.451-5.852c-.444.668-1.234,1.132-1.679,1.8a1.338,1.338,0,0,0-.185.345,1.513,1.513,0,0,0,.106.883,18.374,18.374,0,0,1,.64,3.962l.2,2.4a8.193,8.193,0,0,1,0,1.919,5.055,5.055,0,0,1-4.266,3.972,1.855,1.855,0,0,1-.9-.029,1.923,1.923,0,0,1-1.062-1.372c-.809-2.731.432-5.612.531-8.455a20.321,20.321,0,0,0-.074-2.162l-.192-2.836c-1.858-.387-2.926-2.382-3.418-4.215-1.33-4.947-2.67-10.067-1.9-15.132a12.633,12.633,0,0,0,.32-4.087c-.32-1.813-1.624-3.284-2.312-4.992-2.238-5.567,2.517-11.611,2.075-17.588-.185-2.51-1.778-4.691-2.737-7.019a19.825,19.825,0,0,0-1.919-3.873,21.437,21.437,0,0,0-3.582-3.642,136.774,136.774,0,0,1-11.25-11.084,8.314,8.314,0,0,1-4.845-2.219,4.456,4.456,0,0,1-1.561-3.016,2.355,2.355,0,0,1,2-2.44,7.56,7.56,0,0,1,1.973.448c2.072.454,4.157-1.071,5.081-2.987a13.991,13.991,0,0,0,.908-6.242,5.986,5.986,0,0,1,5.542,1.941,35.116,35.116,0,0,1,3.486,5.276,8.176,8.176,0,0,0,1.74,2.1c1.538,1.222,3.754,1.452,5.1,2.878.681.729,1.058,1.695,1.682,2.475,1.752,2.2,4.96,2.465,7.355,3.911s4.061,4.087,6.715,4.944c.959.32,2.005.361,2.955.716a6.617,6.617,0,0,1,3.837,5.465,19.812,19.812,0,0,1-.739,6.946l-1.231,5.344c-.272,1.183-.48,2.606.393,3.45a3.556,3.556,0,0,0,1.417.713c2.238.729,4.733,1.445,6.837.413a8.086,8.086,0,0,0,2.488-2.174C299.906,136.565,301.981,131.749,303.567,127.224Z" transform="translate(-10.367 -29.919)"/><path class="d" d="M328.807,235.966a9.5,9.5,0,0,1-4.691,7.144,6.715,6.715,0,0,1-5.081.352,5.27,5.27,0,0,1-2.824-2.117,6.046,6.046,0,0,1-.758-1.775.552.552,0,0,0-.022-.1,14.072,14.072,0,0,1-.3-3.444,44.935,44.935,0,0,1,.32-5.369,29.069,29.069,0,0,1,.883-4.439c.595-2.075,1.452-4.074,2.238-6.076.409-1.055.8-2.114,1.126-3.2h0c.2-.64.361-1.3.5-1.963l.048-.24c.026-.134.048-.269.07-.4a19.145,19.145,0,0,1,1.234-5.356c1.919-3.866,5.654-2.878,6.223.688a6.283,6.283,0,0,1,.074.835c.086,4.512-1.7,8.922-.886,13.45a31.339,31.339,0,0,0,.87,3.268c.288.988.547,1.989.745,3A17.067,17.067,0,0,1,328.807,235.966Z" transform="translate(-10.367 -29.919)"/><path class="j" d="M330.566,185.792a35.84,35.84,0,0,0,.371,5.532c.867,4.285,4.157,8.078,3.793,12.433a3.356,3.356,0,0,1-1.41,2.728c-.927.524-2.462.483-2.766,1.538-.086.294-.042.614-.138.9a1.58,1.58,0,0,1-1.6.87,17.574,17.574,0,0,0-1.941-.173c-2.318.2-3.169,3.3-5.235,4.362a3.953,3.953,0,0,1-4.346-.739,5.413,5.413,0,0,1-1.561-4.272,31.714,31.714,0,0,1,.64-3.482,24.157,24.157,0,0,0-.016-6.3,38.089,38.089,0,0,0-1.577-9.1c-.476-1.375-1.11-2.689-1.522-4.084a23.748,23.748,0,0,1-.783-6.1c-.125-4.327.173-8.954,2.757-12.433,1.941-2.609,4.723-4.73,6.92-7.144,1.375-1.513,1.772-1.986,3.291-.7,1.25,1.052,2.558,2.5,2.7,3.93.384,3.655,0,7.249.684,10.972A84.24,84.24,0,0,1,330.566,185.792Z" transform="translate(-10.367 -29.919)"/><circle class="d" cx="16.309" cy="16.309" r="16.309" transform="translate(270.722 52.824)"/><path class="f" d="M312.332,130.25a1.824,1.824,0,0,1,2.715-.87l4.295,1.794a14.019,14.019,0,0,0,2-6.319,32.607,32.607,0,0,1,.243-4.112c.39-2,1.577-3.8,1.852-5.817a17.88,17.88,0,0,0-.413-4.9c-.729-5.027.054-10.156-.365-15.218S320.205,84.323,315.69,82a42.329,42.329,0,0,0-3.988-1.529c-2.964-1.129-5.622-2.936-8.551-4.157s-6.37-1.781-9.21-.377-4.493,5.353-2.648,7.931a9.674,9.674,0,0,0,2.347,2.059c1.73,1.238,3.5,2.766,3.895,4.857.716,3.764-3.2,6.715-4.3,10.4a8.838,8.838,0,0,0-.106,4.41c.476,2.181,1.64,4.24,1.6,6.472-.032,2.446-1.5,4.662-1.772,7.1-.1.892-.038,1.8-.15,2.686a13.862,13.862,0,0,1-1.033,3.4c-2.558,6.4-5.152,12.858-8.954,18.608a24.646,24.646,0,0,0,11.714-2.737A19.36,19.36,0,0,1,291.6,148a22.193,22.193,0,0,0,9.165-3.2,29.778,29.778,0,0,1-2.91,6.91c.109-.185,2.12-.64,2.491-.851a4.339,4.339,0,0,0,1.759-1.877c1.087-1.944,1.765-4.288,2.772-6.309a91.885,91.885,0,0,1,7.454-12.427Z" transform="translate(-10.367 -29.919)"/><path class="f" d="M188.648,32.381a15.138,15.138,0,0,1-2.331.054.508.508,0,0,0-.56.441L184.27,44.03a4.528,4.528,0,0,1-.959,2.21,4.816,4.816,0,0,0-1.084,3.681V68.868s-.1,2.526,1.845,2.526a28.061,28.061,0,0,0,7,0s1.554-.294,1.554-2.625V50.113a4.563,4.563,0,0,0-.959-3.709,4.643,4.643,0,0,1-.931-2.2l-1.545-11.387a.508.508,0,0,0-.54-.438Z" transform="translate(-10.367 -29.919)"/><rect class="j" width="9.424" height="15.935" rx="3.534" transform="translate(172.4 20.341)"/><path class="f" d="M210.713,48.69a15.14,15.14,0,0,1-2.331.054.508.508,0,0,0-.56.441l-1.487,11.154a4.528,4.528,0,0,1-.959,2.21,4.816,4.816,0,0,0-1.084,3.681V85.177s-.1,2.526,1.845,2.526a28.061,28.061,0,0,0,7,0s1.554-.294,1.554-2.625V66.421a4.563,4.563,0,0,0-.959-3.709,4.643,4.643,0,0,1-.931-2.2l-1.545-11.387a.508.508,0,0,0-.54-.438Z" transform="translate(-10.367 -29.919)"/><rect class="j" width="9.424" height="15.935" rx="3.534" transform="translate(194.465 36.65)"/><g class="k"><path class="f" d="M185.91,239.768a6.072,6.072,0,0,1-.118,1.027q-3.338-.531-6.715-.959v-.275a5.4,5.4,0,0,1,.8-2.712,2.975,2.975,0,0,1,5.414.166,5.4,5.4,0,0,1,.62,2.753Z" transform="translate(-10.367 -29.919)"/><ellipse class="f" cx="4.48" cy="3.422" rx="4.48" ry="3.422" transform="translate(168.742 208.652) rotate(-88.19)"/><ellipse class="f" cx="4.48" cy="3.422" rx="4.48" ry="3.422" transform="translate(168.916 203.177) rotate(-88.19)"/><ellipse class="f" cx="4.48" cy="3.422" rx="4.48" ry="3.422" transform="translate(169.088 197.702) rotate(-88.19)"/><ellipse class="f" cx="4.48" cy="3.422" rx="4.48" ry="3.422" transform="translate(169.262 192.227) rotate(-88.19)"/><path class="j" d="M171.552,179.892a15.88,15.88,0,0,1-1.215-1.919l9.037-1.193-9.728-.233a16.43,16.43,0,0,1,.1-13l12.83,7.179-11.752-9.222a16.4,16.4,0,1,1,26.491,19.187,16.245,16.245,0,0,1,1.775,3.048l-11.861,5.692,12.577-3.783a16.418,16.418,0,0,1-3.14,15.321,16.4,16.4,0,1,1-25.761-.812,16.4,16.4,0,0,1,.64-20.268Z" transform="translate(-10.367 -29.919)"/><path class="e" d="M200.5,190.95a16.309,16.309,0,0,1-3.837,10.022,16.4,16.4,0,1,1-25.761-.812C168.8,197.3,200.56,189.111,200.5,190.95Z" transform="translate(-10.367 -29.919)"/></g></g></g></svg>