<svg xmlns="http://www.w3.org/2000/svg" xmlns:xlink="http://www.w3.org/1999/xlink" width="363" height="269" viewBox="0 0 363 269"><defs><style>.a,.f,.i{fill:#fff;}.b{clip-path:url(#a);}.c,.e{fill:#eec9d2;}.c,.k,.x{opacity:0.1;}.d{fill:#d4d5e0;}.f,.w{opacity:0.2;}.g{fill:#53425a;}.h{fill:#ffc13d;}.i{opacity:0.5;}.j{fill:#c99398;}.l{fill:#f8f8fa;}.m{fill:#ffd2c6;}.n{fill:#d38884;}.o{fill:#626696;}.p{fill:#4c4981;}.q{opacity:0.05;}.r{fill:#ceddf9;}.s{fill:#cc8294;}.t{fill:#1e1637;}.u{fill:#ffcde5;}.v{fill:#985c7e;}</style><clipPath id="a"><rect class="a" width="363" height="269" rx="45" transform="translate(68 1203)"/></clipPath></defs><g class="b" transform="translate(-68 -1203)"><g transform="translate(72.301 1203)"><path class="c" d="M238.34,43.655c-15.207,10.648-34.932,9.959-52.217,4.419s-33.161-15.4-50.005-22.413a162.487,162.487,0,0,0-43.93-11.453c-21.463-2.456-45.432.536-60.388,17.749C15.147,51.124,16.425,85.7,34.439,103.295c9.162,8.95,21.159,13.343,31.622,20.331s20.148,18.592,19.257,32.08c-.825,12.487-10.415,22.069-20.339,28.081-7.671,4.647-17.119,9.721-18.043,19.345-.895,9.312,7.049,16.608,14.634,20.758a83.079,83.079,0,0,0,79.885-.341c8.8-4.905,16.88-11.428,26.1-15.251,24.216-10.037,50.9.067,76.542,3.761a153.034,153.034,0,0,0,65.1-4.739c12.7-3.751,25.445-9.485,34.366-20.168,6.433-7.7,10.441-17.451,14.2-27.079q6.018-15.4,11.57-31.016c2.222-6.25,4.408-12.621,4.982-19.307,1.04-12.118-3.34-24.094-9.305-34.321C350.857,51.15,327.006,34.078,301.19,29.741s-53.17,4.133-73.2,22.668" transform="translate(-20.078 -13.458)"/><path class="d" d="M318.669,190.366l-.917-.53c.857-1.481-1.443-7.788-3.341-10.963a19.424,19.424,0,0,1-2.526-6.123,9.123,9.123,0,0,1,1.72-7.867c3.632-4.5,3.6-13.079,3.6-13.165l1.059-.009c0,.367.037,9.046-3.835,13.84-2.574,3.186-2.274,7.486.891,12.781C316.812,180.824,320,188.068,318.669,190.366Z" transform="translate(-20.078 -13.458)"/><path class="e" d="M330.268,142.585c.24-8.6-5.415-15.733-12.631-15.935s-13.26,6.606-13.5,15.2c-.233,8.349,5.091,15.317,12.006,15.9a4.566,4.566,0,0,1-1.071,2.351c-1.048,1.071,3.3.092,3.3.092a7.72,7.72,0,0,1-.468-2.435C324.6,157.267,330.038,150.73,330.268,142.585Z" transform="translate(-20.078 -13.458)"/><path class="f" d="M307.941,148.326c-1.069-3.272-.083-6.558,2.2-7.544-.106.024-.211.052-.315.087-2.5.816-3.62,4.246-2.5,7.66,1.083,3.316,3.876,5.4,6.324,4.769C313.694,153.557,309.022,151.636,307.941,148.326Z" transform="translate(-20.078 -13.458)"/><path class="d" d="M324.093,202.28l1.058.045c.072-1.71,5.4-5.8,8.7-7.457a19.423,19.423,0,0,0,5.418-3.811,9.122,9.122,0,0,0,2.77-7.561c-.652-5.743,3.981-12.968,4.028-13.04l-.888-.576c-.2.308-4.887,7.613-4.192,13.736.462,4.07-2.1,7.537-7.611,10.306C330.781,195.226,324.205,199.628,324.093,202.28Z" transform="translate(-20.078 -13.458)"/><path class="e" d="M339.951,155.739c4.412-7.385,13.013-10.369,19.21-6.667s7.644,12.691,3.231,20.075c-4.284,7.17-12.516,10.192-18.663,6.972a4.567,4.567,0,0,0-.358,2.559c.31,1.466-2.831-1.692-2.831-1.692a7.72,7.72,0,0,0,1.7-1.8C336.85,171.166,335.772,162.734,339.951,155.739Z" transform="translate(-20.078 -13.458)"/><path class="f" d="M355.707,172.565c2.658-2.188,3.59-5.489,2.193-7.546q.114.115.219.242c1.67,2.029.776,5.525-2,7.808-2.693,2.216-6.167,2.474-7.9.63C348.046,173.891,353.021,174.778,355.707,172.565Z" transform="translate(-20.078 -13.458)"/><path class="d" d="M136.043,244.955l-1.058.045c-.072-1.71-5.4-5.8-8.7-7.457a19.424,19.424,0,0,1-5.418-3.811,9.122,9.122,0,0,1-2.77-7.561c.652-5.743-3.981-12.968-4.028-13.04l.888-.576c.2.308,4.887,7.613,4.192,13.736-.462,4.07,2.1,7.538,7.611,10.306C129.355,237.9,135.931,242.3,136.043,244.955Z" transform="translate(-20.078 -13.458)"/><path class="e" d="M120.185,198.414c-4.412-7.385-13.013-10.369-19.21-6.667s-7.644,12.691-3.231,20.075c4.284,7.17,12.516,10.192,18.663,6.972a4.566,4.566,0,0,1,.358,2.559c-.31,1.466,2.831-1.692,2.831-1.692a7.719,7.719,0,0,1-1.7-1.8C123.287,213.841,124.365,205.409,120.185,198.414Z" transform="translate(-20.078 -13.458)"/><path class="f" d="M104.428,215.24c-2.658-2.188-3.59-5.489-2.193-7.546-.076.077-.15.157-.219.242-1.67,2.029-.776,5.525,2,7.808,2.693,2.216,6.167,2.474,7.9.63C112.091,216.567,107.116,217.453,104.428,215.24Z" transform="translate(-20.078 -13.458)"/><path class="d" d="M170.9,133.822l-1.058.045c-.072-1.71-5.4-5.8-8.7-7.457a19.424,19.424,0,0,1-5.418-3.811,9.122,9.122,0,0,1-2.77-7.561c.652-5.743-3.981-12.968-4.028-13.04l.888-.576c.2.308,4.887,7.613,4.192,13.736-.462,4.07,2.1,7.538,7.611,10.306C164.207,126.768,170.783,131.17,170.9,133.822Z" transform="translate(-20.078 -13.458)"/><path class="e" d="M155.038,87.281c-4.412-7.385-13.013-10.369-19.21-6.667s-7.644,12.691-3.231,20.075c4.284,7.17,12.516,10.192,18.663,6.972a4.566,4.566,0,0,1,.358,2.559c-.31,1.466,2.831-1.692,2.831-1.692a7.72,7.72,0,0,1-1.7-1.8C158.139,102.708,159.217,94.276,155.038,87.281Z" transform="translate(-20.078 -13.458)"/><path class="f" d="M139.281,104.108c-2.658-2.188-3.59-5.489-2.193-7.546-.076.077-.15.157-.219.242-1.67,2.029-.776,5.525,2,7.808,2.693,2.216,6.167,2.474,7.9.63C146.943,105.434,141.969,106.32,139.281,104.108Z" transform="translate(-20.078 -13.458)"/><path class="d" d="M158.73,180.84l-1.058.045c-.072-1.71-5.4-5.8-8.7-7.457a19.424,19.424,0,0,1-5.418-3.811,9.122,9.122,0,0,1-2.77-7.561c.652-5.743-3.981-12.968-4.028-13.04l.888-.576c.2.308,4.887,7.613,4.192,13.736-.462,4.07,2.1,7.538,7.611,10.306C152.042,173.786,158.618,178.188,158.73,180.84Z" transform="translate(-20.078 -13.458)"/><path class="e" d="M142.872,134.3c-4.412-7.385-13.013-10.369-19.21-6.667s-7.644,12.691-3.231,20.075c4.284,7.17,12.516,10.192,18.663,6.972a4.566,4.566,0,0,1,.358,2.559c-.31,1.466,2.831-1.692,2.831-1.692a7.72,7.72,0,0,1-1.7-1.8C145.973,149.726,147.052,141.294,142.872,134.3Z" transform="translate(-20.078 -13.458)"/><path class="f" d="M127.115,151.125c-2.658-2.188-3.59-5.489-2.193-7.546-.076.077-.15.157-.219.242-1.67,2.029-.776,5.525,2,7.808,2.693,2.216,6.167,2.474,7.9.63C134.778,152.452,129.8,153.338,127.115,151.125Z" transform="translate(-20.078 -13.458)"/><path class="d" d="M304.693,243.063l-.672-.818c1.323-1.086,1.385-7.8.724-11.438a19.424,19.424,0,0,1-.214-6.62,9.122,9.122,0,0,1,4.375-6.761c4.98-2.933,7.966-10.98,8-11.061l.995.363c-.126.345-3.143,8.483-8.453,11.61-3.529,2.079-4.76,6.21-3.657,12.279C306.306,233.478,306.744,241.379,304.693,243.063Z" transform="translate(-20.078 -13.458)"/><path class="e" d="M332.339,202.4c3.246-7.966.458-16.633-6.227-19.357s-14.736,1.526-17.982,9.492c-3.152,7.735-.615,16.129,5.654,19.1a4.566,4.566,0,0,1-1.829,1.825c-1.358.634,3.055,1.245,3.055,1.245a7.72,7.72,0,0,1,.417-2.444C321.878,214.159,329.265,209.949,332.339,202.4Z" transform="translate(-20.078 -13.458)"/><path class="f" d="M309.418,199.934c.149-3.439,2.226-6.169,4.71-6.291-.107-.015-.216-.025-.325-.03-2.626-.114-4.881,2.7-5.036,6.292-.151,3.485,1.732,6.415,4.245,6.687C312.967,206.854,309.268,203.413,309.418,199.934Z" transform="translate(-20.078 -13.458)"/><ellipse class="c" cx="99.442" cy="7.39" rx="99.442" ry="7.39" transform="translate(99.638 224.973)"/><path class="g" d="M190.7,39.839V51.455h1.218V39.277Z"/><path class="g" d="M215.621,42.93V53.7h1.686l-.375-11.991Z"/><path class="g" d="M167.659,44.991l-1.124,1.218V56.7h1.124Z"/><path class="e" d="M192.42,89.362h-7.307V68.38h5.621a2.815,2.815,0,0,0-.129.5,29.133,29.133,0,0,0,.053,6.084C191.147,81.206,192.42,89.362,192.42,89.362Z" transform="translate(-20.078 -13.458)"/><path class="e" d="M217.9,89.362l-9.181,1.124V63.133h5.809c-.039.309-.065.66-.079,1.051a46.215,46.215,0,0,0,.363,6.174c.2,1.782.455,3.7.739,5.6.219,1.475.455,2.942.689,4.339C217.084,85.306,217.9,89.362,217.9,89.362Z" transform="translate(-20.078 -13.458)"/><path class="e" d="M242.632,86.551l-8.993.75V65.381h6.183a5.876,5.876,0,0,0-.318,2.254,40.3,40.3,0,0,0,.483,5.4C240.864,79.174,242.632,86.551,242.632,86.551Z" transform="translate(-20.078 -13.458)"/><path class="h" d="M189.235,37.184s.562,2.248-5.34,8.431-3.56,18.642,2.717,18.267c0,0,5.868.968,7.978-3.027a5.349,5.349,0,0,0-.374-5.481c-1.939-2.856-5.68-8.859-4.981-11.727Z" transform="translate(-20.078 -13.458)"/><path class="i" d="M188.049,45.681s.351,1.4-3.335,5.266-2.223,11.644,1.7,11.41c0,0,3.747.618,5.026-1.975a3.348,3.348,0,0,0-.281-3.345c-1.145-1.687-3.286-5.117-3.155-7,.021-.294.048-.588.048-.884Z" transform="translate(-20.078 -13.458)"/><path class="h" d="M237.942,34.365s.562,2.248-5.34,8.431-3.56,18.642,2.717,18.267c0,0,5.868.968,7.978-3.027a5.349,5.349,0,0,0-.374-5.481c-1.939-2.856-5.68-8.859-4.981-11.727Z" transform="translate(-20.078 -13.458)"/><path class="i" d="M237.2,47.765s.263,1.052-2.5,3.946-1.666,8.725,1.271,8.549c0,0,2.746.453,3.734-1.417a2.5,2.5,0,0,0-.175-2.565c-.908-1.337-2.658-4.146-2.331-5.488Z" transform="translate(-20.078 -13.458)"/><path class="h" d="M213.092,26.234s.683,2.734-6.493,10.252S202.27,59.154,209.9,58.7c0,0,7.135,1.177,9.7-3.68a6.5,6.5,0,0,0-.455-6.665c-2.358-3.473-6.907-10.772-6.057-14.26Z" transform="translate(-20.078 -13.458)"/><path class="i" d="M212.34,39.8s.381,1.525-3.623,5.72S206.3,58.171,210.56,57.916c0,0,3.981.657,5.413-2.053a3.629,3.629,0,0,0-.254-3.718c-1.316-1.938-3.854-6.01-3.379-7.956Z" transform="translate(-20.078 -13.458)"/><path class="i" d="M190.658,74.962a76.192,76.192,0,0,0-5.545,7.09V74.638c1.6-1.934,3.9-4.23,5.491-5.761A29.135,29.135,0,0,0,190.658,74.962Z" transform="translate(-20.078 -13.458)"/><path class="i" d="M214.813,70.358A65.486,65.486,0,0,0,208.72,75.9V68.813a32.8,32.8,0,0,1,5.73-4.629,46.215,46.215,0,0,0,.363,6.174Z" transform="translate(-20.078 -13.458)"/><path class="e" d="M216.241,80.3c-2.257,1.978-5.362,4.792-7.52,6.753V81.976c2.254-2.074,5.011-4.463,6.832-6.02C215.771,77.432,216.007,78.9,216.241,80.3Z" transform="translate(-20.078 -13.458)"/><path class="i" d="M239.987,73.034c-2.167,1.815-4.679,4.311-6.349,6.028V71.994a31.466,31.466,0,0,1,5.865-4.359A40.3,40.3,0,0,0,239.987,73.034Z" transform="translate(-20.078 -13.458)"/><rect class="j" width="91.709" height="41.969" transform="translate(149.205 80.962)"/><path class="k" d="M260.992,94.42v6.318a12.929,12.929,0,0,1-5.978-.829,7.947,7.947,0,0,0-6.874.866c-5.283,3.454-9.409,2.723-12.287,1.006a10.584,10.584,0,0,0-9.578-.739,10.4,10.4,0,0,1-4.246.778,8.965,8.965,0,0,0-4.82,1.329c-4.339,2.628-8.664,1.107-11.382-.481a8.023,8.023,0,0,0-5.885-.849,8.478,8.478,0,0,1-2.614.214,9.806,9.806,0,0,0-5.772,1.245c-7.163,4.185-9.53-.9-10.941-1.644-1.593-.843-1.779,2.06-2.248,2.06s-2.06-3.839-2.437-2.529c-.174.615-1.65,1.355-3.167,1.967a6.319,6.319,0,0,1-3.482.36V94.42Z" transform="translate(-20.078 -13.458)"/><path class="l" d="M172.937,86.053s-15.03,6.708-7.01,15.089a6.246,6.246,0,0,0,6.838,1.428c1.516-.611,2.992-1.35,3.168-1.966.375-1.311,1.967,2.529,2.436,2.529s.656-2.9,2.248-2.061c1.411.747,3.777,5.83,10.939,1.643a9.825,9.825,0,0,1,5.775-1.244,8.409,8.409,0,0,0,2.612-.214,8.032,8.032,0,0,1,5.886.848c2.717,1.588,7.043,3.108,11.381.483a8.963,8.963,0,0,1,4.821-1.331,10.346,10.346,0,0,0,4.245-.779,10.6,10.6,0,0,1,9.579.739c2.878,1.719,7,2.449,12.286-1a7.938,7.938,0,0,1,6.873-.868c3.842,1.287,9.179,2.107,8.7-3.519-.75-8.712-11.054-11.241-15.363-11.335s-11.429-.843-19.485,0-24.45.749-24.45.749S176.884,84.148,172.937,86.053Z" transform="translate(-20.078 -13.458)"/><rect class="j" width="130.82" height="51.381" transform="translate(130.469 122.932)"/><path class="k" d="M260.992,127.624v8.765h-51q-.131-.017-.261-.025a6.864,6.864,0,0,0-1.3.025H169.283v-7.815a103.7,103.7,0,0,0,12.809,1.163c5.629-.025,11.191-1.194,16.831-.88,19.72,1.1,39.8,1.422,59.441-.913C259.238,127.84,260.115,127.731,260.992,127.624Z" transform="translate(-20.078 -13.458)"/><path class="k" d="M281.367,136.389v4.634a23.023,23.023,0,0,1-4.165-1.2,6.866,6.866,0,0,0-3.839-.385c-.663.177-1.267.526-1.922.728-2.737.854-5.592-.925-8.462-.936-2.844-.011-5.387,1.7-8.164,2.327-4.291.964-8.678-.728-12.79-2.3-1.664-.632-3.592-1.237-5.146-.371-.683.379-1.2,1-1.863,1.414-1.948,1.2-4.5.264-6.438-.95-1.228-.767-2.715-1.669-4.01-1.023a8.275,8.275,0,0,0-1.641,1.5c-1.754,1.571-4.513,1.149-6.663.194s-4.187-2.366-6.531-2.541c-3.3-.25-6.2,1.978-9.083,3.611s-6.882,2.6-9.235.261c-.778-.773-1.355-1.891-2.42-2.158-1.762-.438-3.086,1.742-4.862,2.125-2.189.472-3.971-1.858-6.166-2.316-2.271-.475-4.384,1.1-6.388,2.271s-4.915,1.824-6.368.017c-.464-.576-.717-1.352-1.352-1.734a2.709,2.709,0,0,0-1.563-.25,15.877,15.877,0,0,0-5.511,1.318c-2,.882-3.937,2.206-6.121,2.164-.039,0-.079,0-.118-.006v-6.4Z" transform="translate(-20.078 -13.458)"/><path class="l" d="M182.091,130.3c-10.035.042-20.4-3.72-29.86-.374-3.433,1.214-6.914,4.087-6.552,7.71a5.288,5.288,0,0,0,4.985,4.6c2.185.042,4.121-1.283,6.121-2.164a15.861,15.861,0,0,1,5.513-1.32,2.725,2.725,0,0,1,1.563.252c.634.38.888,1.158,1.351,1.734,1.454,1.807,4.363,1.149,6.367-.018s4.119-2.746,6.389-2.272c2.193.458,3.975,2.789,6.165,2.317,1.775-.383,3.1-2.562,4.861-2.123,1.067.266,1.642,1.383,2.421,2.158,2.35,2.337,6.35,1.371,9.233-.263s5.778-3.861,9.082-3.612c2.345.176,4.384,1.587,6.533,2.542s4.91,1.376,6.662-.194a8.382,8.382,0,0,1,1.642-1.5c1.3-.644,2.783.258,4.009,1.024,1.942,1.214,4.492,2.153,6.441.949.664-.41,1.18-1.034,1.861-1.413,1.554-.866,3.484-.262,5.146.372,4.11,1.567,8.5,3.26,12.791,2.294,2.774-.624,5.32-2.336,8.163-2.326,2.868.011,5.724,1.79,8.462.936.654-.2,1.258-.551,1.92-.728a6.847,6.847,0,0,1,3.84.384,16.656,16.656,0,0,0,5.017,1.252c1.732.005,3.626-.94,4.04-2.622a4.688,4.688,0,0,0-1.072-3.7c-2.8-3.916-7.654-5.931-12.438-6.467s-9.6.212-14.385.78c-19.642,2.334-39.722,2.009-59.44.912C193.284,129.106,187.721,130.275,182.091,130.3Z" transform="translate(-20.078 -13.458)"/><rect class="j" width="144.649" height="59.579" transform="translate(121.616 169.675)"/><path class="k" d="M286.984,181.5a170.746,170.746,0,0,1-21.94,3.26,15.073,15.073,0,0,0-7.4.565c-.045.014-.09.028-.135.045-4.558,1.613-8.482,5.438-13.315,5.376-3.859-.051-7.194-2.6-10.9-3.667a13.886,13.886,0,0,0-3.254-.531,14.278,14.278,0,0,0-2.245.062c-4.482.118-8.965.166-13.447.073-6.576-.132-13.138-.568-19.7-1L173.6,184.291l-19.8-1.307-4.862-.323c-1.745-.115-3.041.261-3.746-1.3-.837-1.866-.1-3.724.927-5.348.882.017,1.768.079,2.647.141q20.049,1.412,40.089,2.923l-2.054.363a224.258,224.258,0,0,1,42.205-2.611c6.59.216,13.217.722,19.759-.118,4.6-.59,9.1-1.838,13.723-2.229,6.346-.537,12.705.559,18.984,1.652a38.18,38.18,0,0,1,3.923.832A12.739,12.739,0,0,0,286.984,181.5Z" transform="translate(-20.078 -13.458)"/><path class="k" d="M286.344,183.133v5.6c-1.8-.267-3.572-.531-4.668.75-.514.6-.714,1.425-1.214,2.043-1.031,1.273-3.046,1.27-4.519.548a21.461,21.461,0,0,1-3.859-3.027,15.342,15.342,0,0,0-14.577-2.555c-4.558,1.613-8.482,5.438-13.315,5.376-3.859-.051-7.194-2.6-10.9-3.667a14.727,14.727,0,0,0-12.422,2.111c-2.625,1.863-5.1,4.755-8.3,4.387-1.675-.194-3.083-1.284-4.5-2.192a23.969,23.969,0,0,0-9.434-3.5,7.939,7.939,0,0,0-4.367.337c-1.7.767-2.8,2.462-4.378,3.457-3.667,2.307-8.422.225-12.2-1.891s-8.462-4.283-12.208-2.108a27.715,27.715,0,0,1-2.571,1.652c-5.27,2.313-10.443-6.6-15.85-4.629-1.22.444-2.192,1.4-3.392,1.9a4.067,4.067,0,0,1-1.967.275v-4.87Z" transform="translate(-20.078 -13.458)"/><path class="l" d="M188.858,179.639q-20.042-1.508-40.09-2.921a19.509,19.509,0,0,0-6.931.342,6.633,6.633,0,0,0-4.791,4.605c-.721,3.443,3.364,6.838,6.617,5.5,1.2-.494,2.172-1.453,3.392-1.9,5.406-1.968,10.581,6.942,15.848,4.629a27.361,27.361,0,0,0,2.571-1.651c3.747-2.176,8.427-.008,12.208,2.108s8.536,4.2,12.2,1.889c1.58-.994,2.677-2.688,4.378-3.455a7.91,7.91,0,0,1,4.367-.337,23.928,23.928,0,0,1,9.435,3.5c1.422.906,2.83,2,4.5,2.19,3.2.37,5.675-2.524,8.3-4.386a14.737,14.737,0,0,1,12.422-2.111c3.706,1.069,7.043,3.618,10.9,3.668,4.834.063,8.758-3.762,13.315-5.377a15.35,15.35,0,0,1,14.579,2.555,21.381,21.381,0,0,0,3.859,3.026c1.472.723,3.487.726,4.519-.548.5-.617.7-1.439,1.214-2.043,2.11-2.467,6.7.793,9.263-1.205a3.5,3.5,0,0,0,1.171-1.928c.641-2.556-.964-5.25-3.164-6.7s-4.878-1.936-7.474-2.389c-6.276-1.094-12.635-2.191-18.983-1.654-4.62.391-9.124,1.64-13.723,2.23-6.541.839-13.168.334-19.759.118A224.255,224.255,0,0,0,186.8,180" transform="translate(-20.078 -13.458)"/><path class="k" d="M286.344,226.49v14q-8.3.426-16.612.846c-8.942.455-17.893.911-26.844.736-7.565-.149-15.114-.745-22.676-.981-15.9-.495-31.846.615-47.7-.658-5.075-.408-10.134-1.057-15.218-1.346a111.991,111.991,0,0,0-15.6.225V226.123a12.269,12.269,0,0,1,1.436-.034,18.363,18.363,0,0,1,7.242,1.751c1.773.84,3.454,1.981,5.387,2.316,5.03.868,9.4-3.884,14.493-4.263,4.1-.3,7.785,2.24,11.3,4.367a3.485,3.485,0,0,0,2.209.7,4.085,4.085,0,0,0,1.72-.933,13.906,13.906,0,0,1,17.213,1.015,4.147,4.147,0,0,0,1.638,1.152c1.29.343,2.448-.776,3.471-1.636,5.542-4.674,14.082-3.268,20.442.216,1.178.644,2.482,1.377,3.783,1.04a6.276,6.276,0,0,0,2.24-1.464c5.415-4.443,13.56-3.617,19.9-.63a3.7,3.7,0,0,0,1.931.526,4.234,4.234,0,0,0,2.046-1.237,10.435,10.435,0,0,1,10.974-1.36,22.233,22.233,0,0,0,2.99,1.456c3.027.925,6.1-.956,9.122-1.908A15.673,15.673,0,0,1,286.344,226.49Z" transform="translate(-20.078 -13.458)"/><path class="l" d="M301.587,240.275q-15.926.814-31.855,1.622c-8.942.455-17.893.911-26.844.736-7.565-.149-15.114-.745-22.676-.981-15.9-.495-31.846.615-47.7-.658-5.075-.408-10.134-1.057-15.218-1.346a113.207,113.207,0,0,0-17.16.363c-1.22.115-3.1.725-4.277.486-1.273-.259-.787-.4-.371-1.61a10.661,10.661,0,0,0,.315-1.093,32.547,32.547,0,0,0,.556-4.5c.185-1.956.472-4.109,2.091-5.438a6.938,6.938,0,0,1,4.685-1.208,18.363,18.363,0,0,1,7.242,1.751c1.773.84,3.454,1.981,5.387,2.316,5.03.868,9.4-3.884,14.493-4.263,4.1-.3,7.785,2.24,11.3,4.367a3.485,3.485,0,0,0,2.209.7,4.085,4.085,0,0,0,1.72-.933,13.906,13.906,0,0,1,17.213,1.015,4.146,4.146,0,0,0,1.638,1.152c1.29.343,2.448-.776,3.471-1.636,5.542-4.674,14.082-3.268,20.442.216,1.178.644,2.482,1.377,3.783,1.04a6.276,6.276,0,0,0,2.24-1.464c5.415-4.443,13.56-3.617,19.9-.63a3.7,3.7,0,0,0,1.931.526,4.234,4.234,0,0,0,2.046-1.237,10.435,10.435,0,0,1,10.974-1.36,22.233,22.233,0,0,0,2.99,1.456c3.027.925,6.1-.955,9.122-1.908a15.794,15.794,0,0,1,19.728,10.033,15.065,15.065,0,0,1,.627,2.481Z" transform="translate(-20.078 -13.458)"/><path class="k" d="M301.587,240.275q-15.926.814-31.855,1.622c-8.942.455-17.893.911-26.844.736-7.565-.149-15.114-.745-22.676-.981-15.9-.495-31.846.615-47.7-.658-5.075-.408-10.134-1.057-15.218-1.346a113.207,113.207,0,0,0-17.16.363c-1.22.115-3.1.725-4.277.486-1.273-.259-.787-.4-.371-1.61a10.661,10.661,0,0,0,.315-1.093H300.96a15.064,15.064,0,0,1,.627,2.481Z" transform="translate(-20.078 -13.458)"/><path class="d" d="M111.62,224.617H283.37a5.6,5.6,0,0,1,5.6,5.6v.723H106.019v-.723A5.6,5.6,0,0,1,111.62,224.617Z"/><rect class="e" width="1.03" height="2.847" rx="0.456" transform="matrix(0.958, 0.288, -0.288, 0.958, 153.336, 77.169)"/><rect class="e" width="1.03" height="2.847" rx="0.456" transform="matrix(0.958, 0.288, -0.288, 0.958, 138.355, 118.423)"/><rect class="e" width="1.03" height="2.847" rx="0.456" transform="matrix(0.958, 0.288, -0.288, 0.958, 122.31, 166.191)"/><rect class="e" width="1.03" height="2.847" rx="0.456" transform="matrix(0.958, 0.288, -0.288, 0.958, 162.429, 169.363)"/><rect class="e" width="1.03" height="2.847" rx="0.456" transform="matrix(0.958, 0.288, -0.288, 0.958, 186.25, 167.576)"/><rect class="e" width="1.03" height="2.847" rx="0.456" transform="matrix(0.958, 0.288, -0.288, 0.958, 219.827, 171.199)"/><rect class="e" width="1.03" height="2.847" rx="0.456" transform="matrix(0.958, 0.288, -0.288, 0.958, 242.793, 165.903)"/><rect class="e" width="1.03" height="2.847" rx="0.456" transform="matrix(0.958, 0.288, -0.288, 0.958, 141.932, 168.164)"/><rect class="e" width="1.03" height="2.847" rx="0.456" transform="matrix(0.958, 0.288, -0.288, 0.958, 190.621, 172.976)"/><rect class="e" width="1.03" height="2.847" rx="0.456" transform="matrix(0.958, 0.288, -0.288, 0.958, 210.712, 167.576)"/><rect class="e" width="1.03" height="2.847" rx="0.456" transform="matrix(0.958, 0.288, -0.288, 0.958, 253.144, 165.903)"/><rect class="e" width="1.03" height="2.847" rx="0.456" transform="translate(204.637 77.685) rotate(-53.674)"/><rect class="e" width="1.03" height="2.847" rx="0.456" transform="translate(192.126 76.751) rotate(-53.674)"/><rect class="e" width="1.03" height="2.847" rx="0.456" transform="translate(171.812 76.75) rotate(-53.674)"/><rect class="e" width="1.03" height="2.847" rx="0.456" transform="translate(144.75 118.121) rotate(-53.674)"/><rect class="e" width="1.03" height="2.847" rx="0.456" transform="translate(146.293 122.301) rotate(-53.674)"/><rect class="e" width="1.03" height="2.847" rx="0.456" transform="translate(179.688 118.453) rotate(-53.674)"/><rect class="e" width="1.03" height="2.847" rx="0.456" transform="translate(166.441 172.846) rotate(-53.674)"/><rect class="e" width="1.03" height="2.847" rx="0.456" transform="translate(215.856 120.608) rotate(-53.674)"/><rect class="e" width="1.03" height="2.847" rx="0.456" transform="translate(230.731 122.582) rotate(-53.674)"/><rect class="e" width="1.03" height="2.847" rx="0.456" transform="translate(226.23 166.987) rotate(-53.674)"/><rect class="e" width="1.03" height="2.847" rx="0.456" transform="translate(256.886 172.273) rotate(-53.674)"/><rect class="e" width="1.03" height="2.847" rx="0.456" transform="translate(152.911 169.248) rotate(-53.674)"/><rect class="e" width="1.03" height="2.847" rx="0.456" transform="translate(130.589 167.274) rotate(-53.674)"/><rect class="e" width="1.03" height="2.847" rx="0.456" transform="translate(174.886 170.728) rotate(-53.674)"/><rect class="e" width="1.03" height="2.847" rx="0.456" transform="translate(198.787 169.248) rotate(-53.674)"/><rect class="e" width="1.03" height="2.847" rx="0.456" transform="translate(231.238 78.137) rotate(54.677)"/><rect class="e" width="1.03" height="2.847" rx="0.456" transform="translate(204.876 82.015) rotate(54.677)"/><rect class="e" width="1.03" height="2.847" rx="0.456" transform="translate(161.28 120.189) rotate(54.677)"/><rect class="e" width="1.03" height="2.847" rx="0.456" transform="translate(174.461 121.485) rotate(54.677)"/><rect class="e" width="1.03" height="2.847" rx="0.456" transform="translate(199.942 121.485) rotate(54.677)"/><rect class="e" width="1.03" height="2.847" rx="0.456" transform="translate(207.908 118.783) rotate(54.677)"/><rect class="e" width="1.03" height="2.847" rx="0.456" transform="translate(226.763 119.792) rotate(54.677)"/><rect class="e" width="1.03" height="2.847" rx="0.456" transform="translate(240.52 117.638) rotate(54.677)"/><rect class="e" width="1.03" height="2.847" rx="0.456" transform="translate(259.2 118.782) rotate(54.677)"/><rect class="e" width="1.03" height="2.847" rx="0.456" transform="matrix(0.958, 0.288, -0.288, 0.958, 200.932, 75.078)"/><rect class="e" width="1.03" height="2.847" rx="0.456" transform="matrix(0.958, 0.288, -0.288, 0.958, 216.382, 74.392)"/><rect class="e" width="1.03" height="2.847" rx="0.456" transform="matrix(0.958, 0.288, -0.288, 0.958, 195.172, 80.638)"/><rect class="e" width="1.03" height="2.847" rx="0.456" transform="matrix(0.958, 0.288, -0.288, 0.958, 164.953, 81.747)"/><rect class="e" width="1.03" height="2.847" rx="0.456" transform="matrix(0.958, 0.288, -0.288, 0.958, 218.752, 79.253)"/><rect class="e" width="1.03" height="2.847" rx="0.456" transform="matrix(0.958, 0.288, -0.288, 0.958, 162.429, 75.078)"/><rect class="e" width="1.03" height="2.847" rx="0.456" transform="matrix(0.958, 0.288, -0.288, 0.958, 178.302, 77.868)"/><rect class="e" width="1.03" height="2.847" rx="0.456" transform="matrix(0.958, 0.288, -0.288, 0.958, 168.606, 118.422)"/><rect class="e" width="1.03" height="2.847" rx="0.456" transform="matrix(0.958, 0.288, -0.288, 0.958, 192.32, 118.422)"/><rect class="e" width="1.03" height="2.847" rx="0.456" transform="matrix(0.958, 0.288, -0.288, 0.958, 247.381, 119.524)"/><rect class="e" width="1.03" height="2.847" rx="0.456" transform="matrix(0.958, 0.288, -0.288, 0.958, 253.143, 119.524)"/><rect class="e" width="1.03" height="2.847" rx="0.456" transform="matrix(0.958, 0.288, -0.288, 0.958, 184.639, 81.747)"/><ellipse class="c" cx="58.854" cy="5.294" rx="58.854" ry="5.294" transform="translate(84.967 248.13)"/><ellipse class="c" cx="9.403" cy="0.953" rx="9.403" ry="0.953" transform="translate(56.018 230.187)"/><ellipse class="c" cx="9.403" cy="0.953" rx="9.403" ry="0.953" transform="translate(30.71 254.03)"/><ellipse class="c" cx="9.403" cy="0.953" rx="9.403" ry="0.953" transform="translate(289.119 251.169)"/><ellipse class="c" cx="9.403" cy="0.953" rx="9.403" ry="0.953" transform="translate(266.266 261.26)"/><ellipse class="c" cx="9.403" cy="0.953" rx="9.403" ry="0.953" transform="translate(239.234 244.973)"/><ellipse class="c" cx="9.403" cy="0.953" rx="9.403" ry="0.953" transform="translate(196.686 267.095)"/><path class="m" d="M197.825,153.719l-4.185,8.9a7.606,7.606,0,0,1-1.015,1.98c-.395.31-2.156,5.594-2.156,5.594l-4.491,6.922v0l-.306.472-1.761-.486-1.233-4.615.074-1.339.011-.169a27.65,27.65,0,0,1,3.392-3.125s.483.056,1.409-2.195,1.761-2.737,1.761-2.737l.483-1.631,5.2-8.278s4.358-6.249,5.545-3.477S197.825,153.719,197.825,153.719Z" transform="translate(-20.078 -13.458)"/><path class="n" d="M147.2,163.072a6.089,6.089,0,0,0-.486,1.487c-.028.13-.056.268-.088.409-.289,1.483-.486,3.35-.585,4.432-.049.546-.074.895-.074.895s-10.512-.7-8.691-2.466a3.891,3.891,0,0,0,.962-1.747q.079-.28.137-.571a9.755,9.755,0,0,0,.166-1.332c.007-.113.011-.225.014-.338a13.971,13.971,0,0,0-.106-2.177s3.421-.021,6,.275C146.178,162.139,147.531,162.48,147.2,163.072Z" transform="translate(-20.078 -13.458)"/><path class="m" d="M180.437,216.924a.967.967,0,0,1-.141.426c-.483.7-3.213,15.1-3.213,15.1a8.151,8.151,0,0,1-.793,3.79,55.266,55.266,0,0,0-1.279,5.46s-.218,9.864-.789,11.4.183,4.844.183,4.844a7.4,7.4,0,0,0,1.4,3.942c.039.053.074.106.106.151.176.254.292.4.292.4a2.342,2.342,0,0,0,.617.761c.039.032.081.063.123.1a7.056,7.056,0,0,0,2.469,1.043c.028.007.056.011.085.018.352.077.581.109.581.109l.218,1.191-2.332.483-4.446.306s-5.242.4-4.051-1.937a4.09,4.09,0,0,0,.215-.493h0c.042-.113.085-.229.12-.349a12.094,12.094,0,0,0,.232-4.971l-1.015-7.968c-1.67-7.4,1.317-15.634,1.317-15.634a3.822,3.822,0,0,1,.314-2.332c.574-1.673,0-5.326,0-5.326s-.306-4.713-.7-7.045a14.2,14.2,0,0,1-.158-2.966,14.967,14.967,0,0,1,.158-1.737l10.04-1.332A7.677,7.677,0,0,1,180.437,216.924Z" transform="translate(-20.078 -13.458)"/><path class="k" d="M180.3,265.657l-2.332.483-4.446.306s-5.242.4-4.051-1.937a4.089,4.089,0,0,0,.215-.493h0c.042-.113.085-.229.12-.349a8.137,8.137,0,0,1,2.656.535,2.443,2.443,0,0,0,2.617-.926l.726-1.384.106-.2c.176.254.292.4.292.4a2.375,2.375,0,0,0,.74.856l-.123.257-.7,1.483s.9.092,2.135.289a.957.957,0,0,0,1.162-.634c.028.007.056.011.085.018.352.077.581.109.581.109Z" transform="translate(-20.078 -13.458)"/><path class="o" d="M182.455,266.756c-.176.793-5.087,1.036-5.087,1.036s-2.73-.264-3.5.373-3.019.486-3.107.486-1.275-.046-1.74-2.177c-.451-2.078.606-2.441.659-2.459h0a7.983,7.983,0,0,1,2.776.539,2.443,2.443,0,0,0,2.617-.927l.831-1.585c.176.254.292.4.292.4a2.376,2.376,0,0,0,.74.856l-.828,1.74s.9.092,2.135.289a1.022,1.022,0,0,0,1.247-.969,1.145,1.145,0,0,0,.011-.134s.768.222,1.716.486a1.77,1.77,0,0,1,1.233,2.047Z" transform="translate(-20.078 -13.458)"/><path class="m" d="M191.7,227.418c-.116.7-.236,2.526-.236,2.526.412,1.525-.645,5.15-.645,5.15l-.528,2.071c.236,2.642-1.451,9.1-1.451,9.1s-1.131,5.989-1.719,8.574a7.119,7.119,0,0,0,.306,4.319c.028.07.046.106.046.106.011.049.021.1.035.144a2.034,2.034,0,0,0,.063.208,3.132,3.132,0,0,0,.578.983,2.763,2.763,0,0,0,.317.324c.007.007.011.014.018.018a6.336,6.336,0,0,0,1.871,1.152h0l0,0q.153.063.3.116a8.36,8.36,0,0,0,.933.292h0c.067.018.106.025.106.025l-.236,1.384-3.111-.8-4.167-1.353-2.05-1.173s.021-.113.063-.328c0-.011,0-.025.007-.035.018-.092.035-.2.06-.324a44.2,44.2,0,0,0,.719-10.646c-.5-4.636,1.434-11.037,1.906-12.562a7.6,7.6,0,0,0,.352-2.7c-.764-1.117-.941-5.576-.941-5.576s-1.409-2.878-2.575-5.932a15.558,15.558,0,0,1-.838-3.086,10.751,10.751,0,0,1-.169-2.255s9.455-8.631,10.494-.275c.035.282.067.553.1.817C192.231,225.329,191.815,226.738,191.7,227.418Z" transform="translate(-20.078 -13.458)"/><path class="k" d="M191.7,262.529l-.236,1.384-3.111-.8-4.167-1.353-2.05-1.173s.021-.113.063-.328c0-.011,0-.025.007-.035.018-.092.035-.2.06-.324l.292-.028.025,0a3.873,3.873,0,0,1,1.744.236c.68.254,1.568.546,1.751.423a2.2,2.2,0,0,1,1-.176l.433-.948.063-.144a3.133,3.133,0,0,0,.578.983,3.071,3.071,0,0,0,.335.342l-.018.335-.025.476a6.132,6.132,0,0,0,1.5.69.868.868,0,0,0,.416,0h0l0,0q.153.063.3.116a8.356,8.356,0,0,0,.933.292h0C191.663,262.522,191.7,262.529,191.7,262.529Z" transform="translate(-20.078 -13.458)"/><path class="o" d="M190.145,265.481c-.867-.25-2.963-.648-3.3-.338s-3.244,0-3.244,0a1.767,1.767,0,0,1-1.5-.881c-.6-.941-.116-3.977-.116-3.977l.215-.021.359-.035.025,0a3.873,3.873,0,0,1,1.744.236c.68.254,1.568.546,1.751.423a2.2,2.2,0,0,1,1-.176l.5-1.092a3.132,3.132,0,0,0,.578.983,3.075,3.075,0,0,0,.335.342l-.042.81a6.132,6.132,0,0,0,1.5.69.6.6,0,0,0,.719-.229.545.545,0,0,0,.053-.12l0,0a5.119,5.119,0,0,0,1.229.409h0a2.246,2.246,0,0,1,2.4,1.726C194.785,265.583,191.012,265.727,190.145,265.481Z" transform="translate(-20.078 -13.458)"/><path class="k" d="M180.437,216.924c-.194.056-.37.109-.535.162a7.8,7.8,0,0,1-1.3.275,54.126,54.126,0,0,1-8.814.063,14.965,14.965,0,0,1,.158-1.737l10.04-1.332A7.678,7.678,0,0,1,180.437,216.924Z" transform="translate(-20.078 -13.458)"/><path class="o" d="M189.194,214.486s-3.685.571-6.683,1.226c-1,.218-1.927.447-2.61.669a7.8,7.8,0,0,1-1.3.275,58.372,58.372,0,0,1-9.272.035c-1.627-5.284,1.98-11.935,1.98-11.935a6.736,6.736,0,0,1,.75-2.156l.014-.053.514-1.885h13.693l.169.81.349,1.649,2.149,10.209Z" transform="translate(-20.078 -13.458)"/><path class="k" d="M191.315,217.688l-.081.035-1.6.712c-1.733.8-6.926.951-8.74.965a10.751,10.751,0,0,1-.169-2.255s9.455-8.631,10.494-.275C191.251,217.153,191.283,217.424,191.315,217.688Z" transform="translate(-20.078 -13.458)"/><path class="o" d="M191.568,216.871l-.335.148-1.6.712c-1.765.814-7.123.958-8.838.965-.208,0-.363,0-.451,0a2.061,2.061,0,0,1-1.585-.962c0-.106-.081-.627-.151-1.074-.06-.359-.113-.669-.113-.669a41.916,41.916,0,0,1-5.326-2.758c-1.346-.916-1.008-7.422-.747-10.695.092-1.127.173-1.871.173-1.871l13.862.81,1.945.113,1.113.247.3.063s.8,5.812,1.191,6.3.134,2.114.088,3.04a5.741,5.741,0,0,1-.13,1.187,7.311,7.311,0,0,1,.437,2.543,5.07,5.07,0,0,0,.176,1.909Z" transform="translate(-20.078 -13.458)"/><path class="n" d="M129,213.094c-3.583-.12-.941-7.574-.528-8.581s-.613-3.456-.613-3.456-1.208-7.105-1.208-7.574a18.865,18.865,0,0,0-.409-2.878,4.8,4.8,0,0,1,.469-2.818c.412-.645.352-3.227.352-3.227v-3.347l.8-1.057,2.043,1.93.567.535,1,3.741-.352,5.358-.176,5.224,1.233,7.222S132.581,213.211,129,213.094Z" transform="translate(-20.078 -13.458)"/><path class="k" d="M110.037,169.518l-3.054-1.265v-.5l.8-1.057,2.043,1.931Z"/><path class="p" d="M128.7,175.342a14.19,14.19,0,0,0-.847,2.994,13.4,13.4,0,0,1-.8,2.877l3.405,1.409Z" transform="translate(-20.078 -13.458)"/><path class="q" d="M128.7,175.342a14.19,14.19,0,0,0-.847,2.994,13.4,13.4,0,0,1-.8,2.877l3.405,1.409Z" transform="translate(-20.078 -13.458)"/><path class="n" d="M155.728,249.484l-.282.6s-.307,1.994-.307,2.04-.881,1.377-.881,1.377l-2.216.472-.941-.113a12.569,12.569,0,0,0-.25-1.628c-.035-.151-.07-.306-.113-.465a12.287,12.287,0,0,0-1.546-3.505s-1.642-4.051-2.23-4.58-2.818-5.872-2.582-7.162a37.477,37.477,0,0,0-.092-5.062c-.1-1.613-.2-2.97-.2-2.97l5.576-3.3.648,1.025a.013.013,0,0,0,0,.011l.387.609s0,.116-.021.31c0,.021,0,.046,0,.07a10.106,10.106,0,0,1-.5,2.438s-.419,2.994,0,3.523c.409.511,1.744,7.591,2.04,10.857.011.1.018.2.025.3a6.567,6.567,0,0,0,1.98,3.819l.011.011c.06.063.123.127.187.19a13.117,13.117,0,0,0,1.3,1.138Z" transform="translate(-20.078 -13.458)"/><path class="k" d="M151.1,253.859l.941.113,2.216-.472s.881-1.335.881-1.377.306-2.04.306-2.04l.282-.6.035-.074a12.289,12.289,0,0,1-1.525-1.254l-.011-.011c-.053-.049-.1-.1-.155-.151a2.755,2.755,0,0,1-1.37,2.808c-.817.419-1.49.743-1.962.965Z" transform="translate(-20.078 -13.458)"/><path class="r" d="M156.116,249.763l-.317.673s-.307,1.994-.307,2.04-.881,1.377-.881,1.377l-2.216.472-1.272-.151c-.014-.257-.042-.62-.109-1.06-.039-.268-.092-.564-.162-.881.472-.218,1.233-.581,2.2-1.078a2.755,2.755,0,0,0,1.37-2.808,13.028,13.028,0,0,0,1.159,1.029C155.817,249.554,156,249.685,156.116,249.763Z" transform="translate(-20.078 -13.458)"/><path class="k" d="M156.116,249.763l-.317.673s-.307,1.994-.307,2.04-.881,1.377-.881,1.377l-2.216.472-1.272-.151c-.014-.257-.042-.62-.109-1.06a4.252,4.252,0,0,1,.807.109s3.026.648,3.17-1.747c.085-1.36.366-1.892.592-2.1C155.817,249.554,156,249.685,156.116,249.763Z" transform="translate(-20.078 -13.458)"/><path class="s" d="M155.894,249.6s-.754-.169-.9,2.224-3.17,1.747-3.17,1.747-1.482-.367-1.5.25a5.764,5.764,0,0,0,.4,1.659,5.188,5.188,0,0,0,.367,1.761c.279.338.1,1.6.1,1.6s.117.939,2.451,0a6.788,6.788,0,0,0,3.816-3.024c.059-.088-.206-.352,1.306-.9s5.842-4.022,5.5-5.724a1.441,1.441,0,0,0-1.024-1.22,1.765,1.765,0,0,0-1.354.181,11.33,11.33,0,0,1-1.262.583,6.163,6.163,0,0,1-1.8.43,6.774,6.774,0,0,0-1.4.269A2.962,2.962,0,0,1,155.894,249.6Z" transform="translate(-20.078 -13.458)"/><path class="n" d="M138.774,233.156a4.132,4.132,0,0,0-.849.979c-.856,1.3-1.367,3.125-1.948,3.91a7.532,7.532,0,0,0-.948,2.994,63.942,63.942,0,0,1-3.7,9.469,30.894,30.894,0,0,0-1.782,4.58,3.616,3.616,0,0,0-.532,2.54c.014.1.025.176.032.229s.018.092.018.092l-.018.032-1.018,1.73-3.237-.447-1.673-1.138a5.43,5.43,0,0,0,.363-.69,30.841,30.841,0,0,0,1.532-5.562,38.3,38.3,0,0,0,.835-5.02,38.091,38.091,0,0,1,.264-3.875s2.533-7.792,3.329-9.071a3.635,3.635,0,0,0,.613-1.673,1.324,1.324,0,0,0-.018-.363l1.1-1.089S140.183,232.036,138.774,233.156Z" transform="translate(-20.078 -13.458)"/><path class="k" d="M129.065,257.6s-.011.1-.018.261v.123l-1.018,1.73-3.237-.447-1.673-1.138a5.429,5.429,0,0,0,.363-.69,6.616,6.616,0,0,1,2.677.426s2.011.384,2.857-.233a.193.193,0,0,0,.049-.032Z" transform="translate(-20.078 -13.458)"/><path class="r" d="M128.272,262.219l-3.283.8-3.015-2.226.155-1.254a2.3,2.3,0,0,0,.553-.5,2,2,0,0,0,.437-.905c.176-.923,3.04.088,3.04.088s2.092.4,2.906-.264a5.127,5.127,0,0,0,.155,1.811,1.36,1.36,0,0,0,.483.722C130.541,261.053,128.272,262.219,128.272,262.219Z" transform="translate(-20.078 -13.458)"/><path class="k" d="M128.272,262.219l-3.283.8-3.015-2.226.155-1.254a2.3,2.3,0,0,0,.553-.5c.218,0,.458,0,.659.018.507.046,1.694,2.205,1.694,2.205,2.98.2,3.868-.775,4.185-1.494a1.36,1.36,0,0,0,.483.722C130.541,261.053,128.272,262.219,128.272,262.219Z" transform="translate(-20.078 -13.458)"/><path class="s" d="M125.035,261.6s-1.189-2.158-1.7-2.2a11.261,11.261,0,0,0-1.277,0s-1.321,3.126-1.805,3.413a6.085,6.085,0,0,0-1.189,1.761s3.488,3.369,6.863,2.73a6.97,6.97,0,0,1,3.089.771c1.563.815,8.08.2,8.873-1.233.594-1.073.83-1.854.307-2.426a1.4,1.4,0,0,0-1.225-.416,4.625,4.625,0,0,1-4.277-1.892,38.251,38.251,0,0,0-3.214-2.728C129.24,259.38,129.681,261.912,125.035,261.6Z" transform="translate(-20.078 -13.458)"/><path class="k" d="M150.705,227.186a.216.216,0,0,1-.025.028,11.157,11.157,0,0,1-2.071,1.909,20.475,20.475,0,0,0-2.114.937s-.881,1.177-1.585,1.233a2.736,2.736,0,0,0-.62.166c-.1-1.613-.2-2.97-.2-2.97l5.576-3.3.648,1.025a.013.013,0,0,0,0,.011c.148.416.313.8.366.919Z" transform="translate(-20.078 -13.458)"/><path class="r" d="M130.407,204.512a6.01,6.01,0,0,0,0,6.585,22.063,22.063,0,0,0,4.462,5.636l7.4,15.324a12.124,12.124,0,0,1,2.642-1.116c.7-.059,1.585-1.233,1.585-1.233a20.865,20.865,0,0,1,2.114-.939,11.587,11.587,0,0,0,2.1-1.937s-.805-1.761-.629-2.231-.528-1.644-.528-1.644a9.727,9.727,0,0,1-.47-1.82,4.94,4.94,0,0,0-.763-1.585,4.984,4.984,0,0,1-.763-1.82,17.283,17.283,0,0,0-1.116-3.17l-.294-11.155Z" transform="translate(-20.078 -13.458)"/><path class="q" d="M150.705,226.833a11.7,11.7,0,0,1-2.1,1.937,20.483,20.483,0,0,0-2.114.937s-.881,1.177-1.585,1.233a5.675,5.675,0,0,0-1.444.518c-.631.289-1.2.6-1.2.6l-7.4-15.324a16.141,16.141,0,0,1-1.8-1.842,25.29,25.29,0,0,1-2.667-3.794,6.352,6.352,0,0,1-.842-4.569,5.288,5.288,0,0,1,.842-2.015l5.263-.37,10.473-.736.088,3.3.2,7.856s.173.395.384.912a9.993,9.993,0,0,1,.733,2.258,4.98,4.98,0,0,0,.761,1.821,4.95,4.95,0,0,1,.764,1.585,9.792,9.792,0,0,0,.469,1.821s.7,1.173.528,1.642S150.705,226.833,150.705,226.833Z" transform="translate(-20.078 -13.458)"/><path class="k" d="M138.774,233.156a4.132,4.132,0,0,0-.849.979c-3.2.229-6.908-1.441-7.87-1.9a1.325,1.325,0,0,0-.018-.363l1.1-1.089S140.183,232.036,138.774,233.156Z" transform="translate(-20.078 -13.458)"/><path class="r" d="M148.2,207.987s-.469,1.642-.645,2.346-.528,4.171-.528,4.171l-.2.969-3.354,15.986-.729,3.477c-1.293.7-4.52-1.177-4.52-1.177-3.759.412-8.4-1.994-8.4-1.994a12.075,12.075,0,0,0,.588-3.7,2.825,2.825,0,0,1,1.057-2.233c-.292-1.113.761-5.989.761-5.989s.236-1.818,1.117-2.29-.116-1.173-.352-1.585a1.808,1.808,0,0,1,.085-1.078,8.388,8.388,0,0,1,.268-.8c-2.237-2.237-2.582-5.738-2.586-7.679a12.722,12.722,0,0,1,.063-1.42l4.851-.849,10.589-1.853,1.078,3.325v.007l.271.835Z" transform="translate(-20.078 -13.458)"/><path class="k" d="M147.2,163.072a6.089,6.089,0,0,0-.486,1.487c-.028.13-.056.268-.088.409a4.459,4.459,0,0,1-2.96.668c-.451,0-.7-.861-1.127-.95,0,0-.64-2.3-.823-.362-1.229-.254-2.29.707-3.161-.131l-.014-.014c.007-.113.011-.225.014-.338a13.969,13.969,0,0,0-.106-2.177s3.421-.021,6,.275C146.178,162.139,147.531,162.48,147.2,163.072Z" transform="translate(-20.078 -13.458)"/><path class="n" d="M149.623,159.12a6.543,6.543,0,0,1-7.859,6.408s0,0,0,0a6.541,6.541,0,1,1,7.863-6.408Z" transform="translate(-20.078 -13.458)"/><path class="k" d="M146.041,169.4c-.049.546-.074.895-.074.895s-10.512-.7-8.691-2.466a3.891,3.891,0,0,0,.962-1.747l4.558.747s1.289,1,2.29,1.937A4.021,4.021,0,0,0,146.041,169.4Z" transform="translate(-20.078 -13.458)"/><path class="k" d="M147.609,206.81a3.4,3.4,0,0,1-1.377-.106,2.514,2.514,0,0,1-.56-.247c-.881-.528-3.815.12-3.815.12s-7.986.528-8.338,0c-.2-.3-1.606-.257-2.762-.166-.469.039-.9.085-1.191.116a5.287,5.287,0,0,1,.842-2.015l5.263-.37,10.589-1.853,1.078,3.325v.007C147.461,206.3,147.609,206.81,147.609,206.81Z" transform="translate(-20.078 -13.458)"/><path class="p" d="M142.8,167.181l-5.731-.939a1.7,1.7,0,0,1-1.08.939,14.054,14.054,0,0,0-5.7,4.051l-1.527,2.114s-1.233,1.527-.822,2.759a46.732,46.732,0,0,1,.881,5.4l.587,4.638s1.116,3.347.763,4.814.176,7.633.176,7.633l-1.174,7.633s3.992-.528,4.345,0,8.337,0,8.337,0,2.936-.646,3.816-.117a3.178,3.178,0,0,0,1.937.352,8.677,8.677,0,0,1-.294-3.758,14.851,14.851,0,0,0,.294-3.816s.587-3.581.294-4.227.646-2.994.646-2.994l3.112-16.381s-.377-2.936-2.038-3.934-3.54-1.292-4.538-2.231S142.8,167.181,142.8,167.181Z" transform="translate(-20.078 -13.458)"/><path class="n" d="M145.438,183.327v1.938l1.811,4.873.654,4.521A22.509,22.509,0,0,1,149.078,199c0,1.116,2.877,6.517,2.877,6.517s.784,1.82.392,2.172-3.8,8.1.489,7.867,2.936-8.337,2.936-8.337l-.587-3.523s-.822-8.807-.822-9.453c0,0-1.057-3.758-1.174-4.58s-.881-4.991-.881-4.991l-.646-2.7Z" transform="translate(-20.078 -13.458)"/><path class="k" d="M123.319,175.975l-6.385,3.655-1.982,2.994,2.642-2.686Z"/><path class="k" d="M141.46,196.434s-2.906,1.893-4.271,1.893-4.535,3.259-4.535,3.259,4.491-2.9,4.844-2.816S141.46,196.434,141.46,196.434Z" transform="translate(-20.078 -13.458)"/><path class="k" d="M134.018,197.447s-2.73,2.466-2.026,2.73,4.359-2.73,4.359-2.73Z" transform="translate(-20.078 -13.458)"/><path class="k" d="M146.083,188.64s-2.114,2.862-1.541,2.818,2.2-1.673,2.2-1.673Z" transform="translate(-20.078 -13.458)"/><path class="k" d="M146.391,191.459s-2.29,2.6-2.2,3.258S146.391,191.459,146.391,191.459Z" transform="translate(-20.078 -13.458)"/><path class="k" d="M146.964,192.757s-1.541,2.752-.881,3.325S146.964,192.757,146.964,192.757Z" transform="translate(-20.078 -13.458)"/><path class="k" d="M144.982,185.69s-1.145,1.938-.308,2.07.92,0,.92,0Z" transform="translate(-20.078 -13.458)"/><path class="k" d="M145.291,178.6a20.3,20.3,0,0,1-1.173,3.456,15.875,15.875,0,0,1-.458-1.733,12.034,12.034,0,0,1,1.631-1.723Z" transform="translate(-20.078 -13.458)"/><path class="k" d="M148.785,155.918a2.851,2.851,0,0,1-.444.683,5.138,5.138,0,0,0-.8.912,4.957,4.957,0,0,0-.285,1.557c-.085.521-.416,1.1-.944,1.12a2.073,2.073,0,0,1-.775-.233.779.779,0,0,0-.771.025.853.853,0,0,0-.247.581,7.8,7.8,0,0,0-.078,1.374c0,.183.014.363.032.546a3.085,3.085,0,0,1-.106,1.747,2.1,2.1,0,0,1-1.085.87,6.4,6.4,0,0,1-1.522.426s0,0,0,0a16.708,16.708,0,0,1-3,.1.762.762,0,0,1-.268-.042.406.406,0,0,1-.116-.074,9.9,9.9,0,0,0,.18-1.67,6.541,6.541,0,1,1,10.23-7.923Z" transform="translate(-20.078 -13.458)"/><path class="t" d="M146.048,150.364a5.726,5.726,0,0,0-1.756.39c-1.219.269-2.465-.286-3.713-.281a6.856,6.856,0,0,0-3.051.911,7.338,7.338,0,0,0-2.038,1.426,3.315,3.315,0,0,0-.968,2.239,3.659,3.659,0,0,1-.044,1.441,4.642,4.642,0,0,1-.444.679,1.992,1.992,0,0,0-.208,1.68,5.421,5.421,0,0,0,1,1.5c.8,1.036,1.308,2.269,2.028,3.363a10.046,10.046,0,0,0,1.058,1.342.705.705,0,0,0,.226.181.73.73,0,0,0,.267.041,10.689,10.689,0,0,0,4.527-.526,2.1,2.1,0,0,0,1.085-.869,3.106,3.106,0,0,0,.106-1.749,8.165,8.165,0,0,1,.043-1.92.875.875,0,0,1,.247-.58.79.79,0,0,1,.774-.024,2.013,2.013,0,0,0,.772.231c.53-.018.862-.6.947-1.12a4.908,4.908,0,0,1,.286-1.556,5.025,5.025,0,0,1,.8-.911,3.738,3.738,0,0,0,.662-3.311A3.659,3.659,0,0,0,146.048,150.364Z" transform="translate(-20.078 -13.458)"/><circle class="m" cx="5.68" cy="5.68" r="5.68" transform="translate(150.973 143.786)"/><path class="m" d="M173.957,165.295s.4,5.379-.7,6.612a49.861,49.861,0,0,1-3.963,3.567l.881,3.655,4.976.572,5.812-6.209-1.321-1.629s-1.013-3.435-.176-5.152S173.957,165.295,173.957,165.295Z" transform="translate(-20.078 -13.458)"/><path class="k" d="M185.978,177.114v0l-.306.472-1.761-.486-1.233-4.615.074-1.339.363-.521s1.938.046,1.853,1.807A15.42,15.42,0,0,0,185.978,177.114Z" transform="translate(-20.078 -13.458)"/><path class="k" d="M189.807,202.6s-1.4.313-3,.521c-1.628.211-3.459.317-4.217-.127-1.275-.754-8.183-.539-10.167-.461-.141,0-.254.011-.342.014l.514-1.885h13.693l.169.81,1.945.113,1.113.247C189.694,202.29,189.807,202.6,189.807,202.6Z" transform="translate(-20.078 -13.458)"/><path class="u" d="M182.763,170.982s1.937.044,1.849,1.805a16.256,16.256,0,0,0,1.057,4.8l-.44,1.013s-.616,2.466-.132,3.082,2.246.616,1.233,5.68c0,0-.219,3.787.309,5.02s.528,4.183,1.32,5.416a29.531,29.531,0,0,1,1.849,4.1s-5.724,1.277-7.222.4-10.7-.44-10.7-.44.044-1.541,0-1.717a1.461,1.461,0,0,1,.22-1.123c.308-.418.793-1.123.528-1.739s.661-1.523.176-2.479-1.075-1.144-.956-1.667a2.248,2.248,0,0,0-.541-1.667c-.352-.441-2.73-5.094-2.73-5.094l-.4-2.172s-3.065-2.246-3.007-3.3a6.209,6.209,0,0,1,1.158-2.521l2.95-2.9s1.629,1.761,3.214,1.145,4.991-3.567,4.991-3.567,1.218-.66,1.306-1.145.837-.044.837-.044,1.1-.6,1.321-.39a3.8,3.8,0,0,0,1.189.39Z" transform="translate(-20.078 -13.458)"/><path class="m" d="M166.119,180.156l-.938.734a12.468,12.468,0,0,0-1.176,4.8,63.653,63.653,0,0,1-1.189,7.435l-1.849,3.309a84.01,84.01,0,0,0-3.435,8.078,21.086,21.086,0,0,1-2.2,4.56s-6.121,5.5-1.849,6.493,4.4-4.379,4.4-4.379a5.8,5.8,0,0,0,1.158-1.849c.163-.749,5.579-10.326,5.579-10.326s1.893-2.576,1.5-3.941c0,0,2.466-5.8,2.466-7.251a25.628,25.628,0,0,0-.4-3.625l.4-3.038Z" transform="translate(-20.078 -13.458)"/><path class="k" d="M178.8,192.295a43.8,43.8,0,0,1-5.152,2.378c-.837.119,3.655-.484,3.655-.484Z" transform="translate(-20.078 -13.458)"/><path class="k" d="M182.323,194.056s-5.724,1.938-8.234,1.585C174.089,195.641,180.341,196.83,182.323,194.056Z" transform="translate(-20.078 -13.458)"/><path class="k" d="M182.675,194.688s-5.153,3.243-8.191,2.715c0,0,7.09,1.409,8.191.661l-3.17-.881S183.028,195.32,182.675,194.688Z" transform="translate(-20.078 -13.458)"/><path class="k" d="M176.738,152.929a5.338,5.338,0,0,0-4.334.821c-.882.694-1.469,1.755-2.464,2.273a14.453,14.453,0,0,1-1.609.566,4.646,4.646,0,0,0-2.836,5c.156.872.564,1.679.766,2.541a9.93,9.93,0,0,1-.347,4.674,49.248,49.248,0,0,1-4.893,12.139,1.266,1.266,0,0,0-.242.814,1.145,1.145,0,0,0,.3.521c2.035,2.352,5.347,3.159,8.455,3.266a6.54,6.54,0,0,0,3.352-.556,5.077,5.077,0,0,0,1.634-1.5,7.959,7.959,0,0,0,1.515-5.116c-.084-1.475-.58-2.971-.207-4.4a1.175,1.175,0,0,1,.264-.539c.335-.342.892-.252,1.367-.307a3.014,3.014,0,0,0,2.28-2.806,31.545,31.545,0,0,0-.176-3.893,8.155,8.155,0,0,1,1.536-4.792,5.19,5.19,0,0,0,1.124-1.917,3.18,3.18,0,0,0-.821-2.345c-.721-1.141-1.075-2.476-2.175-3.346A5.866,5.866,0,0,0,176.738,152.929Z" transform="translate(-20.078 -13.458)"/><path class="v" d="M176.386,152.577a5.338,5.338,0,0,0-4.334.821c-.882.694-1.469,1.755-2.464,2.273a14.454,14.454,0,0,1-1.609.566,4.647,4.647,0,0,0-2.836,5c.156.872.564,1.679.766,2.541a9.931,9.931,0,0,1-.347,4.674,49.249,49.249,0,0,1-4.893,12.139,1.266,1.266,0,0,0-.242.814,1.146,1.146,0,0,0,.3.521c2.035,2.352,5.347,3.159,8.455,3.266a6.541,6.541,0,0,0,3.352-.556,5.077,5.077,0,0,0,1.634-1.5,7.959,7.959,0,0,0,1.515-5.116c-.084-1.475-.58-2.971-.207-4.4a1.175,1.175,0,0,1,.264-.539c.335-.342.892-.252,1.367-.307a3.014,3.014,0,0,0,2.28-2.806,31.548,31.548,0,0,0-.176-3.893,8.155,8.155,0,0,1,1.536-4.792,5.19,5.19,0,0,0,1.124-1.917,3.18,3.18,0,0,0-.821-2.345c-.721-1.141-1.075-2.476-2.175-3.346A5.865,5.865,0,0,0,176.386,152.577Z" transform="translate(-20.078 -13.458)"/><path class="k" d="M152.337,178.216a7.532,7.532,0,0,0,0,2.406c-.06.645,0,4.227,0,4.227-1.937-.588-6.869.588-6.869.588l-.588-1.761a4.342,4.342,0,0,1-.733-1.448,15.871,15.871,0,0,1-.458-1.733,36.05,36.05,0,0,1-.578-3.688c-.243-1.867,2.533-3.875,4.632-4.992s3.945,3.639,3.945,3.639A5.855,5.855,0,0,1,152.337,178.216Z" transform="translate(-20.078 -13.458)"/><path class="p" d="M152.337,177.864a7.532,7.532,0,0,0,0,2.406c-.06.645,0,4.227,0,4.227-1.937-.588-6.869.588-6.869.588l-.588-1.761a4.341,4.341,0,0,1-.733-1.448,15.876,15.876,0,0,1-.458-1.733,36.043,36.043,0,0,1-.578-3.688c-.243-1.867,2.533-3.875,4.632-4.992s3.945,3.639,3.945,3.639A5.856,5.856,0,0,1,152.337,177.864Z" transform="translate(-20.078 -13.458)"/><path class="k" d="M174.485,207.633s1.131,5.284,3.01,6.723Z" transform="translate(-20.078 -13.458)"/><path class="w" d="M148.61,152.939a4.055,4.055,0,0,0-.435-.943c.031.08.059.16.082.238a3.738,3.738,0,0,1-.662,3.311,5.024,5.024,0,0,0-.8.911,4.908,4.908,0,0,0-.286,1.556c-.085.524-.416,1.1-.947,1.12a2.013,2.013,0,0,1-.772-.231.79.79,0,0,0-.774.024.875.875,0,0,0-.247.58,8.167,8.167,0,0,0-.043,1.92,3.106,3.106,0,0,1-.106,1.749,2.1,2.1,0,0,1-1.085.869,10.69,10.69,0,0,1-4.527.526.73.73,0,0,1-.267-.041.7.7,0,0,1-.226-.181,10.047,10.047,0,0,1-1.058-1.342c-.721-1.094-1.226-2.328-2.028-3.363-.22-.284-.463-.557-.666-.852.006.019.009.039.016.057a5.421,5.421,0,0,0,1,1.5c.8,1.036,1.308,2.269,2.028,3.363a10.047,10.047,0,0,0,1.058,1.342.7.7,0,0,0,.226.181.73.73,0,0,0,.267.041,10.689,10.689,0,0,0,4.527-.526,2.1,2.1,0,0,0,1.085-.869,3.106,3.106,0,0,0,.106-1.749,8.168,8.168,0,0,1,.043-1.92.876.876,0,0,1,.247-.58.79.79,0,0,1,.774-.024,2.013,2.013,0,0,0,.772.231c.53-.018.862-.6.947-1.12a4.907,4.907,0,0,1,.286-1.556,5.023,5.023,0,0,1,.8-.911,3.738,3.738,0,0,0,.662-3.311Z" transform="translate(-20.078 -13.458)"/><g class="x"><path d="M165.477,162.421c-.059-.207-.128-.412-.2-.616C165.339,162.012,165.406,162.217,165.477,162.421Z" transform="translate(-20.078 -13.458)"/><path d="M181.542,157.809a1.854,1.854,0,0,1-.024.5,5.191,5.191,0,0,1-1.124,1.917,8.155,8.155,0,0,0-1.536,4.792,31.536,31.536,0,0,1,.176,3.893,3.014,3.014,0,0,1-2.28,2.806c-.476.055-1.032-.035-1.367.307a1.175,1.175,0,0,0-.264.539c-.373,1.43.123,2.925.207,4.4a7.959,7.959,0,0,1-1.515,5.116,5.077,5.077,0,0,1-1.634,1.5,6.541,6.541,0,0,1-3.352.556c-3.058-.1-6.309-.891-8.352-3.155a.812.812,0,0,0-.051.425,1.146,1.146,0,0,0,.3.521c2.035,2.352,5.347,3.159,8.455,3.266a6.541,6.541,0,0,0,3.352-.556,5.077,5.077,0,0,0,1.634-1.5,7.96,7.96,0,0,0,1.515-5.116c-.084-1.475-.58-2.971-.207-4.4a1.175,1.175,0,0,1,.264-.539c.335-.342.892-.252,1.367-.307a3.014,3.014,0,0,0,2.28-2.806,31.533,31.533,0,0,0-.176-3.893,8.155,8.155,0,0,1,1.536-4.792,5.19,5.19,0,0,0,1.124-1.917,2.192,2.192,0,0,0-.328-1.556Z" transform="translate(-20.078 -13.458)"/></g><path class="e" d="M63.474,252.72s-12.262,6.335-5.927,13.8a2.355,2.355,0,0,0,2.321,1.505s-.345-.627.972-1.129a6.373,6.373,0,0,0,1.323-.7,3.115,3.115,0,0,0,1.186-1.585h0s2.509-3.356.565-9.565A6.167,6.167,0,0,0,63.945,253l-1.49,2.042a4.171,4.171,0,0,1,1.717,2.552s-1.6-2.548-1.952-2.258c-.071.059-.741,1.117-.741,1.117s2.67,1.811,2.87,4.163c0,0-1.505-3.293-3.128-3.763l-.917,1.658s2.917,1.776,3.246,4.446c0,0-1.694-3.387-3.422-4.069l-.682,1.752s2.811,1.788,3.07,4.01c0,0-2.352-3.716-3.2-3.6a9.041,9.041,0,0,0-.459,2.152s1.988,1.329,2.023,2.634c0,0-1.835-2.317-2.117-2.164a9.737,9.737,0,0,0,.447,3.54,7.059,7.059,0,0,1-.811-3.54,3.887,3.887,0,0,0-1.176,1.893s-.529-1.282,1.211-2.458a9,9,0,0,1,.365-2.035,8.5,8.5,0,0,0-2.681,2.046s.294-1.682,2.846-2.517l.647-1.776a12.081,12.081,0,0,0-3.34,2.035s.566-1.669,3.54-2.47l.882-1.635a14.448,14.448,0,0,0-3.375,1.635s.859-1.435,3.646-2.093l.717-1.023s-1.646.588-2.105.8-.553.106-.553.106a5.945,5.945,0,0,1,2.952-1.341A14.466,14.466,0,0,0,63.474,252.72Z" transform="translate(-20.078 -13.458)"/><path class="e" d="M270.825,244.194s-12.262,6.335-5.927,13.8a2.355,2.355,0,0,0,2.321,1.505s-.345-.627.972-1.129a6.373,6.373,0,0,0,1.323-.7,3.115,3.115,0,0,0,1.186-1.585h0s2.509-3.356.565-9.565a6.168,6.168,0,0,0,.031-2.039l-1.49,2.042a4.172,4.172,0,0,1,1.717,2.552s-1.6-2.548-1.952-2.258c-.071.059-.741,1.117-.741,1.117s2.67,1.811,2.87,4.163c0,0-1.505-3.293-3.128-3.763l-.917,1.658s2.917,1.776,3.246,4.446c0,0-1.694-3.387-3.422-4.069l-.682,1.752s2.811,1.788,3.07,4.01c0,0-2.352-3.716-3.2-3.6a9.041,9.041,0,0,0-.459,2.152s1.988,1.329,2.023,2.634c0,0-1.835-2.317-2.117-2.164a9.738,9.738,0,0,0,.447,3.54,7.06,7.06,0,0,1-.811-3.54,3.886,3.886,0,0,0-1.176,1.893s-.529-1.282,1.211-2.458a9,9,0,0,1,.365-2.035,8.5,8.5,0,0,0-2.681,2.046s.294-1.682,2.846-2.517l.647-1.776a12.081,12.081,0,0,0-3.34,2.035s.566-1.669,3.54-2.47l.882-1.635a14.447,14.447,0,0,0-3.375,1.635s.859-1.435,3.646-2.093l.717-1.023s-1.646.588-2.105.8-.553.106-.553.106a5.945,5.945,0,0,1,2.952-1.341A14.493,14.493,0,0,0,270.825,244.194Z" transform="translate(-20.078 -13.458)"/><path class="e" d="M322.915,249.729s-12.262,6.335-5.927,13.8a2.355,2.355,0,0,0,2.321,1.505s-.345-.627.972-1.129a6.373,6.373,0,0,0,1.323-.7,3.115,3.115,0,0,0,1.186-1.585h0s2.509-3.356.565-9.565a6.167,6.167,0,0,0,.031-2.039l-1.49,2.042a4.171,4.171,0,0,1,1.717,2.552s-1.6-2.548-1.952-2.258c-.071.059-.741,1.117-.741,1.117s2.67,1.811,2.87,4.163c0,0-1.505-3.293-3.128-3.763l-.917,1.658s2.917,1.776,3.246,4.446c0,0-1.694-3.387-3.422-4.069l-.682,1.752s2.811,1.788,3.07,4.01c0,0-2.352-3.716-3.2-3.6a9.041,9.041,0,0,0-.459,2.152s1.988,1.329,2.023,2.634c0,0-1.835-2.317-2.117-2.164a9.738,9.738,0,0,0,.447,3.54,7.06,7.06,0,0,1-.811-3.54,3.886,3.886,0,0,0-1.176,1.893s-.529-1.282,1.211-2.458a9,9,0,0,1,.365-2.035,8.5,8.5,0,0,0-2.681,2.046s.294-1.682,2.846-2.517l.647-1.776a12.081,12.081,0,0,0-3.34,2.035s.566-1.669,3.54-2.47l.882-1.635a14.447,14.447,0,0,0-3.375,1.635s.859-1.435,3.646-2.093l.717-1.023s-1.646.588-2.105.8-.553.106-.553.106a5.945,5.945,0,0,1,2.952-1.341A14.469,14.469,0,0,0,322.915,249.729Z" transform="translate(-20.078 -13.458)"/><path class="d" d="M233.673,180.921,233,180.1c1.323-1.086,1.385-7.8.724-11.438a19.424,19.424,0,0,1-.214-6.62,9.122,9.122,0,0,1,4.375-6.761c4.98-2.933,7.966-10.98,8-11.061l.995.363c-.126.345-3.143,8.483-8.453,11.61-3.529,2.079-4.76,6.21-3.657,12.279C235.286,171.335,235.724,179.237,233.673,180.921Z" transform="translate(-20.078 -13.458)"/><path class="e" d="M261.319,140.261c3.246-7.966.458-16.633-6.227-19.357s-14.736,1.526-17.982,9.492c-3.152,7.735-.615,16.129,5.654,19.1a4.566,4.566,0,0,1-1.829,1.825c-1.358.634,3.055,1.245,3.055,1.245a7.719,7.719,0,0,1,.417-2.444C250.859,152.017,258.244,147.807,261.319,140.261Z" transform="translate(-20.078 -13.458)"/><path class="f" d="M238.4,137.792c.149-3.439,2.226-6.169,4.71-6.291-.107-.015-.216-.025-.325-.03-2.626-.114-4.881,2.7-5.036,6.292-.151,3.485,1.732,6.415,4.245,6.687C241.948,144.712,238.248,141.271,238.4,137.792Z" transform="translate(-20.078 -13.458)"/><path class="d" d="M274.115,234.843l-.672-.818c1.323-1.086,1.385-7.8.724-11.438a19.423,19.423,0,0,1-.214-6.62,9.122,9.122,0,0,1,4.375-6.761c4.98-2.933,7.966-10.98,8-11.061l.995.363c-.126.345-3.143,8.483-8.453,11.61-3.529,2.079-4.76,6.21-3.657,12.279C275.728,225.258,276.166,233.159,274.115,234.843Z" transform="translate(-20.078 -13.458)"/><path class="e" d="M301.76,194.184c3.246-7.966.458-16.633-6.227-19.357s-14.736,1.526-17.982,9.492c-3.152,7.735-.615,16.129,5.654,19.1a4.566,4.566,0,0,1-1.829,1.825c-1.358.634,3.055,1.245,3.055,1.245a7.72,7.72,0,0,1,.417-2.444C291.3,205.939,298.686,201.73,301.76,194.184Z" transform="translate(-20.078 -13.458)"/><path class="f" d="M278.841,191.714c.149-3.439,2.226-6.169,4.71-6.291-.107-.015-.216-.025-.325-.03-2.626-.114-4.881,2.7-5.036,6.292-.151,3.485,1.732,6.415,4.245,6.687C282.39,198.634,278.69,195.193,278.841,191.714Z" transform="translate(-20.078 -13.458)"/><path class="d" d="M212.3,130.615l-.672-.818c1.323-1.086,1.385-7.8.724-11.438a19.424,19.424,0,0,1-.214-6.62,9.122,9.122,0,0,1,4.375-6.761c4.98-2.933,7.966-10.98,8-11.061l.995.363c-.126.345-3.143,8.483-8.453,11.61-3.529,2.079-4.76,6.21-3.657,12.279C213.915,121.03,214.352,128.931,212.3,130.615Z" transform="translate(-20.078 -13.458)"/><path class="e" d="M239.947,89.956c3.246-7.966.458-16.633-6.227-19.357s-14.736,1.526-17.982,9.492c-3.152,7.735-.615,16.129,5.654,19.1a4.566,4.566,0,0,1-1.829,1.825c-1.358.634,3.055,1.245,3.055,1.245a7.72,7.72,0,0,1,.417-2.444C229.487,101.711,236.872,97.5,239.947,89.956Z" transform="translate(-20.078 -13.458)"/><path class="f" d="M217.027,87.486c.149-3.439,2.226-6.169,4.71-6.291-.107-.015-.216-.025-.325-.03-2.626-.114-4.881,2.7-5.036,6.292-.151,3.485,1.732,6.415,4.245,6.687C220.576,94.406,216.876,90.965,217.027,87.486Z" transform="translate(-20.078 -13.458)"/></g></g></svg>