<svg xmlns="http://www.w3.org/2000/svg" xmlns:xlink="http://www.w3.org/1999/xlink" width="363" height="269" viewBox="0 0 363 269"><defs><style>.a{fill:#fff;}.b{clip-path:url(#a);}.c,.d,.p,.q,.r{fill:#eec9d2;}.c,.l,.m{opacity:0.1;}.e{fill:url(#b);}.f{fill:#3f3d56;}.g{opacity:0.05;}.h{fill:#fbbebe;}.i{fill:#cb8c8e;}.j{fill:#f4f6fb;}.k{fill:#e3e8f4;}.n{fill:#00a66c;}.o{fill:#5f3839;}.p{opacity:0.5;}.q{opacity:0.2;}.r{opacity:0.3;}</style><clipPath id="a"><rect class="a" width="363" height="269" rx="45" transform="translate(68 1203)"/></clipPath><linearGradient id="b" x1="0.5" y1="1" x2="0.5" gradientUnits="objectBoundingBox"><stop offset="0" stop-color="gray" stop-opacity="0.251"/><stop offset="0.54" stop-color="gray" stop-opacity="0.122"/><stop offset="1" stop-color="gray" stop-opacity="0.102"/></linearGradient></defs><g class="b" transform="translate(-68 -1203)"><g transform="translate(68.006 1225.93)"><path class="c" d="M227.1,186.113c7.012-.4,15.713-5.159,22.478-7.26q12.01-3.731,24.115-7.171,42.128-11.984,85.177-20.434,4.017-.787,8.047-1.542a57,57,0,0,0-18.8-22.582,57.7,57.7,0,0,0,.317-5.956c0-31.457-25.14-56.959-56.162-56.959a55.3,55.3,0,0,0-27.256,7.152c-21.957-14.444-50.616-23.185-81.972-23.185-44.556,0-83.669,17.655-105.833,44.232l104.183,17.6,63.886,10.788c-72.83,2.174-145.886,4.334-218.507-.768a57.565,57.565,0,0,0-8.288,72.662h0c0,1.139.048,2.266.133,3.386,1.85.533,3.636,1.044,5.239,1.383q38.587,8.148,77.669,13.644c-19.2,11.839-42.582,13.511-64.73,18.524,10.725,8.853,25.289,14.3,41.338,14.3H317.086c25.876,0,46.85-18.016,46.85-40.24h0a57.158,57.158,0,0,0,7.615-20.9C323.67,187.389,275.193,183.375,227.1,186.113Z" transform="translate(-8.884 -31.216)"/><path class="c" d="M371.878,173.3a57.114,57.114,0,0,0-24.115-46.777,58.673,58.673,0,0,0,.317-5.956c0-31.46-25.143-56.959-56.162-56.959a55.268,55.268,0,0,0-27.263,7.149C242.7,56.315,214.039,47.573,182.683,47.573c-51.019,0-94.9,23.144-114.375,56.337-1.082-.063-2.17-.1-3.268-.1-31.013,0-56.162,25.5-56.162,56.956a57.273,57.273,0,0,0,9.24,31.308h0c0,28.3,26.714,51.247,59.653,51.247H316.743c25.873,0,46.846-18.013,46.846-40.237h0a57.3,57.3,0,0,0,8.288-29.785Z" transform="translate(-8.884 -31.216)"/><path class="c" d="M273.27,31.216s-23.8,12.235-11.55,26.736a4.556,4.556,0,0,0,4.493,2.929s-.666-1.218,1.9-2.186a12.348,12.348,0,0,0,2.567-1.361,6.029,6.029,0,0,0,2.307-3.068h0s4.88-6.5,1.133-18.546c0,0,.495-3.4.07-3.954l-2.9,3.954s2.983,2.015,3.319,4.956c0,0-3.1-4.947-3.776-4.385-.136.114-1.441,2.164-1.441,2.164s5.169,3.522,5.546,8.085c0,0-2.906-6.394-6.051-7.3L267.1,42.452s5.648,3.455,6.276,8.634c0,0-3.268-6.574-6.619-7.9l-1.329,3.4s5.442,3.49,5.937,7.79c0,0-4.547-7.219-6.191-6.981a17.627,17.627,0,0,0-.9,4.173s3.849,2.586,3.912,5.115c0,0-3.547-4.5-4.1-4.2,0,0-.238,4.515.854,6.866a13.709,13.709,0,0,1-1.561-6.866,7.51,7.51,0,0,0-2.288,3.665s-1.022-2.488,2.361-4.76c0,0,.317-3.513.714-3.944,0,0-3.652,1.771-5.207,3.957,0,0,.578-3.259,5.527-4.867l1.269-3.443s-4.953,2.088-6.486,3.931c0,0,1.1-3.233,6.876-4.76l1.717-3.173a28.049,28.049,0,0,0-6.552,3.154s1.669-2.78,7.079-4.042l1.393-1.983s-3.2,1.133-4.084,1.542-1.072.2-1.072.2a11.544,11.544,0,0,1,5.705-2.618S273.489,31.429,273.27,31.216Z" transform="translate(-8.884 -31.216)"/><path class="c" d="M241.7,46.1s1.853,11.95,9.817,8.764a2.077,2.077,0,0,0,1.9-1.51s-.619.111-.67-1.123a5.592,5.592,0,0,0-.216-1.295,2.722,2.722,0,0,0-.99-1.425h0s-2.088-3.018-7.79-3.129c0,0-1.39-.7-1.685-.593l1.269,1.805a3.652,3.652,0,0,1,2.6-.717s-2.564.635-2.418.993c.029.076.72.927.72.927s2.25-1.713,4.258-1.228c0,0-3.154.336-4,1.555l1.123,1.222s2.288-1.929,4.6-1.46c0,0-3.287.466-4.334,1.713l1.269,1.053s2.269-1.84,4.188-1.437c0,0-3.744.923-3.881,1.659a7.854,7.854,0,0,0,1.659.977s1.656-1.269,2.751-.952c0,0-2.434.879-2.386,1.155a8.571,8.571,0,0,0,3.065.616,6.181,6.181,0,0,1-3.173-.317,3.414,3.414,0,0,0,1.247,1.5s-1.212.083-1.7-1.691a7.491,7.491,0,0,1-1.587-.869,7.469,7.469,0,0,0,.952,2.8s-1.317-.714-1.3-3.065L245.7,51a10.532,10.532,0,0,0,.762,3.341s-1.231-.936-1.069-3.63l-1.114-1.187a12.394,12.394,0,0,0,.422,3.259,5.027,5.027,0,0,1-.727-3.611l-.635-.879s.032,1.529.079,1.97-.067.489-.067.489a5.2,5.2,0,0,1-.292-2.824A12.6,12.6,0,0,0,241.7,46.1Z" transform="translate(-8.884 -31.216)"/><path class="c" d="M289.963,51.378s-11.826-2.513-11.689,6.054a2.063,2.063,0,0,0,.733,2.31s.117-.619,1.288-.225a5.512,5.512,0,0,0,1.285.257,2.735,2.735,0,0,0,1.685-.412h0s3.566-.879,5.711-6.168c0,0,1.149-1.05,1.155-1.361l-2.145.555a3.648,3.648,0,0,1-.254,2.681s.317-2.618-.067-2.615c-.082,0-1.123.346-1.123.346s.8,2.71-.371,4.417c0,0,.812-3.068-.029-4.29l-1.542.612s.99,2.824-.273,4.817c0,0,.736-3.236-.054-4.658l-1.437.809s.911,2.77-.149,4.42c0,0,.473-3.823-.168-4.214a8.11,8.11,0,0,0-1.507,1.2s.609,2.005-.092,2.91c0,0,.044-2.589-.232-2.643a8.526,8.526,0,0,0-1.666,2.646,6.187,6.187,0,0,1,1.418-2.856,3.417,3.417,0,0,0-1.85.635s.355-1.161,2.189-.99a7.9,7.9,0,0,1,1.377-1.177,7.442,7.442,0,0,0-2.954-.1s1.133-.974,3.325-.121l1.425-.844a10.6,10.6,0,0,0-3.392-.479s1.31-.815,3.77.3l1.507-.635a12.672,12.672,0,0,0-3.2-.768,5.017,5.017,0,0,1,3.633.609l1.053-.3s-1.441-.517-1.869-.635-.435-.235-.435-.235a5.194,5.194,0,0,1,2.745.733A12.65,12.65,0,0,0,289.963,51.378Z" transform="translate(-8.884 -31.216)"/><ellipse class="d" cx="12.759" cy="2.158" rx="12.759" ry="2.158" transform="translate(200.528 208.137)"/><path class="d" d="M227.448,237.976a3.694,3.694,0,0,0,1.215-1.837,1.63,1.63,0,0,0-.85-1.869c-.781-.3-1.615.244-2.247.79a3.01,3.01,0,0,1-2.183,1.053A3.332,3.332,0,0,0,224.412,233a1.307,1.307,0,0,0-.286-.635c-.435-.463-1.218-.267-1.739.1-1.65,1.161-2.11,3.4-2.12,5.42a10.187,10.187,0,0,1-.029-2.221,2.288,2.288,0,0,0-.841-1.977,2.51,2.51,0,0,0-1.269-.3,2.633,2.633,0,0,0-2.072.587,2.045,2.045,0,0,0,.079,2.538,8.142,8.142,0,0,0,2.148,1.72,4.759,4.759,0,0,1,1.533,1.463,1.319,1.319,0,0,1,.114.263h4.652a12.936,12.936,0,0,0,2.865-1.983Z" transform="translate(-8.884 -31.216)"/><ellipse class="d" cx="12.759" cy="2.158" rx="12.759" ry="2.158" transform="translate(230.037 214.829)"/><path class="d" d="M256.957,244.675a3.694,3.694,0,0,0,1.215-1.837,1.628,1.628,0,0,0-.85-1.869,2.383,2.383,0,0,0-2.247.79,3,3,0,0,1-2.183,1.053,3.332,3.332,0,0,0,1.028-3.113,1.294,1.294,0,0,0-.286-.635c-.435-.463-1.218-.267-1.739.1-1.65,1.161-2.11,3.4-2.12,5.42a10.186,10.186,0,0,1-.029-2.221,2.288,2.288,0,0,0-.841-1.977,2.51,2.51,0,0,0-1.269-.3,2.633,2.633,0,0,0-2.072.587,2.045,2.045,0,0,0,.079,2.538,8.206,8.206,0,0,0,2.148,1.72,4.76,4.76,0,0,1,1.533,1.463,1.321,1.321,0,0,1,.114.263h4.652A13.044,13.044,0,0,0,256.957,244.675Z" transform="translate(-8.884 -31.216)"/><ellipse class="d" cx="12.759" cy="2.158" rx="12.759" ry="2.158" transform="translate(44.416 212.449)"/><path class="d" d="M71.336,242.295a3.693,3.693,0,0,0,1.215-1.837,1.63,1.63,0,0,0-.85-1.869c-.781-.3-1.615.244-2.246.79a3,3,0,0,1-2.183,1.053A3.332,3.332,0,0,0,68.3,237.32a1.307,1.307,0,0,0-.286-.635c-.435-.463-1.218-.267-1.739.1-1.65,1.161-2.11,3.4-2.12,5.42a10.187,10.187,0,0,1-.029-2.221A2.288,2.288,0,0,0,63.286,238a2.51,2.51,0,0,0-1.269-.3,2.635,2.635,0,0,0-2.072.59,2.045,2.045,0,0,0,.079,2.538,8.079,8.079,0,0,0,2.148,1.72,4.76,4.76,0,0,1,1.533,1.463,1.32,1.32,0,0,1,.114.263h4.652a12.936,12.936,0,0,0,2.865-1.986Z" transform="translate(-8.884 -31.216)"/><path class="e" d="M187.186,240.953a.779.779,0,0,0,0-.086,2.538,2.538,0,0,0-.225-1.177c-.514-1.041-1.752-1.212-2.8-1.393a13.818,13.818,0,0,1-4.883-1.837,3.934,3.934,0,0,1-2.135-2.751c0-.257.019-.514,0-.749v-.5c0-.67-.038-1.285-.536-1.406a9.651,9.651,0,0,1-6.574-6.486c-.219-.685-.371-1.4-.654-2.056-.9-2.081-2.9-3.211-4.407-4.785A18.7,18.7,0,0,1,161,209.882c-.834-2.891-1.412-5.883-2.507-8.666-1.824-4.642-3.471-9.586-6.565-13.295-.466-.562-.98-1.136-1.523-1.717-2.751-4.017-4.62-8.767-7-13.1a13.118,13.118,0,0,0-1.653-2.484,20.916,20.916,0,0,0-2.8-2.313c-4.585-3.579-7.517-9.2-11.467-13.622a17.941,17.941,0,0,1-2.269-2.786,8.885,8.885,0,0,1,.14-1.618c.254-1.317.936-2.567.819-3.909a5.493,5.493,0,0,1-.067-.79,2.856,2.856,0,0,1,.241-.882,8.726,8.726,0,0,1,.806-1.732,7.371,7.371,0,0,0,1.111-2.922c.79-.749,1.133-2.12,2.12-2.465.549-.19,1.269-.06,1.587-.6a1.453,1.453,0,0,0,.149-.6,9.085,9.085,0,0,0-.27-3.192,7.85,7.85,0,0,0,.063-1.659,9.982,9.982,0,0,0-1.158-3.944,3.008,3.008,0,0,0-1.736-1.713c-.171-.038-.346-.048-.511-.1-1.009-.3-1.358-1.853-2.269-2.335,1.171.635,2.367,1.352,3.468.819,1.383-.676,1.5-2.783,1.393-4.464l-.368-6.229c-.2-3.173-.444-6.54-2.078-9.154a11.98,11.98,0,0,0-6.346-4.664,7.546,7.546,0,0,0-5.137-.371c.1-.07.194-.14.289-.2a4.62,4.62,0,0,0-.593.222,11.061,11.061,0,0,0-2.386,1.637,8.611,8.611,0,0,0,.6-3.173,8.434,8.434,0,0,0-1.326-4.588l1.859-1.564L115.177,91l.819-.781a.574.574,0,0,0-.489-.273.69.69,0,0,0-.114,0,1.694,1.694,0,0,0-.057-.695l-.057.054a2.094,2.094,0,0,0-.228-.552h.067a2.034,2.034,0,0,0-.13-.206v.1a4.585,4.585,0,0,0-.971-1.038,8.9,8.9,0,0,0-4.81-2.266c-.857-.063-1.717.073-2.573,0-1.155-.079-2.275-.517-3.433-.565a2.945,2.945,0,0,0-2.941,1.587c-.206.508-.235,1.079-.39,1.6a7.775,7.775,0,0,1-2.053,2.84,4.016,4.016,0,0,0-1.295,3.227,4.638,4.638,0,0,0,.4,1.1l4.02,8.681a17.021,17.021,0,0,1-.057,1.9q-.038.409-.1.828c-.019.117-.041.238-.07.359a2.008,2.008,0,0,0-1.212.7,1,1,0,0,0-.209.5,4.531,4.531,0,0,0,.152.86,2.221,2.221,0,0,1-.257,1.076,8.349,8.349,0,0,1-1.517,2.589c-.279.289-.6.53-.879.815a8.742,8.742,0,0,0-.879,1.1,7.456,7.456,0,0,0-1.409,2.716c-.355,1.682-1.072,3.281-1.587,4.921a1.678,1.678,0,0,1-.27.362c-.317.3-.723.425-1.034.717-.7.66-.635,1.866-.463,2.872.616,3.738,1.694,7.377,2.123,11.147a41.066,41.066,0,0,0,.571,4.426,5.394,5.394,0,0,0,.682,1.764,12.612,12.612,0,0,1-.406,4.163c-.235.59-.562,1.13-.847,1.694a24.873,24.873,0,0,0-1.05,2.5l-1.723,4.537c-.317.86-.654,1.726-.9,2.621a26.982,26.982,0,0,0-.616,8.107.349.349,0,0,1-.051.241c-.051.063-.171.044-.175-.041-.022.159-.111.428-.13.584a4.483,4.483,0,0,0,2.488.162v.251a.4.4,0,0,0,0,.06,5.339,5.339,0,0,0,.079.771v.019c.022.13.051.257.079.384a.153.153,0,0,0,.025.1c.029.114.06.232.1.343.019.06.035.114.054.171s.048.14.073.206.029.086.044.127c.209.546.46,1.072.7,1.606a8.567,8.567,0,0,1,.809,2.621c.019.209.025.419.035.635v.219a6.007,6.007,0,0,0,.057.676c.057.362.165.708.251,1.063.051.209.089.425.127.635s.073.485.1.727q.359,2.691.53,5.394c.029.435.054.873.076,1.307.149,3.173.111,6.346.073,9.538A19.12,19.12,0,0,1,94,198c-.53,3-1.625,5.924-2.348,8.907-.076.317-.146.635-.213.952a12.772,12.772,0,0,0-.317,2.047,14.469,14.469,0,0,0,.247,2.741q.235,1.647.362,3.309a9.272,9.272,0,0,0-1.123,3.344c-.384,3.532-3.376,6.181-3.782,9.713a4.361,4.361,0,0,0-.029.676,3.363,3.363,0,0,0,0,.438,2.856,2.856,0,0,0,.1,1.117,2.221,2.221,0,0,0,1.85,1.393,8.06,8.06,0,0,0,2.329-.228c.349-.06.7-.1,1.047-.133a2.294,2.294,0,0,1,0,.362,6.239,6.239,0,0,0-.419.92,3.252,3.252,0,0,0-.359,1.2,2.659,2.659,0,0,0,.359,1.409,4.694,4.694,0,0,0,3.83,2.221A32.442,32.442,0,0,0,100,238.1h.254a2.763,2.763,0,0,0,.187.406,4.689,4.689,0,0,0,3.827,2.221,32.509,32.509,0,0,0,4.468-.276c.444-.022.892-.022,1.336-.054a13.01,13.01,0,0,0,2.691-.492,15.6,15.6,0,0,0,2.161,2.472c2.615,2.221,6.229,2.094,9.5,1.659s6.952-1.241,9.932.317c2.285-.251,3.646,3.376,5.94,3.468a3.875,3.875,0,0,0,2.761-1.51,2.8,2.8,0,0,1,.984-.806,1.935,1.935,0,0,1,.98-.032,7.355,7.355,0,0,1,4.487,2.71c.577.723,1.168,1.634,2.034,1.653.777,0,1.466-.733,2.237-.635a4.1,4.1,0,0,1,1.406.793c1.422.841,3.173.063,4.537-.863s2.824-2.047,4.423-1.878a10.517,10.517,0,0,1,2.929,1.177,7.57,7.57,0,0,0,8.78-2.335c.34-.425.689-.917,1.19-1.028a1.866,1.866,0,0,1,.984.146,10.5,10.5,0,0,0,5.512.739,4.573,4.573,0,0,0,3.617-4.153,3.054,3.054,0,0,0-.016-.381c0-.079.016-.162.016-.244A1.761,1.761,0,0,0,187.186,240.953ZM115.158,121.736a1.875,1.875,0,0,1-.635.838c-.025-.136-.051-.273-.079-.412-.114-.59-.244-1.177-.384-1.761a6.749,6.749,0,0,0,1.349.666c-.092.222-.168.46-.26.67Zm-4.652-14.323v.067a2.3,2.3,0,0,0,.952,2.12,8.567,8.567,0,0,0-.952,3.954,6.711,6.711,0,0,1-.635-.5,4.284,4.284,0,0,1-.835-1.228.425.425,0,0,0,.267-.041c.162-.111.155-.371.133-.581a12.467,12.467,0,0,1,.784-5.873,6.385,6.385,0,0,0,1.069-.492,5.264,5.264,0,0,0-.777,2.538.108.108,0,0,0-.016.041Zm15.529,15.925a8.018,8.018,0,0,0-.27,1.885,4.81,4.81,0,0,0-2.415-1.9,3.408,3.408,0,0,0-.355-.086,2.064,2.064,0,0,1,.238-.2c.911-.635,1.936-.19,2.983.365a1.53,1.53,0,0,0-.19-.057Z" transform="translate(-8.884 -31.216)"/><path class="f" d="M88.337,238.481a2.5,2.5,0,0,0,.409,1.434,5.474,5.474,0,0,0,4.353,2.256,41.89,41.89,0,0,0,5.077-.282c.508-.022,1.015-.025,1.52-.054a26.843,26.843,0,0,0,7.615-2.009c.406-.149.879-.39.9-.819a1.006,1.006,0,0,0-.419-.749,4.3,4.3,0,0,0-1.082-.692c-1.377-.606-3.027-.447-4.334-1.193-.289-.165-.552-.368-.854-.5a3.636,3.636,0,0,0-1.1-.254,16.883,16.883,0,0,0-4.912.162,34.349,34.349,0,0,1-3.7.679,4.731,4.731,0,0,1-1.418-.092c-.317-.073-.72-.359-1.022-.168s-.47.8-.612,1.066A3.1,3.1,0,0,0,88.337,238.481Z" transform="translate(-8.884 -31.216)"/><path class="g" d="M88.337,238.481a2.5,2.5,0,0,0,.409,1.434,5.474,5.474,0,0,0,4.353,2.256,41.89,41.89,0,0,0,5.077-.282c.508-.022,1.015-.025,1.52-.054a26.843,26.843,0,0,0,7.615-2.009c.406-.149.879-.39.9-.819a1.006,1.006,0,0,0-.419-.749,4.3,4.3,0,0,0-1.082-.692c-1.377-.606-3.027-.447-4.334-1.193-.289-.165-.552-.368-.854-.5a3.636,3.636,0,0,0-1.1-.254,16.883,16.883,0,0,0-4.912.162,34.349,34.349,0,0,1-3.7.679,4.731,4.731,0,0,1-1.418-.092c-.317-.073-.72-.359-1.022-.168s-.47.8-.612,1.066A3.1,3.1,0,0,0,88.337,238.481Z" transform="translate(-8.884 -31.216)"/><path class="f" d="M98.275,240.861a2.475,2.475,0,0,0,.409,1.434,5.469,5.469,0,0,0,4.353,2.256,41.854,41.854,0,0,0,5.077-.282c.508-.022,1.012-.025,1.52-.054a26.844,26.844,0,0,0,7.615-2.009c.406-.152.879-.39.9-.822a1,1,0,0,0-.419-.746,4.217,4.217,0,0,0-1.082-.692c-1.377-.606-3.027-.451-4.334-1.2-.289-.162-.552-.368-.854-.5a3.735,3.735,0,0,0-1.1-.257,16.884,16.884,0,0,0-4.912.165,33.577,33.577,0,0,1-3.7.676,4.622,4.622,0,0,1-1.418-.089c-.317-.073-.72-.359-1.022-.168s-.473.8-.612,1.066a3.049,3.049,0,0,0-.416,1.218Z" transform="translate(-8.884 -31.216)"/><path class="h" d="M93.084,122.082a1.666,1.666,0,0,0-.6-.793c-.663-.368-1.447.317-1.736,1.006s-.384,1.533-.952,2.031c-.346.317-.822.432-1.177.73-.793.67-.714,1.9-.527,2.919.7,3.808,1.929,7.507,2.418,11.344a40.193,40.193,0,0,0,.635,4.506,4.25,4.25,0,0,0,1.269,2.316,1.933,1.933,0,0,0,2.459.086,28.2,28.2,0,0,1-1.742-10.011c.019-2.221.317-4.442.378-6.689.067-1.961-.032-3.925-.13-5.886a3.659,3.659,0,0,0-.279-1.469,1.269,1.269,0,0,0-1.2-.752" transform="translate(-8.884 -31.216)"/><circle class="i" cx="7.986" cy="7.986" r="7.986" transform="translate(90.46 59.957)"/><circle class="h" cx="8.012" cy="8.012" r="8.012" transform="translate(101.197 75.93)"/><path class="h" d="M121.39,122.916c.07.635.317,1.374.923,1.536a6.79,6.79,0,0,0,.847.048,1.444,1.444,0,0,1,1.044.806,2.586,2.586,0,0,1,.219,1.342,4.226,4.226,0,0,1-.654,1.961,5.632,5.632,0,0,1-2.938,2.151,15.84,15.84,0,0,1-3.636.67,4.347,4.347,0,0,1-1.647-.051,3.49,3.49,0,0,1-.952-.482,9.4,9.4,0,0,1-2.339-2.24,5.616,5.616,0,0,1-1.006-2.059,3.1,3.1,0,0,1,.3-2.221,1.1,1.1,0,0,1,.533-.5c.679-.244,1.295.6,2.015.616a1.556,1.556,0,0,0,1.269-1,6.768,6.768,0,0,1,.746-1.529,3.293,3.293,0,0,1,1.745-.907,10.921,10.921,0,0,1,3.554-.584c.606.06.209.422.07.86A3.858,3.858,0,0,0,121.39,122.916Z" transform="translate(-8.884 -31.216)"/><path class="j" d="M113.838,131.277c.974-.438,1.514-1.494,2.383-2.12a11.169,11.169,0,0,1,2.475-1.044,7.218,7.218,0,0,0,2.285-1.46,6.214,6.214,0,0,1,1.9-1.548,2.964,2.964,0,0,1,1.8,0,6.08,6.08,0,0,1,3.649,3.367,18.1,18.1,0,0,1,1.295,4.937l.412,2.538a23.318,23.318,0,0,1,.441,4.709,7.838,7.838,0,0,1-1.441,4.442,8.671,8.671,0,0,0-.917,1.761,2.687,2.687,0,0,0-.27.9,4.939,4.939,0,0,0,.073.8c.133,1.364-.635,2.637-.933,3.976a11.449,11.449,0,0,0-.14,2.719.666.666,0,0,0,.07.343.635.635,0,0,0,.27.216c.209.111.425.216.635.317a23.77,23.77,0,0,1-5.334.565c-3.144-.073-6.213-.952-9.338-1.317a29.579,29.579,0,0,1,.365-4.252,17.227,17.227,0,0,0-.175-2.8,33.951,33.951,0,0,1,.073-7.615c.108-.888.254-1.774.3-2.669.048-1.06-.048-2.123.029-3.173.073-1.006.317-2,.343-3.011A.52.52,0,0,0,113.838,131.277Z" transform="translate(-8.884 -31.216)"/><path class="k" d="M117.379,153.825c3.287.019,6.184.114,9.462.34.577.952-.806,3.519-.022,4.306,4.493,4.5,5.492,10.553,10.709,14.2,1.082.755,4.125,1.368,5.077,2.3.746.739-.393.213.159,1.111,3.173,5.178,10.328,10.29,14.475,14.742,3.516,3.773,5.394,8.805,7.469,13.53a91.575,91.575,0,0,1,2.856,8.818,18.385,18.385,0,0,0,4.522,7.977c1.72,1.606,3.995,2.754,5.013,4.871a20.272,20.272,0,0,1,.746,2.094,10.471,10.471,0,0,0,7.482,6.6c.923.2.5,1.742.6,2.684.13,1.288,1.295,2.2,2.431,2.821a17.03,17.03,0,0,0,5.55,1.869c1.193.181,2.6.359,3.173,1.415a2.37,2.37,0,0,1,.257,1.2c-.041,2.126-2.031,3.808-4.125,4.226a13.167,13.167,0,0,1-6.27-.752,2.357,2.357,0,0,0-1.12-.149,2.788,2.788,0,0,0-1.355,1.047,9.249,9.249,0,0,1-9.985,2.377,12.83,12.83,0,0,0-3.332-1.2c-1.821-.171-3.468.971-5.036,1.9s-3.547,1.732-5.163.876a5.138,5.138,0,0,0-1.587-.806c-.879-.1-1.663.66-2.538.635-.984-.019-1.659-.952-2.316-1.682a8.586,8.586,0,0,0-5.109-2.726,2.4,2.4,0,0,0-1.114.032,3.135,3.135,0,0,0-1.12.819,4.528,4.528,0,0,1-3.138,1.536c-2.611-.092-4.163-3.782-6.762-3.528-3.389-1.587-7.584-.768-11.3-.317s-7.831.581-10.807-1.688c-1.567-1.2-2.63-2.941-4.093-4.271-2.31-2.1-5.426-3.018-8.431-3.874-4.76-1.358-9.7-2.729-14.6-1.989a10.863,10.863,0,0,1-2.653.232,2.457,2.457,0,0,1-2.1-1.415,2.77,2.77,0,0,1-.089-1.32c.46-3.592,3.865-6.289,4.3-9.884a11.063,11.063,0,0,1,2.2-4.82,41.566,41.566,0,0,0,2.377-4.1,85.548,85.548,0,0,0,4.664-9.7,84.048,84.048,0,0,0,3.059-10.887c.825-3.544,1.218-7.174,1.812-10.766.432-2.611,1.107-5.175,1.783-7.736,2-7.564,4.011-15.173,7.3-22.268A26.382,26.382,0,0,0,117.379,153.825Z" transform="translate(-8.884 -31.216)"/><path class="k" d="M117.379,154.777c3.287.019,6.184-.2,9.462.022a18.49,18.49,0,0,0,2.583,2.834c4.493,4.509,7.831,10.22,13.044,13.863a22.83,22.83,0,0,1,3.173,2.354,13.205,13.205,0,0,1,1.882,2.538c3.173,5.182,5.556,10.947,9.7,15.4,3.516,3.773,5.394,8.805,7.469,13.53a91.579,91.579,0,0,1,2.856,8.818,18.385,18.385,0,0,0,4.522,7.977c1.72,1.606,3.995,2.754,5.013,4.871a20.275,20.275,0,0,1,.746,2.094,10.471,10.471,0,0,0,7.482,6.6c.923.2.5,1.742.6,2.684.13,1.288,1.295,2.2,2.431,2.821a17.029,17.029,0,0,0,5.55,1.869c1.193.181,2.6.359,3.173,1.415a2.37,2.37,0,0,1,.257,1.2c-.041,2.126-2.031,3.808-4.125,4.226a13.167,13.167,0,0,1-6.27-.752,2.357,2.357,0,0,0-1.12-.149,2.788,2.788,0,0,0-1.355,1.047,9.249,9.249,0,0,1-9.985,2.377,12.83,12.83,0,0,0-3.332-1.2c-1.821-.171-3.468.971-5.036,1.9s-3.547,1.732-5.162.876a5.138,5.138,0,0,0-1.587-.806c-.879-.1-1.663.66-2.538.635-.984-.019-1.66-.952-2.316-1.682a8.586,8.586,0,0,0-5.1-2.738,2.4,2.4,0,0,0-1.114.032,3.135,3.135,0,0,0-1.12.819,4.528,4.528,0,0,1-3.138,1.536c-2.611-.092-4.163-3.782-6.762-3.528-3.389-1.587-7.584-.768-11.3-.317s-7.831.581-10.807-1.688c-1.567-1.2-2.63-2.941-4.093-4.271-2.31-2.1-5.426-3.018-8.431-3.874-4.76-1.358-9.7-2.729-14.6-1.989a10.862,10.862,0,0,1-2.653.232,2.457,2.457,0,0,1-2.1-1.415,2.77,2.77,0,0,1-.089-1.32c.46-3.592,3.865-6.289,4.3-9.884a11.063,11.063,0,0,1,2.2-4.82,41.564,41.564,0,0,0,2.377-4.1,85.55,85.55,0,0,0,4.664-9.7,84.048,84.048,0,0,0,3.059-10.887c.825-3.544,1.218-7.174,1.812-10.766.432-2.611,1.107-5.175,1.783-7.736,2-7.564,4.011-15.173,7.3-22.268A26.382,26.382,0,0,0,117.379,154.777Z" transform="translate(-8.884 -31.216)"/><path class="j" d="M117.379,154.142c3.287.019,6.184-.2,9.462.022A18.491,18.491,0,0,0,129.424,157c4.493,4.509,7.831,10.22,13.044,13.863a22.831,22.831,0,0,1,3.173,2.354,13.206,13.206,0,0,1,1.882,2.538c3.173,5.182,5.556,10.947,9.7,15.4,3.516,3.773,5.394,8.805,7.469,13.53a91.579,91.579,0,0,1,2.856,8.818,18.385,18.385,0,0,0,4.522,7.977c1.72,1.606,3.995,2.754,5.013,4.871a20.277,20.277,0,0,1,.746,2.094,10.471,10.471,0,0,0,7.482,6.6c.923.2.5,1.742.6,2.684.13,1.288,1.295,2.2,2.431,2.821a17.029,17.029,0,0,0,5.55,1.869c1.193.181,2.6.359,3.173,1.415a2.37,2.37,0,0,1,.257,1.2c-.041,2.126-2.031,3.808-4.125,4.226a13.167,13.167,0,0,1-6.27-.752,2.357,2.357,0,0,0-1.12-.149,2.788,2.788,0,0,0-1.355,1.047,9.249,9.249,0,0,1-9.985,2.377,12.83,12.83,0,0,0-3.332-1.2c-1.821-.171-3.468.971-5.036,1.9s-3.547,1.732-5.162.876a5.139,5.139,0,0,0-1.587-.806c-.879-.1-1.663.66-2.538.635-.984-.019-1.66-.952-2.316-1.682a8.586,8.586,0,0,0-5.1-2.738,2.4,2.4,0,0,0-1.114.032,3.134,3.134,0,0,0-1.12.819,4.528,4.528,0,0,1-3.138,1.536c-2.611-.092-4.163-3.782-6.762-3.528-3.389-1.587-7.584-.768-11.3-.317s-7.831.581-10.807-1.688c-1.567-1.2-2.63-2.941-4.093-4.271-2.31-2.1-5.426-3.018-8.431-3.874-4.76-1.358-9.7-2.729-14.6-1.989a10.863,10.863,0,0,1-2.653.232,2.457,2.457,0,0,1-2.1-1.415,2.77,2.77,0,0,1-.089-1.32c.46-3.592,3.865-6.289,4.3-9.884a11.063,11.063,0,0,1,2.2-4.82,41.568,41.568,0,0,0,2.377-4.1,85.547,85.547,0,0,0,4.664-9.7A84.047,84.047,0,0,0,99.791,193.6c.825-3.544,1.218-7.174,1.812-10.766.432-2.611,1.107-5.175,1.783-7.736,2-7.564,4.011-15.173,7.3-22.268A26.382,26.382,0,0,0,117.379,154.142Z" transform="translate(-8.884 -31.216)"/><path class="f" d="M88.762,168.7c-1.047,1.145-.809,2.967-.2,4.391s1.542,2.761,1.713,4.3c.057.514.025,1.034.114,1.545.067.368.19.72.286,1.082a12.2,12.2,0,0,1,.267,1.39c.336,2.259.565,4.537.685,6.822.175,3.23.13,6.47.086,9.706-.063,4.528-2.221,8.767-3.271,13.171a11.391,11.391,0,0,0-.362,2.081,13.543,13.543,0,0,0,.276,2.789,45.78,45.78,0,0,1-.555,17.382,3.447,3.447,0,0,1,1.387,3.192c2.047.359,4.188.711,6.159.06a28.789,28.789,0,0,1,3.49-1.364c.952-.175,2.053-.086,2.726-.777a2.9,2.9,0,0,0,.584-1.111c2.323-6.759,1.672-14.117,1.542-21.259-.07-3.839,0-7.682-.146-11.518a89.187,89.187,0,0,0-3.2-20.218,34.683,34.683,0,0,0-3.49-9.16,4.785,4.785,0,0,0-1.453-1.637,5.4,5.4,0,0,0-2.24-.593C91.545,168.8,90.38,168.887,88.762,168.7Z" transform="translate(-8.884 -31.216)"/><path class="g" d="M102.149,233.369a2.907,2.907,0,0,1-.584,1.107c-.673.695-1.777.6-2.726.781-.121.022-.241.051-.359.083-1.082.289-2.059.927-3.129,1.269a12.939,12.939,0,0,1-6.162-.06,3.452,3.452,0,0,0-1.387-3.2,45.764,45.764,0,0,0,.558-17.379,13.327,13.327,0,0,1-.279-2.789,11.62,11.62,0,0,1,.362-2.082c1.044-4.407,3.208-8.646,3.271-13.174.044-3.236.089-6.476-.083-9.706q-.187-3.427-.689-6.822a12.917,12.917,0,0,0-.263-1.39c-.1-.359-.222-.714-.286-1.082-.092-.508-.06-1.031-.117-1.545-.171-1.542-1.1-2.875-1.713-4.3a6.365,6.365,0,0,1-.495-1.847,3.173,3.173,0,0,1,.692-2.538c1.088.121,1.967.117,2.919.159.466.019.952.051,1.482.111a5.3,5.3,0,0,1,2.243.593,4.759,4.759,0,0,1,1.45,1.637c.171.276.333.555.489.838a38.319,38.319,0,0,1,3,8.32,89.216,89.216,0,0,1,3.2,20.218c.162,3.836.076,7.679.146,11.521C103.824,219.256,104.472,226.607,102.149,233.369Z" transform="translate(-8.884 -31.216)"/><path class="f" d="M113.848,171.191v1.669q-.022,8.04-.041,16.078a63.771,63.771,0,0,1-.228,6.609c-.562,5.711-2.649,11.242-2.427,16.96a52,52,0,0,1-.517,12.429c-.317,1.561-.781,3.1-1.009,4.674a8.826,8.826,0,0,0,.422,4.709c.451,1.05,1.209,2.043,1.168,3.173a3.113,3.113,0,0,1-1.5,2.373,7.133,7.133,0,0,1-2.748.917,21.1,21.1,0,0,1-3.658.282c-1.755-.019-3.754-.4-4.661-1.9a4.526,4.526,0,0,1-.27-3.436c.035-.133.07-.263.108-.393.3-1,.723-1.961.952-2.976a8.285,8.285,0,0,0-.34-4.813c-.108-.286-.447-.825-.752-.79a12.942,12.942,0,0,1-.635-3.969l-.447-9.107a23.479,23.479,0,0,1,.216-5.934c.317-1.587.993-3.1,1.184-4.706a15.57,15.57,0,0,0-.016-2.9A128.916,128.916,0,0,0,96.717,185.3a1.777,1.777,0,0,0-.244-.7c-.209-.292-.574-.428-.831-.682-.539-.527-.489-1.387-.616-2.132a11.351,11.351,0,0,0-1.809-3.636,13.327,13.327,0,0,1-1.786-6.21,13.028,13.028,0,0,1,.251-3.081c.025-.136.057-.273.089-.409a82.984,82.984,0,0,1,20.669,1.269,1.688,1.688,0,0,1,1.288.685,1.717,1.717,0,0,1,.121.787Z" transform="translate(-8.884 -31.216)"/><path class="k" d="M152.806,196.166a183.923,183.923,0,0,1,9.557,18.388c2.205,5.156,4.014,10.649,7.714,14.862,3.465,3.944,8.25,6.406,12.949,8.777l-4.207-3.706c-4.223-3.728-8.535-7.561-11.217-12.514a71.558,71.558,0,0,1-3.49-8.516,78.1,78.1,0,0,0-11.623-20.51,57.869,57.869,0,0,0-4.379-5.1C149.186,190.7,151.29,193.5,152.806,196.166Z" transform="translate(-8.884 -31.216)"/><path class="k" d="M135.39,237.342a25.494,25.494,0,0,0,3.643,6.01c.133-1.047-.584-1.986-1.152-2.875a24.592,24.592,0,0,1-2.278-5.232c-.577-1.666-1.114-3.963-2.342-5.28C132.632,232.224,134.438,235.4,135.39,237.342Z" transform="translate(-8.884 -31.216)"/><path class="k" d="M123.488,197.762c.3,1.587.473,3.173.873,4.725a33.7,33.7,0,0,0,1.444,4.093l6.689,16.671c-.057-2.266-1.269-4.315-2.04-6.441-.952-2.611-1.295-5.394-2.072-8.079-.635-2.177-1.555-4.255-2.221-6.422-.927-3.056-1.317-6.248-2.043-9.357a68.428,68.428,0,0,0-2.453-7.933,7.735,7.735,0,0,0-1.932-3.344,2.722,2.722,0,0,0-3.551-.171c-1.3,1.291.673,2.1,1.323,2.941a31.546,31.546,0,0,1,5.978,13.327Z" transform="translate(-8.884 -31.216)"/><path class="k" d="M132.464,163.322a6.08,6.08,0,0,1,.92,1.193,16.382,16.382,0,0,0,.952,2.043,19.961,19.961,0,0,0-2.7-3.071c-.609-.524-1.269-.974-1.882-1.5-.466-.4-2.51-2.132-2.1-2.722A18.927,18.927,0,0,1,132.464,163.322Z" transform="translate(-8.884 -31.216)"/><path class="i" d="M111.23,103.707a4.567,4.567,0,0,1-.822,1.79,11.451,11.451,0,0,0-1.634,5.537,11.106,11.106,0,0,0,.076,1.717c.025.213.032.479-.152.59a.533.533,0,0,1-.317.041c-.216-.019-.425-.044-.635-.079-3.392-.543-6.362-2.856-9.776-3.44a1.631,1.631,0,0,0,.873-1.031,4.639,4.639,0,0,0,.206-.787c.051-.282.089-.565.117-.841a36.578,36.578,0,0,0-.209-6c-.13-2.418,2.856-1.621,4.607-1.653a14.521,14.521,0,0,1,4.195.333,4.92,4.92,0,0,1,3.233,2.5A2.538,2.538,0,0,1,111.23,103.707Z" transform="translate(-8.884 -31.216)"/><path class="k" d="M108.7,113.34a.533.533,0,0,1-.317.041c-.216-.019-.425-.044-.635-.079-.292-.273-.574-.558-.844-.857a18.539,18.539,0,0,0-1.942-2.078,6.739,6.739,0,0,0-3.966-1.415,13.045,13.045,0,0,1-2.151-.121,4.639,4.639,0,0,0,.206-.787c.051-.282.089-.565.117-.841a10.643,10.643,0,0,1,1.2-.086,5.766,5.766,0,0,1,1.422-.029,7.257,7.257,0,0,1,2.18.92,25.947,25.947,0,0,1,2.922,1.51c.279.2.546.412.812.635.362.3.72.593,1.082.885a11.105,11.105,0,0,0,.076,1.717C108.876,112.959,108.882,113.229,108.7,113.34Z" transform="translate(-8.884 -31.216)"/><path class="l" d="M113.848,171.191v1.669c-1.32.038-2.669.232-3.982.317-1.234.089-2.472.092-3.709.076a10.769,10.769,0,0,1-2.875-.317c-.676-.2-1.31-.52-1.983-.723a9.552,9.552,0,0,0-3.95-.184c-1.092.127-2.193.317-3.281.416a4.4,4.4,0,0,1-2.094-.216,3.881,3.881,0,0,1-.539-.3,7.364,7.364,0,0,0-.838-.485,4.961,4.961,0,0,0-2.523-.209,3.173,3.173,0,0,1,.692-2.538c1.088.121,1.967.117,2.919.159.025-.136.057-.273.089-.409a82.984,82.984,0,0,1,20.669,1.269,1.688,1.688,0,0,1,1.288.685A1.716,1.716,0,0,1,113.848,171.191Z" transform="translate(-8.884 -31.216)"/><path class="f" d="M99.449,108.333a2.8,2.8,0,0,0-1.869.787.952.952,0,0,0-.238.511,4.274,4.274,0,0,0,.171.876,2.047,2.047,0,0,1-.292,1.092,8.494,8.494,0,0,1-1.726,2.637c-.317.3-.679.539-1,.828a8.843,8.843,0,0,0-1,1.123,7.294,7.294,0,0,0-1.6,2.761c-.428,1.812-1.32,3.522-1.9,5.293a11.447,11.447,0,0,0-.635,5.489c.149.869.451,1.7.66,2.561.336,1.374.432,2.8.787,4.163.225.854.549,1.679.793,2.538a13.828,13.828,0,0,1,.422,5.677c-.238,1.736.162,3.582-.539,5.185a19.566,19.566,0,0,1-.952,1.726,24.1,24.1,0,0,0-1.2,2.538l-1.958,4.62a26.833,26.833,0,0,0-1.025,2.665,24.582,24.582,0,0,0-.7,8.25.349.349,0,0,1-.054.248c-.06.063-.2.044-.2-.041-.025.159-.127.435-.149.593,1.666.723,3.716-.371,5.375.368.482.216.892.574,1.377.784a4.366,4.366,0,0,0,2.094.219c2.421-.2,4.905-.952,7.228-.235.676.206,1.307.53,1.983.727a10.8,10.8,0,0,0,2.878.317c1.237.019,2.475.016,3.709-.076,2.656-.194,5.445-.774,7.891.279a2.84,2.84,0,0,0,.882-2.459l.178-5.518.657-20.291a20.308,20.308,0,0,0-.155-4.188,20.039,20.039,0,0,0-3.173-6.914l-6.311-10.154c-.419-.673,0-1.425.289-2.164a14.011,14.011,0,0,0,.812-3.294,2.955,2.955,0,0,0-.466-2.377,10.165,10.165,0,0,0-1.126-.838,5.242,5.242,0,0,1-1.161-1.621,10.471,10.471,0,0,0-3.709-3.865A7.845,7.845,0,0,0,99.449,108.333Z" transform="translate(-8.884 -31.216)"/><path class="l" d="M105.96,117.541c-2.243.619-3.633,2.9-4.249,5.14a19.427,19.427,0,0,0,.108,9.652,54.131,54.131,0,0,0,3.379,9.138,21.95,21.95,0,0,0,1.041,2.126,10.182,10.182,0,0,0,4.658,4.23,8.605,8.605,0,0,0,6.241.276,3.668,3.668,0,0,0,1.047-.533c1.123-.863,1.3-2.462,1.38-3.877l.282-4.959a2.5,2.5,0,0,0-.038-.784,2.856,2.856,0,0,0-.574-.952,11.861,11.861,0,0,1-2.031-4.036,20.527,20.527,0,0,0-.885-3.062c-.267-.584-.635-1.117-.923-1.691a16.174,16.174,0,0,1-1.158-3.976q-.39-1.771-.933-3.506a5.908,5.908,0,0,0-.809-1.8c-.873-1.18-2.421-1.606-3.855-1.9a4.442,4.442,0,0,0-2.088-.1,4.615,4.615,0,0,0-1.951,1.393" transform="translate(-8.884 -31.216)"/><path class="f" d="M106.277,117.224c-2.243.619-3.633,2.9-4.249,5.14a19.427,19.427,0,0,0,.108,9.652,54.131,54.131,0,0,0,3.379,9.138,21.95,21.95,0,0,0,1.041,2.126,10.182,10.182,0,0,0,4.658,4.23,8.605,8.605,0,0,0,6.241.276,3.667,3.667,0,0,0,1.047-.533c1.123-.863,1.3-2.462,1.38-3.877l.282-4.959a2.5,2.5,0,0,0-.038-.784,2.856,2.856,0,0,0-.574-.952,11.861,11.861,0,0,1-2.031-4.036,20.528,20.528,0,0,0-.885-3.062c-.267-.584-.635-1.117-.923-1.691a16.174,16.174,0,0,1-1.158-3.976q-.39-1.771-.933-3.506a5.908,5.908,0,0,0-.809-1.8c-.873-1.18-2.421-1.606-3.855-1.9a4.442,4.442,0,0,0-2.088-.1A4.615,4.615,0,0,0,104.919,118" transform="translate(-8.884 -31.216)"/><path class="i" d="M128.165,130.468a7.473,7.473,0,0,1-.419-5.366c1.244.317,1.586,2.151,2.856,2.478.187.048.387.057.577.1a3.259,3.259,0,0,1,1.977,1.745,9.389,9.389,0,0,1,1.32,4.011,6.717,6.717,0,0,1-.952,4.077c.032-.048-2.221-2.358-2.411-2.6q-.593-.695-1.161-1.418a10.175,10.175,0,0,1-1.069-1.437c-.108-.2-.13-.438-.225-.654C128.507,131.087,128.32,130.782,128.165,130.468Z" transform="translate(-8.884 -31.216)"/><path class="h" d="M122.38,149.132a13.863,13.863,0,0,1-3.944,8.05,2.379,2.379,0,0,1-1.771.885c-.733-.076-1.237-.742-1.761-1.269a34.141,34.141,0,0,0-3.278-2.351,16.713,16.713,0,0,1-1.548-1.45,36.053,36.053,0,0,1-4.36-5.023,28.639,28.639,0,0,0-2.132-3.1c-.657-.746-1.447-1.361-2.139-2.072a4.97,4.97,0,0,1-1.466-2.538c-.175-1.034-1.269-1.707-1.958-2.5a8.808,8.808,0,0,1-1.92-7.355,1.688,1.688,0,0,1,.876-1.361,1.418,1.418,0,0,1,.654-.041c1.339.187,2.332,1.3,3.2,2.339a19.561,19.561,0,0,1,1.634,2.158,19.161,19.161,0,0,1,2.012,5.677c.276,1.145,1.418,1.993,2.24,2.837l2.062,2.116c.492.5.984,1.012,1.523,1.466a19.8,19.8,0,0,0,5.013,2.856,6.362,6.362,0,0,1,.7-1.625,2.11,2.11,0,0,1,1.422-.952,3.188,3.188,0,0,1,2.221.952l2.427,1.9C122.221,148.846,122.4,148.967,122.38,149.132Z" transform="translate(-8.884 -31.216)"/><path class="l" d="M126.242,130.2a3.509,3.509,0,0,1,.695,1.1,7.209,7.209,0,0,1,.708,3.582,10.7,10.7,0,0,1-.438,1.958l-.755,2.6a121.1,121.1,0,0,1-3.938,11.956c-1.3-1.691-3.586-2.2-5.439-3.259a1.533,1.533,0,0,1-.479-.371,1.364,1.364,0,0,1-.238-.812,6.07,6.07,0,0,1,.5-2.266c1.155-3.1,2.757-6.127,2.945-9.427a17.736,17.736,0,0,1,.117-1.837,5.21,5.21,0,0,1,2.443-3.522A3.411,3.411,0,0,1,126.242,130.2Z" transform="translate(-8.884 -31.216)"/><path class="j" d="M125.924,129.459a3.544,3.544,0,0,1,.695,1.1,7.209,7.209,0,0,1,.708,3.582,10.646,10.646,0,0,1-.438,1.983l-.755,2.6a121.1,121.1,0,0,1-3.938,11.956c-1.3-1.688-3.586-2.2-5.439-3.259a1.523,1.523,0,0,1-.479-.368,1.38,1.38,0,0,1-.238-.812,6.073,6.073,0,0,1,.5-2.269c1.155-3.1,2.757-6.124,2.945-9.427a17.618,17.618,0,0,1,.117-1.834,5.207,5.207,0,0,1,2.443-3.525A3.4,3.4,0,0,1,125.924,129.459Z" transform="translate(-8.884 -31.216)"/><path class="f" d="M118.573,112.595a4.39,4.39,0,0,1,.917,2.576,16.891,16.891,0,0,1-.463,7.133,8.586,8.586,0,0,1-4.522,5.324c3.071.5,6.72.809,8.8-1.507a6.694,6.694,0,0,1,1.253-1.32c2.205-1.39,5,2.275,7.4,1.234,1.587-.685,1.7-2.83,1.587-4.544l-.435-6.346c-.222-3.24-.5-6.663-2.361-9.316-1.675-2.4-4.42-3.846-7.209-4.76-2.005-.635-4.239-1.05-6.191-.247-2.491,1.022-7.3,5.1-7.269,8.12C110.132,113.426,116.478,110.38,118.573,112.595Z" transform="translate(-8.884 -31.216)"/><path class="f" d="M120.464,137.366a3.173,3.173,0,0,0,1.053-.136c.539-.2.952-.7,1.533-.784.292-.041.666,0,.793-.276a1.1,1.1,0,0,0,.041-.4c.044-.771,1.012-1.038,1.666-1.45a4.877,4.877,0,0,0,1.082-1.041l2.253-2.662a1.688,1.688,0,0,1,.857-.65,1.529,1.529,0,0,1,1.114.317,8.7,8.7,0,0,1,3.846,8.072,1.368,1.368,0,0,1-.165.619c-.352.552-1.18.419-1.805.616-1.2.374-1.561,1.926-2.586,2.646-.46.317-1.028.454-1.475.784a10.04,10.04,0,0,0-1.2,1.355,7.556,7.556,0,0,1-2.408,1.587l-2.656,1.295a10.43,10.43,0,0,1-1.628.679,10.256,10.256,0,0,1-2.957.251l-1.945-.025a1.145,1.145,0,0,1-.635-.127,1.063,1.063,0,0,1-.282-.317,6.98,6.98,0,0,1-.847-5.207,10.362,10.362,0,0,1,2.034-4.6C117.056,136.951,119.207,137.392,120.464,137.366Z" transform="translate(-8.884 -31.216)"/><path class="f" d="M112.7,96.254a1.444,1.444,0,0,1,.733-1.542l2.411-1.812-.495-.72.93-.8a.676.676,0,0,0-.685-.267c.146-.98-.692-1.809-1.488-2.392a10.789,10.789,0,0,0-5.477-2.307c-.974-.063-1.951.076-2.926,0-1.314-.083-2.589-.527-3.906-.577a3.481,3.481,0,0,0-3.348,1.65A15.64,15.64,0,0,0,98,89.121a8.055,8.055,0,0,1-2.335,2.887c-.892.879-1.72,2.056-1.472,3.281a4.322,4.322,0,0,0,.454,1.126l4.918,9.5a2.186,2.186,0,0,1,1.653-1.139,10.258,10.258,0,0,1,2.405.368,3.808,3.808,0,0,0,3.271-1.269c1.085-1.25,1.349-4.442,3.233-4.76.666-.114,1.732.727,2.313.393C113.124,99.131,112.709,96.958,112.7,96.254Z" transform="translate(-8.884 -31.216)"/><g class="m"><path d="M116.409,126.657a8.618,8.618,0,0,0,4.522-5.327,16.85,16.85,0,0,0,.463-7.133,4.369,4.369,0,0,0-.917-2.576c-2.094-2.221-8.44.831-8.5-3.63-.035-2.573,3.465-5.918,6.029-7.482a5.817,5.817,0,0,0-.676.225c-2.491,1.022-7.3,5.105-7.269,8.12.057,4.461,6.4,1.418,8.5,3.633a4.383,4.383,0,0,1,.917,2.576,16.877,16.877,0,0,1-.463,7.13,8.6,8.6,0,0,1-4.522,5.327c2.71.438,5.867.73,8-.8A15.373,15.373,0,0,1,116.409,126.657Z" transform="translate(-8.884 -31.216)"/><path d="M126.464,123.827a2.817,2.817,0,0,0-.612.552c1.945.127,4.157,2.392,6.1,1.545a2.19,2.19,0,0,0,.863-.679C130.687,125.163,128.358,122.634,126.464,123.827Z" transform="translate(-8.884 -31.216)"/></g><g class="m"><path d="M115.361,89.888c-.048-.07-.1-.14-.149-.206a1.779,1.779,0,0,1-.016.219.711.711,0,0,1,.165-.013Z" transform="translate(-8.884 -31.216)"/><path d="M116.358,91.383a.676.676,0,0,0-.685-.267,1.539,1.539,0,0,0-.063-.714l-.657.562.495.717L113.036,93.5a1.444,1.444,0,0,0-.733,1.542c0,.7.428,2.878-.257,3.268-.577.333-1.647-.508-2.31-.393-1.885.317-2.148,3.49-3.233,4.76a3.808,3.808,0,0,1-3.271,1.269,10.267,10.267,0,0,0-2.405-.365,2.2,2.2,0,0,0-1.656,1.139q-2.453-4.74-4.905-9.478v.07a4.442,4.442,0,0,0,.457,1.126l4.912,9.478a2.2,2.2,0,0,1,1.656-1.139,10.258,10.258,0,0,1,2.405.368,3.808,3.808,0,0,0,3.271-1.269c1.085-1.25,1.349-4.442,3.233-4.76.663-.114,1.732.727,2.31.393.685-.39.27-2.564.257-3.268a1.932,1.932,0,0,1,.14-.952,1.9,1.9,0,0,1,.593-.6l2.411-1.812-.495-.72Z" transform="translate(-8.884 -31.216)"/></g><path class="l" d="M88.546,160.272c-.317,1.355-.517,2.738-.952,4.061-.19.6-.425,1.177-.612,1.774-.168.543-.3,1.092-.425,1.644l-.517,2.221a1.012,1.012,0,0,0,.787-.444,3,3,0,0,0,.39-.85l.866-2.576.635-1.9c.9-2.681,1.805-5.369,2.491-8.117.171-.679.317-1.358.466-2.043.057-.263.473-1.732.048-1.609-.3.086-.812,1.425-.952,1.717-.317.584-.577,1.18-.835,1.786a26.428,26.428,0,0,0-1.39,4.341Z" transform="translate(-8.884 -31.216)"/><path class="n" d="M105.1,124.741s-1.434-.517-1.786.1c0,0,2.608.952,3.135,2.323,0,0,.673-.692-.247-1.571l-.171-1.288Z" transform="translate(-8.884 -31.216)"/><path class="d" d="M107.476,122.8s.079-.654-.251-.723a2.022,2.022,0,0,0-2.205,2.538c.359,2.478,2.941,1.548,2.941,1.548l1.133-1.32a1.956,1.956,0,0,0-1.345-2.17Z" transform="translate(-8.884 -31.216)"/><path class="l" d="M105.677,121.45a2.6,2.6,0,0,0-1,3.455l.733-.425S106.325,122.336,105.677,121.45Z" transform="translate(-8.884 -31.216)"/><path class="d" d="M105.608,121.4a2.6,2.6,0,0,0-1,3.455l.568.333S106.258,122.285,105.608,121.4Z" transform="translate(-8.884 -31.216)"/><path class="l" d="M108.787,123.938a1.688,1.688,0,0,0,.6.863c.457.317-.454,1.05-.454,1.05s-1.231,1.4-2.4.717c-.695-1.171-.171-1.333-.171-1.333S107.816,123.64,108.787,123.938Z" transform="translate(-8.884 -31.216)"/><path class="d" d="M108.835,124a1.688,1.688,0,0,0,.6.863c.454.317-.457,1.05-.457,1.05s-1.228,1.4-2.4.717-.171-1.329-.171-1.329S107.848,123.706,108.835,124Z" transform="translate(-8.884 -31.216)"/><path class="o" d="M104.418,121.431s-1.441.5-1.326,1.2c0,0,2.627-.9,3.9-.168,0,0,.086-.952-1.18-1.066l-.952-.895Z" transform="translate(-8.884 -31.216)"/><path class="d" d="M105.027,118.414s-.349-.558-.635-.406a2.027,2.027,0,0,0-.121,3.354c1.831,1.694,3.262-.635,3.262-.635l.032-1.739a1.954,1.954,0,0,0-2.411-.838Z" transform="translate(-8.884 -31.216)"/><path class="l" d="M102.806,118.509a2.6,2.6,0,0,0,1.4,3.316l.3-.79S103.859,118.791,102.806,118.509Z" transform="translate(-8.884 -31.216)"/><path class="d" d="M102.711,118.512a2.6,2.6,0,0,0,1.4,3.316l.65-.1S103.774,118.791,102.711,118.512Z" transform="translate(-8.884 -31.216)"/><path class="l" d="M106.778,118.484a1.7,1.7,0,0,0,1.009.3c.558-.035.317,1.1.317,1.1s-.076,1.863-1.412,2.066c-1.269-.473-.971-.927-.971-.927S105.836,118.864,106.778,118.484Z" transform="translate(-8.884 -31.216)"/><path class="d" d="M106.848,118.515a1.691,1.691,0,0,0,1.009.3c.558-.035.317,1.1.317,1.1s-.073,1.863-1.409,2.066-.971-.927-.971-.927S105.906,118.9,106.848,118.515Z" transform="translate(-8.884 -31.216)"/><path class="n" d="M99.522,122.025s.457-.4.708.127l-.213,1.18-1.31,11.689-.838,1.533Z" transform="translate(-8.884 -31.216)"/><path class="n" d="M94.521,88.089l-5.489,17.832.5.276,5.445-17.991Z"/><path class="n" d="M101.9,127.39s-1.231,4.655-2.589,6.511a4.864,4.864,0,0,0-1.1,3.4l.444.136,3.649-9.719Z" transform="translate(-8.884 -31.216)"/><path class="n" d="M97.507,92.078l-7.831,13.638.374.2,8.075-13.742Z"/><path class="n" d="M99.236,95.679l-9.754,10.166.292.378,9.878-10.315Z"/><path class="n" d="M108.746,127.651s-.13-.571-.568-.463-9.059,9.681-9.059,9.681l.365.286Z" transform="translate(-8.884 -31.216)"/><path class="n" d="M99.1,121.409s-1.472.4-1.4,1.107c0,0,2.681-.717,3.9.1,0,0,.152-.952-1.1-1.145l-.882-.952Z" transform="translate(-8.884 -31.216)"/><path class="d" d="M99.925,118.439s-.317-.581-.619-.447a2.023,2.023,0,0,0-.355,3.335c1.707,1.815,3.3-.419,3.3-.419l.168-1.732a1.956,1.956,0,0,0-2.348-1Z" transform="translate(-8.884 -31.216)"/><path class="l" d="M97.688,118.382a2.6,2.6,0,0,0,1.165,3.4l.355-.768S98.725,118.734,97.688,118.382Z" transform="translate(-8.884 -31.216)"/><path class="d" d="M97.6,118.379a2.6,2.6,0,0,0,1.164,3.4l.657-.051S98.643,118.731,97.6,118.379Z" transform="translate(-8.884 -31.216)"/><path class="l" d="M101.66,118.633a1.7,1.7,0,0,0,.987.355c.558,0,.228,1.12.228,1.12s-.2,1.853-1.548,1.964c-1.241-.558-.9-.993-.9-.993S100.7,118.947,101.66,118.633Z" transform="translate(-8.884 -31.216)"/><path class="d" d="M101.727,118.671a1.713,1.713,0,0,0,.987.368c.558,0,.228,1.12.228,1.12s-.2,1.85-1.548,1.961-.9-.99-.9-.99S100.762,118.988,101.727,118.671Z" transform="translate(-8.884 -31.216)"/><path class="n" d="M102.853,118.671s-1.472.4-1.406,1.107c0,0,2.681-.717,3.9.1,0,0,.155-.952-1.1-1.142l-.882-.952Z" transform="translate(-8.884 -31.216)"/><path class="d" d="M103.675,115.707s-.317-.581-.619-.447a2.023,2.023,0,0,0-.355,3.335c1.707,1.815,3.3-.419,3.3-.419l.168-1.732a1.956,1.956,0,0,0-2.348-1Z" transform="translate(-8.884 -31.216)"/><path class="l" d="M101.438,115.65a2.6,2.6,0,0,0,1.165,3.4l.355-.768S102.488,116,101.438,115.65Z" transform="translate(-8.884 -31.216)"/><path class="d" d="M101.353,115.647a2.6,2.6,0,0,0,1.165,3.4l.657-.054S102.393,116,101.353,115.647Z" transform="translate(-8.884 -31.216)"/><path class="l" d="M105.414,115.9a1.685,1.685,0,0,0,.984.365c.558,0,.228,1.12.228,1.12s-.2,1.853-1.548,1.964c-1.237-.562-.9-.993-.9-.993S104.446,116.215,105.414,115.9Z" transform="translate(-8.884 -31.216)"/><path class="d" d="M105.481,115.936a1.685,1.685,0,0,0,.984.365c.558,0,.228,1.12.228,1.12s-.2,1.853-1.548,1.964-.9-.993-.9-.993S104.513,116.25,105.481,115.936Z" transform="translate(-8.884 -31.216)"/><path class="n" d="M106.023,122.479s-1.434-.517-1.786.1c0,0,2.608.952,3.138,2.323,0,0,.673-.692-.247-1.571l-.171-1.288Z" transform="translate(-8.884 -31.216)"/><path class="d" d="M108.4,120.524s.079-.654-.251-.723a2.037,2.037,0,0,0-2.221,2.538c.34,2.478,2.945,1.548,2.945,1.548l1.133-1.32a1.959,1.959,0,0,0-1.349-2.17Z" transform="translate(-8.884 -31.216)"/><path class="l" d="M106.613,119.191a2.6,2.6,0,0,0-1,3.455l.73-.425S107.248,120.077,106.613,119.191Z" transform="translate(-8.884 -31.216)"/><path class="d" d="M106.537,119.14a2.6,2.6,0,0,0-1,3.455l.568.333S107.185,120.026,106.537,119.14Z" transform="translate(-8.884 -31.216)"/><path class="l" d="M109.713,121.679a1.713,1.713,0,0,0,.6.863c.457.317-.454,1.05-.454,1.05s-1.231,1.4-2.4.717c-.692-1.168-.171-1.333-.171-1.333S108.743,121.381,109.713,121.679Z" transform="translate(-8.884 -31.216)"/><path class="d" d="M109.748,121.746a1.7,1.7,0,0,0,.6.866c.457.317-.454,1.047-.454,1.047s-1.231,1.4-2.4.72-.171-1.333-.171-1.333S108.777,121.447,109.748,121.746Z" transform="translate(-8.884 -31.216)"/><path class="n" d="M108.324,126.365s-1.434-.517-1.783.1c0,0,2.605.952,3.135,2.323,0,0,.673-.695-.247-1.571l-.171-1.291Z" transform="translate(-8.884 -31.216)"/><path class="d" d="M110.7,124.408s.079-.654-.251-.72a2.021,2.021,0,0,0-2.2,2.538c.359,2.481,2.941,1.552,2.941,1.552l1.133-1.323a1.956,1.956,0,0,0-1.349-2.167Z" transform="translate(-8.884 -31.216)"/><path class="l" d="M108.9,123.075a2.6,2.6,0,0,0-1,3.459l.73-.425S109.555,123.96,108.9,123.075Z" transform="translate(-8.884 -31.216)"/><path class="d" d="M108.835,123.024a2.6,2.6,0,0,0-1,3.455l.568.333S109.485,123.91,108.835,123.024Z" transform="translate(-8.884 -31.216)"/><path class="l" d="M112.008,125.563a1.71,1.71,0,0,0,.593.866c.457.317-.454,1.047-.454,1.047s-1.231,1.4-2.4.72c-.692-1.171-.171-1.333-.171-1.333S111.056,125.264,112.008,125.563Z" transform="translate(-8.884 -31.216)"/><path class="d" d="M112.049,125.632a1.688,1.688,0,0,0,.6.863c.457.317-.454,1.05-.454,1.05s-1.231,1.4-2.4.717-.171-1.333-.171-1.333S111.078,125.334,112.049,125.632Z" transform="translate(-8.884 -31.216)"/><path class="n" d="M108.616,127.67s-1.434-.517-1.786.1c0,0,2.608.952,3.135,2.323,0,0,.676-.695-.244-1.571l-.175-1.291Z" transform="translate(-8.884 -31.216)"/><path class="d" d="M111,125.712s.079-.65-.251-.72a2.022,2.022,0,0,0-2.205,2.538c.355,2.481,2.941,1.552,2.941,1.552l1.133-1.32a1.956,1.956,0,0,0-1.345-2.17Z" transform="translate(-8.884 -31.216)"/><path class="l" d="M109.2,124.382a2.594,2.594,0,0,0-1,3.455l.733-.425S109.844,125.264,109.2,124.382Z" transform="translate(-8.884 -31.216)"/><path class="d" d="M109.126,124.328a2.6,2.6,0,0,0-1,3.455l.568.336S109.786,125.214,109.126,124.328Z" transform="translate(-8.884 -31.216)"/><path class="l" d="M112.306,126.867a1.7,1.7,0,0,0,.6.866c.457.317-.454,1.047-.454,1.047s-1.231,1.4-2.4.72c-.695-1.171-.171-1.333-.171-1.333S111.335,126.569,112.306,126.867Z" transform="translate(-8.884 -31.216)"/><path class="d" d="M112.341,126.937a1.688,1.688,0,0,0,.6.863c.457.317-.457,1.05-.457,1.05s-1.228,1.4-2.392.717-.175-1.333-.175-1.333S111.373,126.638,112.341,126.937Z" transform="translate(-8.884 -31.216)"/><path class="n" d="M101.629,126.819s-1.434-.52-1.786.1c0,0,2.608.952,3.135,2.323,0,0,.673-.692-.247-1.571l-.171-1.291Z" transform="translate(-8.884 -31.216)"/><path class="d" d="M104.008,124.858s.079-.65-.251-.72a2.022,2.022,0,0,0-2.205,2.538c.359,2.478,2.941,1.552,2.941,1.552l1.133-1.32a1.956,1.956,0,0,0-1.345-2.17Z" transform="translate(-8.884 -31.216)"/><path class="l" d="M102.209,123.529a2.6,2.6,0,0,0-.99,3.455l.733-.425S102.857,124.414,102.209,123.529Z" transform="translate(-8.884 -31.216)"/><path class="d" d="M102.139,123.478a2.6,2.6,0,0,0-1,3.455l.568.317S102.806,124.363,102.139,123.478Z" transform="translate(-8.884 -31.216)"/><path class="l" d="M105.319,126.013a1.691,1.691,0,0,0,.6.866c.457.317-.454,1.05-.454,1.05s-1.231,1.4-2.4.717c-.695-1.171-.171-1.333-.171-1.333S104.348,125.715,105.319,126.013Z" transform="translate(-8.884 -31.216)"/><path class="d" d="M105.344,126.083a1.688,1.688,0,0,0,.6.863c.454.317-.457,1.05-.457,1.05s-1.228,1.4-2.4.717-.171-1.333-.171-1.333S104.392,125.785,105.344,126.083Z" transform="translate(-8.884 -31.216)"/><path class="n" d="M102.412,122.545s-1.437-.52-1.786.1c0,0,2.608.952,3.135,2.323,0,0,.673-.692-.247-1.571l-.171-1.291Z" transform="translate(-8.884 -31.216)"/><path class="d" d="M104.792,120.575s.079-.635-.251-.72a2.029,2.029,0,0,0-2.221,2.538c.343,2.478,2.941,1.552,2.941,1.552l1.133-1.32a1.959,1.959,0,0,0-1.349-2.17Z" transform="translate(-8.884 -31.216)"/><path class="l" d="M102.99,119.255a2.6,2.6,0,0,0-1,3.455l.733-.425S103.64,120.14,102.99,119.255Z" transform="translate(-8.884 -31.216)"/><path class="d" d="M102.923,119.2a2.6,2.6,0,0,0-1,3.455l.565.333S103.574,120.089,102.923,119.2Z" transform="translate(-8.884 -31.216)"/><path class="l" d="M106.1,121.739a1.7,1.7,0,0,0,.6.866c.457.317-.454,1.05-.454,1.05s-1.231,1.4-2.4.717c-.695-1.171-.171-1.333-.171-1.333S105.128,121.441,106.1,121.739Z" transform="translate(-8.884 -31.216)"/><path class="d" d="M106.134,121.809a1.688,1.688,0,0,0,.6.863c.457.317-.454,1.05-.454,1.05s-1.231,1.4-2.4.717-.171-1.333-.171-1.333S105.163,121.527,106.134,121.809Z" transform="translate(-8.884 -31.216)"/><path class="h" d="M97.634,129.009s3.931.435,6.067,7.273S99.119,138,99.119,138s-1.771.355-2.047-3.214A14.557,14.557,0,0,1,97.634,129.009Z" transform="translate(-8.884 -31.216)"/><rect class="k" width="1.466" height="0.435" rx="0.217" transform="translate(88.045 103.317) rotate(-23.92)"/><path class="c" d="M81.448,108.682l-.635-.577c-2.278-2.094-3.785-3.452-3.785-5.147a2.408,2.408,0,0,1,2.437-2.45,2.618,2.618,0,0,1,1.993.936,2.608,2.608,0,0,1,1.993-.936,2.408,2.408,0,0,1,2.434,2.45c0,1.694-1.5,3.052-3.785,5.147Z" transform="translate(-8.884 -31.216)"/><path class="c" d="M72.592,72.681l-.635-.581c-2.281-2.091-3.789-3.452-3.789-5.143a2.408,2.408,0,0,1,2.437-2.45,2.618,2.618,0,0,1,1.993.936,2.615,2.615,0,0,1,1.993-.936,2.408,2.408,0,0,1,2.434,2.45c0,1.691-1.5,3.052-3.785,5.143Z" transform="translate(-8.884 -31.216)"/><path class="c" d="M139.048,89.939l-.635-.581c-2.281-2.091-3.785-3.452-3.785-5.143a2.408,2.408,0,0,1,2.434-2.45,2.615,2.615,0,0,1,1.993.936,2.618,2.618,0,0,1,1.993-.936,2.408,2.408,0,0,1,2.437,2.45c0,1.691-1.507,3.052-3.785,5.143Z" transform="translate(-8.884 -31.216)"/><path class="p" d="M270.319,85.618a1.664,1.664,0,0,0-2.707,1.932c.317.466.65.92.971,1.352,3.909,5.277,5.934,11.683,7.679,18.013a8.507,8.507,0,0,1,.352,4.76,29.684,29.684,0,0,0-.809-12.4,76.726,76.726,0,0,0-4.388-11.708,10.505,10.505,0,0,0-1.1-1.948Z" transform="translate(-8.884 -31.216)"/><path class="d" d="M244.957,96.714c-2.637-.079-2.97,3.919-.346,4.125.689.054,1.383.07,2.043.089,8.072.219,15.706,3.148,23.039,6.3,1.8.771,3.69,1.637,4.76,3.29a34.656,34.656,0,0,0-12.292-8.707,90.872,90.872,0,0,0-14.494-4.683A12.552,12.552,0,0,0,244.957,96.714Z" transform="translate(-8.884 -31.216)"/><path class="q" d="M245.693,106.54c-1.663.063-1.288,2.427.387,2.443.438,0,.876-.016,1.295-.035,5.077-.206,10.306,1.2,15.364,2.745a7.844,7.844,0,0,1,3.455,1.739,27.739,27.739,0,0,0-8.98-4.61,68.227,68.227,0,0,0-9.773-2.148,8.964,8.964,0,0,0-1.748-.133Z" transform="translate(-8.884 -31.216)"/><path class="p" d="M279.762,150.522c.473,1.587,2.668.635,2.269-.98-.1-.425-.235-.844-.355-1.244-1.463-4.883-1.393-10.281-1.152-15.564a7.843,7.843,0,0,1,.825-3.779,27.722,27.722,0,0,0-2.237,9.836,68.618,68.618,0,0,0,.343,10,8.889,8.889,0,0,0,.308,1.732Z" transform="translate(-8.884 -31.216)"/><path class="q" d="M248.727,83.4c-1-.175-1.079,1.285-.079,1.507.263.057.527.1.777.146a28.852,28.852,0,0,1,8.827,3.589A4.8,4.8,0,0,1,260.1,90.12a16.865,16.865,0,0,0-4.779-3.893,41.463,41.463,0,0,0-5.562-2.538A5.239,5.239,0,0,0,248.727,83.4Z" transform="translate(-8.884 -31.216)"/><path class="d" d="M233.255,122.085c-2.538,1.31-.393,4.9,2.221,3.709.682-.317,1.352-.66,1.986-.993,7.771-4.03,16.8-5.512,25.673-6.663,2.18-.279,4.5-.524,6.517.34a44.053,44.053,0,0,0-16.995-1.022,111.5,111.5,0,0,0-16.6,3.57,14.874,14.874,0,0,0-2.8,1.06Z" transform="translate(-8.884 -31.216)"/><path class="p" d="M240.515,136.069c-1.828,1.7,1.025,3.719,2.941,2.081.5-.428.98-.882,1.437-1.31,5.569-5.226,12.927-8.948,20.253-12.375,1.8-.841,9.2-1.7,11.175-1.653-5.159.46-15.7,2.072-20.39,4.2a113.141,113.141,0,0,0-13.3,7.463A14.242,14.242,0,0,0,240.515,136.069Z" transform="translate(-8.884 -31.216)"/><path class="d" d="M253.553,158.391c-.533,2.437,2.957,2.472,3.6.035.168-.635.317-1.269.435-1.9,1.612-7.453,5.55-14.688,9.63-21.669,1-1.713,6.6-6.628,8.25-7.714-3.985,3.316-11.74,10.636-14.386,15.053a112.607,112.607,0,0,0-6.7,13.682A14.545,14.545,0,0,0,253.553,158.391Z" transform="translate(-8.884 -31.216)"/><path class="d" d="M279.79,72.7c-1.244-2.538-4.8-.451-3.671,2.151.3.682.635,1.349.952,1.983,3.833,7.752,5.15,16.719,6.133,25.53.244,2.164.447,4.468-.428,6.457A44.276,44.276,0,0,0,284.045,92a110.656,110.656,0,0,0-3.249-16.5A14.822,14.822,0,0,0,279.79,72.7Z" transform="translate(-8.884 -31.216)"/><path class="d" d="M259.965,77.019a.473.473,0,0,0,.216.063c.136,0,.235-.14.292-.267.317-.673.133-1.548.609-2.12a7.3,7.3,0,0,1,1.161,1.948l1.828-.565a2.71,2.71,0,0,1-.346,2.091,2.824,2.824,0,0,1,.86.584.952.952,0,0,1,.225.968,4.652,4.652,0,0,1-1.291.127,8.447,8.447,0,0,1-.136,2.4.447.447,0,0,1-.155.317.438.438,0,0,1-.447-.076,4.233,4.233,0,0,1-1.5-1.587l-.679,1.6a.7.7,0,0,1-.317.406.482.482,0,0,1-.568-.194,1.488,1.488,0,0,1-.2-.616l-.254-1.545a.378.378,0,0,0-.082-.219.4.4,0,0,0-.257-.054q-.952-.029-1.932-.019c-.111-.343.232-.663.558-.806s.723-.254.888-.574c.336-.65-.536-1.558-.165-2.123C258.7,76.089,259.4,76.739,259.965,77.019Z" transform="translate(-8.884 -31.216)"/><path class="p" d="M295.211,85.618a1.665,1.665,0,0,1,2.71,1.932c-.317.466-.635.92-.971,1.352-3.909,5.277-5.934,11.683-7.679,18.013a8.507,8.507,0,0,0-.352,4.76,29.685,29.685,0,0,1,.809-12.4,76.726,76.726,0,0,1,4.388-11.708A10.679,10.679,0,0,1,295.211,85.618Z" transform="translate(-8.884 -31.216)"/><path class="d" d="M320.567,96.714c2.637-.079,2.97,3.919.346,4.125-.689.054-1.383.07-2.043.089-8.072.219-15.706,3.148-23.039,6.3-1.8.771-3.69,1.637-4.76,3.29a34.656,34.656,0,0,1,12.292-8.707,90.769,90.769,0,0,1,14.494-4.683A12.552,12.552,0,0,1,320.567,96.714Z" transform="translate(-8.884 -31.216)"/><path class="p" d="M319.84,106.54c1.663.063,1.288,2.427-.387,2.443-.438,0-.876-.016-1.295-.035-5.093-.206-10.306,1.2-15.364,2.745a7.929,7.929,0,0,0-3.455,1.739,27.707,27.707,0,0,1,8.98-4.61,68.322,68.322,0,0,1,9.773-2.148,8.944,8.944,0,0,1,1.748-.133Z" transform="translate(-8.884 -31.216)"/><path class="q" d="M316.807,83.4c1-.175,1.079,1.285.079,1.507-.263.057-.527.1-.777.146a28.851,28.851,0,0,0-8.827,3.589,4.8,4.8,0,0,0-1.844,1.479,16.865,16.865,0,0,1,4.779-3.893,41.458,41.458,0,0,1,5.562-2.538,5.237,5.237,0,0,1,1.028-.289Z" transform="translate(-8.884 -31.216)"/><path class="q" d="M290.718,153.552c-.225.99-1.6.5-1.422-.511.048-.263.108-.524.165-.771a28.741,28.741,0,0,0,.092-9.519,4.811,4.811,0,0,0-.654-2.272,16.907,16.907,0,0,1,1.748,5.9,41.805,41.805,0,0,1,.184,6.1A5.487,5.487,0,0,1,290.718,153.552Z" transform="translate(-8.884 -31.216)"/><path class="p" d="M316.163,146.955c.784,1.326-1.139,1.237-1.983-.092-.222-.346-.425-.695-.619-1.028-2.386-4.055-6.029-8.066-9.665-11.94a13.334,13.334,0,0,0-3-2.586,47.1,47.1,0,0,1,7.853,6.717c2.345,2.453,4.417,5.007,6.444,7.558A12.392,12.392,0,0,1,316.163,146.955Z" transform="translate(-8.884 -31.216)"/><path class="q" d="M246.544,146.955c-.784,1.326,1.139,1.237,1.986-.092.219-.346.422-.695.619-1.028,2.383-4.055,6.01-8.066,9.665-11.94a13.335,13.335,0,0,1,3-2.586,47.1,47.1,0,0,0-7.863,6.717c-2.345,2.453-4.417,5.007-6.444,7.558A12.428,12.428,0,0,0,246.544,146.955Z" transform="translate(-8.884 -31.216)"/><path class="q" d="M272,153.552c.225.99,1.587.5,1.422-.511-.048-.263-.108-.524-.165-.771a28.741,28.741,0,0,1-.092-9.519,4.811,4.811,0,0,1,.654-2.272,16.906,16.906,0,0,0-1.752,5.911,41.806,41.806,0,0,0-.184,6.1,5.488,5.488,0,0,0,.117,1.057Z" transform="translate(-8.884 -31.216)"/><path class="q" d="M308.785,93.36c1-.175,1.076,1.288.076,1.507-.26.06-.524.1-.774.146a28.9,28.9,0,0,0-8.831,3.589,4.823,4.823,0,0,0-1.84,1.479,16.951,16.951,0,0,1,4.76-3.893,42.313,42.313,0,0,1,5.565-2.538,5.711,5.711,0,0,1,1.044-.289Z" transform="translate(-8.884 -31.216)"/><path class="q" d="M299.425,73.8c.866-.536,1.482.79.635,1.368-.222.152-.451.292-.666.425a28.947,28.947,0,0,0-6.847,6.628,4.743,4.743,0,0,0-1.155,2.059,16.872,16.872,0,0,1,2.973-5.394,42.117,42.117,0,0,1,4.217-4.423A5.642,5.642,0,0,1,299.425,73.8Z" transform="translate(-8.884 -31.216)"/><path class="d" d="M332.278,122.085c2.538,1.31.393,4.9-2.221,3.709-.685-.317-1.352-.66-1.99-.993-7.768-4.03-16.795-5.512-25.673-6.663-2.177-.279-4.5-.524-6.514.34a44.053,44.053,0,0,1,16.995-1.022,111.5,111.5,0,0,1,16.6,3.57,14.876,14.876,0,0,1,2.8,1.06Z" transform="translate(-8.884 -31.216)"/><path class="p" d="M325.015,136.069c1.828,1.7-1.025,3.719-2.941,2.081-.5-.428-.98-.882-1.437-1.31-5.569-5.226-12.927-8.948-20.253-12.375-1.8-.841-9.2-1.7-11.179-1.653,5.163.46,15.706,2.072,20.393,4.2a112.844,112.844,0,0,1,13.3,7.463,14.1,14.1,0,0,1,2.12,1.59Z" transform="translate(-8.884 -31.216)"/><path class="d" d="M303.487,161.189c.225,2.488-3.246,2.085-3.582-.412-.086-.654-.14-1.307-.194-1.932-.663-7.615-3.665-15.291-6.838-22.732-.777-1.824-5.711-7.4-7.225-8.688,3.538,3.789,10.319,12.023,12.375,16.734a115.382,115.382,0,0,1,4.934,14.431,14.384,14.384,0,0,1,.53,2.6Z" transform="translate(-8.884 -31.216)"/><path class="d" d="M305.562,77.019a.473.473,0,0,1-.216.063c-.136,0-.235-.14-.292-.267-.317-.673-.133-1.548-.609-2.12a7.3,7.3,0,0,0-1.161,1.948l-1.828-.565a2.71,2.71,0,0,0,.346,2.091,2.824,2.824,0,0,0-.86.584.952.952,0,0,0-.225.968,4.652,4.652,0,0,0,1.291.127,8.447,8.447,0,0,0,.136,2.4.448.448,0,0,0,.155.317.438.438,0,0,0,.447-.076,4.233,4.233,0,0,0,1.5-1.587l.679,1.6a.7.7,0,0,0,.317.406.482.482,0,0,0,.568-.194,1.437,1.437,0,0,0,.2-.616l.254-1.545a.406.406,0,0,1,.086-.219.4.4,0,0,1,.27-.076q.952-.029,1.932-.019c.111-.343-.232-.663-.558-.806s-.723-.254-.888-.574c-.336-.65.533-1.558.165-2.123C306.831,76.089,306.13,76.739,305.562,77.019Z" transform="translate(-8.884 -31.216)"/><path class="q" d="M311.076,152.219a.406.406,0,0,1-.216.063c-.136,0-.235-.136-.292-.263-.317-.676-.133-1.552-.609-2.12a7.237,7.237,0,0,0-1.161,1.945l-1.828-.565a2.719,2.719,0,0,0,.346,2.094,2.77,2.77,0,0,0-.86.584.952.952,0,0,0-.225.952,4.655,4.655,0,0,0,1.291.13,8.452,8.452,0,0,0,.136,2.4.34.34,0,0,0,.6.232,4.232,4.232,0,0,0,1.5-1.587l.679,1.621a.711.711,0,0,0,.317.406.486.486,0,0,0,.568-.2,1.425,1.425,0,0,0,.2-.616l.254-1.545a.393.393,0,0,1,.086-.216.384.384,0,0,1,.27-.079q.952-.022,1.932-.019c.111-.343-.232-.66-.558-.806s-.723-.251-.888-.571c-.336-.654.533-1.561.165-2.123C312.342,151.29,311.638,151.94,311.076,152.219Z" transform="translate(-8.884 -31.216)"/><path class="d" d="M326.551,101.813a.485.485,0,0,1-.216.063c-.14,0-.235-.14-.292-.267-.317-.676-.133-1.552-.612-2.12a7.3,7.3,0,0,0-1.161,1.948l-1.824-.568a2.716,2.716,0,0,0,.346,2.094,2.786,2.786,0,0,0-.86.584.952.952,0,0,0-.225.968,4.652,4.652,0,0,0,1.291.127,8.454,8.454,0,0,0,.136,2.4.431.431,0,0,0,.155.317c.133.086.317,0,.447-.073a4.233,4.233,0,0,0,1.5-1.587l.679,1.621a.72.72,0,0,0,.3.406.489.489,0,0,0,.571-.2,1.413,1.413,0,0,0,.2-.616l.254-1.542a.381.381,0,0,1,.086-.219.393.393,0,0,1,.27-.079q.952-.022,1.932-.019c.111-.343-.232-.66-.562-.8s-.72-.254-.885-.574c-.336-.654.533-1.561.165-2.123C327.817,100.88,327.113,101.537,326.551,101.813Z" transform="translate(-8.884 -31.216)"/><path class="d" d="M264.684,159.761a.6.6,0,0,1-.3.089c-.194,0-.317-.194-.409-.368-.432-.952-.184-2.161-.85-2.954a10.182,10.182,0,0,0-1.618,2.713l-2.538-.787a3.766,3.766,0,0,0,.482,2.913,3.88,3.88,0,0,0-1.2.815,1.323,1.323,0,0,0-.317,1.349,6.46,6.46,0,0,0,1.8.178,11.944,11.944,0,0,0,.19,3.344.635.635,0,0,0,.219.425c.187.117.432,0,.635-.1a5.931,5.931,0,0,0,2.094-2.221l.952,2.259a.987.987,0,0,0,.422.565.682.682,0,0,0,.793-.273,1.967,1.967,0,0,0,.279-.857l.355-2.151a.508.508,0,0,1,.117-.317.53.53,0,0,1,.374-.108q1.349-.038,2.694-.029c.155-.476-.317-.92-.781-1.12s-1.006-.355-1.234-.8c-.47-.911.742-2.174.228-2.957C266.448,158.467,265.467,159.374,264.684,159.761Z" transform="translate(-8.884 -31.216)"/><path class="d" d="M238.944,103.317a.616.616,0,0,1-.3.089c-.19,0-.317-.194-.406-.371-.435-.952-.184-2.161-.85-2.954a10.182,10.182,0,0,0-1.631,2.726l-2.538-.787a3.785,3.785,0,0,0,.479,2.916,3.9,3.9,0,0,0-1.2.815,1.326,1.326,0,0,0-.317,1.345,6.606,6.606,0,0,0,1.8.181,11.809,11.809,0,0,0,.19,3.341.612.612,0,0,0,.219.425c.187.121.432,0,.619-.1a5.892,5.892,0,0,0,2.094-2.221l.952,2.259a1.012,1.012,0,0,0,.419.568.682.682,0,0,0,.793-.276,1.987,1.987,0,0,0,.282-.857l.352-2.151a.571.571,0,0,1,.117-.317.539.539,0,0,1,.378-.108q1.349-.038,2.694-.025c.152-.479-.317-.923-.784-1.123s-1-.352-1.234-.8c-.466-.907.746-2.174.228-2.957C240.708,102.019,239.728,102.926,238.944,103.317Z" transform="translate(-8.884 -31.216)"/><path class="q" d="M317.051,138.271a.317.317,0,0,1-.162.048c-.1,0-.171-.1-.216-.2-.228-.5-.1-1.145-.451-1.567a5.438,5.438,0,0,0-.86,1.441l-1.352-.419a2.012,2.012,0,0,0,.254,1.548,2.091,2.091,0,0,0-.635.435.7.7,0,0,0-.165.714,3.43,3.43,0,0,0,.952.1,6.42,6.42,0,0,0,.1,1.777.34.34,0,0,0,.117.225c.1.063.228,0,.317-.054a3.122,3.122,0,0,0,1.111-1.18l.5,1.2a.517.517,0,0,0,.222.3.362.362,0,0,0,.422-.146,1.025,1.025,0,0,0,.149-.454l.187-1.145a.282.282,0,0,1,.063-.159.276.276,0,0,1,.2-.057c.476-.016.952-.019,1.431-.016.082-.254-.171-.489-.416-.6s-.533-.187-.657-.422c-.247-.485.4-1.155.124-1.587C317.987,137.582,317.467,138.064,317.051,138.271Z" transform="translate(-8.884 -31.216)"/><path class="q" d="M282.081,158.461a.317.317,0,0,1-.159.048c-.1,0-.175-.1-.219-.2-.228-.5-.1-1.149-.451-1.571a5.44,5.44,0,0,0-.86,1.441l-1.352-.419a2.009,2.009,0,0,0,.257,1.552,2.06,2.06,0,0,0-.635.432.7.7,0,0,0-.165.714,3.452,3.452,0,0,0,.952.1,6.3,6.3,0,0,0,.1,1.777.317.317,0,0,0,.114.225c.1.063.228,0,.317-.054a3.135,3.135,0,0,0,1.114-1.18l.5,1.2a.527.527,0,0,0,.225.3.355.355,0,0,0,.419-.143,1.051,1.051,0,0,0,.149-.457l.19-1.142a.289.289,0,0,1,.06-.162.276.276,0,0,1,.2-.057c.476,0,.952-.019,1.431-.016.082-.254-.171-.489-.416-.6s-.533-.187-.654-.422c-.251-.485.393-1.155.121-1.571C283.033,157.772,282.5,158.251,282.081,158.461Z" transform="translate(-8.884 -31.216)"/><path class="p" d="M248.244,87.8a.318.318,0,0,1-.159.048c-.1,0-.175-.1-.216-.2-.232-.5-.1-1.149-.454-1.571a5.455,5.455,0,0,0-.86,1.444l-1.352-.419a2,2,0,0,0,.257,1.548,2.059,2.059,0,0,0-.635.432.714.714,0,0,0-.165.717,3.452,3.452,0,0,0,.952.1,6.27,6.27,0,0,0,.1,1.774.242.242,0,0,0,.432.171,3.147,3.147,0,0,0,1.114-1.177l.5,1.2a.533.533,0,0,0,.225.317.365.365,0,0,0,.422-.146,1.111,1.111,0,0,0,.149-.457l.206-1.149a.292.292,0,0,1,.063-.162.3.3,0,0,1,.2-.057h1.428c.082-.254-.171-.489-.412-.6s-.536-.187-.657-.425c-.251-.482.393-1.155.121-1.571C249.18,87.112,248.663,87.594,248.244,87.8Z" transform="translate(-8.884 -31.216)"/><path class="p" d="M266.254,127.619a.317.317,0,0,1-.159.048c-.1,0-.175-.1-.216-.2-.232-.5-.1-1.149-.454-1.587a5.311,5.311,0,0,0-.857,1.444l-1.355-.406a2.015,2.015,0,0,0,.257,1.548,2.1,2.1,0,0,0-.635.432.714.714,0,0,0-.165.717,3.451,3.451,0,0,0,.952.1,6.281,6.281,0,0,0,.1,1.774.251.251,0,0,0,.444.171,3.148,3.148,0,0,0,1.114-1.177l.5,1.2a.558.558,0,0,0,.225.3.365.365,0,0,0,.422-.146,1.024,1.024,0,0,0,.149-.457l.187-1.142a.292.292,0,0,1,.063-.162.289.289,0,0,1,.2-.057c.476,0,.952-.019,1.431,0,.079-.254-.171-.489-.416-.6s-.533-.187-.657-.425c-.247-.482.393-1.155.121-1.571C267.194,126.921,266.673,127.413,266.254,127.619Z" transform="translate(-8.884 -31.216)"/><path class="p" d="M253.185,112.1a.317.317,0,0,1-.159.048c-.1,0-.175-.1-.219-.2-.228-.5-.1-1.149-.451-1.571a5.4,5.4,0,0,0-.86,1.444l-1.352-.419a2.015,2.015,0,0,0,.254,1.548,2.082,2.082,0,0,0-.635.432.7.7,0,0,0-.165.717,3.452,3.452,0,0,0,.952.1,6.279,6.279,0,0,0,.1,1.774.247.247,0,0,0,.444.171,3.116,3.116,0,0,0,1.111-1.177l.5,1.2a.546.546,0,0,0,.225.317.362.362,0,0,0,.419-.146,1.025,1.025,0,0,0,.149-.457l.19-1.142a.289.289,0,0,1,.06-.162.292.292,0,0,1,.2-.057c.476,0,.952-.019,1.431,0,.083-.254-.171-.489-.416-.6s-.533-.187-.654-.425c-.251-.482.393-1.155.121-1.571C254.121,111.408,253.6,111.89,253.185,112.1Z" transform="translate(-8.884 -31.216)"/><path class="p" d="M309.325,115.752a.317.317,0,0,1-.159.048c-.1,0-.171-.1-.216-.2-.232-.5-.1-1.149-.451-1.571a5.325,5.325,0,0,0-.86,1.444l-1.352-.419a2.015,2.015,0,0,0,.254,1.548,2.1,2.1,0,0,0-.635.432.717.717,0,0,0-.165.717,3.592,3.592,0,0,0,.952.1,6.285,6.285,0,0,0,.1,1.774.251.251,0,0,0,.447.171,3.138,3.138,0,0,0,1.111-1.177l.5,1.2a.539.539,0,0,0,.222.3.365.365,0,0,0,.422-.146,1.038,1.038,0,0,0,.149-.457l.187-1.142a.292.292,0,0,1,.063-.162.289.289,0,0,1,.2-.057c.476,0,.952-.019,1.431-.016.079-.251-.171-.489-.416-.593s-.533-.187-.657-.425c-.247-.482.4-1.155.121-1.571C310.264,115.063,309.744,115.545,309.325,115.752Z" transform="translate(-8.884 -31.216)"/><path class="q" d="M282.081,112.7a.317.317,0,0,1-.159.048c-.1,0-.175-.1-.219-.2-.228-.5-.1-1.145-.451-1.567a5.439,5.439,0,0,0-.86,1.441l-1.349-.413a2,2,0,0,0,.257,1.548,2.069,2.069,0,0,0-.635.435.7.7,0,0,0-.165.714,3.452,3.452,0,0,0,.952.1,6.3,6.3,0,0,0,.1,1.777.317.317,0,0,0,.114.225c.1.063.228,0,.317-.054a3.173,3.173,0,0,0,1.142-1.187l.5,1.2a.533.533,0,0,0,.225.3.359.359,0,0,0,.419-.146,1.025,1.025,0,0,0,.124-.466l.19-1.145a.279.279,0,0,1,.06-.159.3.3,0,0,1,.2-.06c.476,0,.952-.016,1.431,0,.082-.254-.171-.489-.416-.6s-.533-.187-.654-.422c-.251-.485.393-1.155.121-1.587C283.033,112.008,282.5,112.49,282.081,112.7Z" transform="translate(-8.884 -31.216)"/><path class="r" d="M273.536,116.415a.317.317,0,0,1-.162.048c-.1,0-.171-.1-.216-.2-.228-.5-.1-1.145-.451-1.567a5.439,5.439,0,0,0-.86,1.441l-1.352-.419a2.012,2.012,0,0,0,.254,1.548,2.092,2.092,0,0,0-.635.435.708.708,0,0,0-.168.714,3.466,3.466,0,0,0,.952.1,6.42,6.42,0,0,0,.1,1.777.339.339,0,0,0,.117.225c.1.063.228,0,.317-.054a3.122,3.122,0,0,0,1.111-1.18l.5,1.2a.517.517,0,0,0,.222.3.359.359,0,0,0,.422-.146,1.025,1.025,0,0,0,.149-.454l.187-1.142a.282.282,0,0,1,.063-.162.276.276,0,0,1,.2-.057c.476-.016.952-.019,1.431-.016.082-.254-.171-.489-.416-.6s-.533-.187-.657-.422c-.248-.485.4-1.155.124-1.587C274.466,115.726,273.952,116.209,273.536,116.415Z" transform="translate(-8.884 -31.216)"/><path class="q" d="M265.582,93.921a.317.317,0,0,1-.159.048c-.1,0-.171-.1-.216-.2-.232-.5-.1-1.149-.451-1.567a5.353,5.353,0,0,0-.86,1.441l-1.352-.419a2.015,2.015,0,0,0,.254,1.548,2.043,2.043,0,0,0-.635.432.714.714,0,0,0-.168.717,3.465,3.465,0,0,0,.952.1,6.269,6.269,0,0,0,.1,1.774.349.349,0,0,0,.117.228c.1.063.228,0,.317-.057a3.116,3.116,0,0,0,1.111-1.177l.5,1.2a.53.53,0,0,0,.222.317.362.362,0,0,0,.422-.146,1.025,1.025,0,0,0,.149-.454l.187-1.145a.292.292,0,0,1,.063-.162.317.317,0,0,1,.2-.057h1.431c.079-.254-.171-.489-.416-.6s-.533-.187-.657-.425c-.247-.482.4-1.155.121-1.571C266.5,93.22,265.985,93.7,265.582,93.921Z" transform="translate(-8.884 -31.216)"/><path class="r" d="M281.263,123.278a.317.317,0,0,1-.159.048.286.286,0,0,1-.216-.2c-.232-.5-.1-1.149-.454-1.567a5.438,5.438,0,0,0-.86,1.441l-1.352-.419a2.015,2.015,0,0,0,.257,1.548,2.116,2.116,0,0,0-.635.432.714.714,0,0,0-.165.717,3.452,3.452,0,0,0,.952.1,6.271,6.271,0,0,0,.1,1.774.243.243,0,0,0,.432.175,3.173,3.173,0,0,0,1.114-1.18l.5,1.2a.533.533,0,0,0,.225.3.362.362,0,0,0,.422-.146,1.11,1.11,0,0,0,.149-.454l.187-1.145a.216.216,0,0,1,.263-.219h1.428c.082-.254-.171-.489-.413-.6s-.536-.187-.657-.425c-.247-.482.393-1.155.121-1.571C282.2,122.59,281.682,123.072,281.263,123.278Z" transform="translate(-8.884 -31.216)"/></g></g></svg>